Manjari-Regular.ufo
<glyph name="exclam" format="2">
  <advance width="352"/>
  <unicode hex="0021"/>
  <outline>
    <contour>
      <point x="176.0" y="171.0" type="curve" smooth="yes"/>
      <point x="229.0" y="171.0"/>
      <point x="272.0" y="128.0"/>
      <point x="272.0" y="75.0" type="curve" smooth="yes"/>
      <point x="272.0" y="22.0"/>
      <point x="229.0" y="-21.0"/>
      <point x="176.0" y="-21.0" type="curve" smooth="yes"/>
      <point x="123.0" y="-21.0"/>
      <point x="80.0" y="22.0"/>
      <point x="80.0" y="75.0" type="curve" smooth="yes"/>
      <point x="80.0" y="128.0"/>
      <point x="123.0" y="171.0"/>
    </contour>
    <contour>
      <point x="171.0" y="1383.0" type="curve" smooth="yes"/>
      <point x="210.0" y="1383.0"/>
      <point x="251.0" y="1352.0"/>
      <point x="251.0" y="1313.0" type="curve"/>
      <point x="225.0" y="397.0" type="line"/>
      <point x="225.0" y="358.0"/>
      <point x="210.0" y="327.0"/>
      <point x="171.0" y="327.0" type="curve" smooth="yes"/>
      <point x="132.0" y="327.0"/>
      <point x="116.0" y="358.0"/>
      <point x="116.0" y="397.0" type="curve" smooth="yes"/>
      <point x="90.0" y="1313.0" type="line" smooth="yes"/>
      <point x="90.0" y="1351.0"/>
      <point x="132.0" y="1383.0"/>
    </contour>
  </outline>
</glyph>
<glyph name="numbersign" format="2">
	<unicode hex="0023"/>
	<advance width="942"/>
	<outline>
		<contour>
			<point x="446" y="781" type="line"/>
			<point x="384" y="450" type="line"/>
			<point x="633" y="450" type="line"/>
			<point x="692" y="781" type="line"/>
		</contour>
		<contour>
			<point x="807" y="781" type="line"/>
			<point x="746" y="450" type="line"/>
			<point x="938" y="450" type="line"/>
			<point x="938" y="349" type="line"/>
			<point x="728" y="349" type="line"/>
			<point x="659" y="-28" type="line"/>
			<point x="544" y="-28" type="line"/>
			<point x="612" y="349" type="line"/>
			<point x="366" y="349" type="line"/>
			<point x="296" y="-28" type="line"/>
			<point x="183" y="-28" type="line"/>
			<point x="251" y="349" type="line"/>
			<point x="68" y="349" type="line"/>
			<point x="68" y="450" type="line"/>
			<point x="272" y="450" type="line"/>
			<point x="330" y="781" type="line"/>
			<point x="134" y="781" type="line"/>
			<point x="134" y="882" type="line"/>
			<point x="350" y="882" type="line"/>
			<point x="413" y="1231" type="line"/>
			<point x="530" y="1231" type="line"/>
			<point x="462" y="882" type="line"/>
			<point x="711" y="882" type="line"/>
			<point x="774" y="1231" type="line"/>
			<point x="891" y="1231" type="line"/>
			<point x="824" y="882" type="line"/>
			<point x="996" y="882" type="line"/>
			<point x="996" y="781" type="line"/>
		</contour>
	</outline>
</glyph>
<glyph name="dollar" format="2">
	<unicode hex="0024"/>
	<advance width="1401"/>
	<outline>
		<contour>
			<point x="271" y="960" type="curve" smooth="yes"/>
			<point x="271" y="883"/>
			<point x="334" y="837"/>
			<point x="393" y="813" type="curve" smooth="yes"/>
			<point x="467" y="783"/>
			<point x="549" y="770"/>
			<point x="634" y="762" type="curve"/>
			<point x="634" y="1210" type="line"/>
			<point x="466" y="1192"/>
			<point x="271" y="1117"/>
		</contour>
		<contour>
			<point x="784" y="-84" type="line" smooth="yes"/>
			<point x="784" y="-119"/>
			<point x="752" y="-159"/>
			<point x="720" y="-159" type="curve" smooth="yes"/>
			<point x="663" y="-159"/>
			<point x="634" y="-134"/>
			<point x="634" y="-83" type="curve" smooth="yes"/>
			<point x="634" y="-5" type="line"/>
			<point x="400" y="15"/>
			<point x="202" y="120"/>
			<point x="109" y="300" type="curve" smooth="yes"/>
			<point x="104" y="309"/>
			<point x="100" y="326"/>
			<point x="100" y="336" type="curve" smooth="yes"/>
			<point x="100" y="377"/>
			<point x="134" y="411"/>
			<point x="175" y="411" type="curve" smooth="yes"/>
			<point x="201" y="411"/>
			<point x="231" y="392"/>
			<point x="242" y="369" type="curve" smooth="yes"/>
			<point x="312" y="235"/>
			<point x="453" y="162"/>
			<point x="634" y="145" type="curve"/>
			<point x="634" y="616" type="line"/>
			<point x="531" y="624"/>
			<point x="428" y="636"/>
			<point x="336" y="674" type="curve" smooth="yes"/>
			<point x="229" y="718"/>
			<point x="121" y="810"/>
			<point x="121" y="960" type="curve" smooth="yes"/>
			<point x="121" y="1217"/>
			<point x="386" y="1340"/>
			<point x="634" y="1361" type="curve"/>
			<point x="634" y="1422" type="line" smooth="yes"/>
			<point x="634" y="1463"/>
			<point x="667" y="1497"/>
			<point x="708" y="1497" type="curve" smooth="yes"/>
			<point x="709" y="1497" type="line" smooth="yes"/>
			<point x="751" y="1497"/>
			<point x="784" y="1463"/>
			<point x="784" y="1421" type="curve" smooth="yes"/>
			<point x="784" y="1361" type="line"/>
			<point x="986" y="1341"/>
			<point x="1159" y="1238"/>
			<point x="1242" y="1084" type="curve" smooth="yes"/>
			<point x="1247" y="1075"/>
			<point x="1252" y="1059"/>
			<point x="1252" y="1048" type="curve" smooth="yes"/>
			<point x="1252" y="1007"/>
			<point x="1218" y="973"/>
			<point x="1177" y="973" type="curve" smooth="yes"/>
			<point x="1152" y="973"/>
			<point x="1122" y="991"/>
			<point x="1110" y="1013" type="curve" smooth="yes"/>
			<point x="1051" y="1123"/>
			<point x="933" y="1193"/>
			<point x="784" y="1210" type="curve"/>
			<point x="784" y="751" type="line"/>
			<point x="880" y="744"/>
			<point x="975" y="734"/>
			<point x="1062" y="703" type="curve" smooth="yes"/>
			<point x="1182" y="661"/>
			<point x="1301" y="567"/>
			<point x="1301" y="404" type="curve" smooth="yes"/>
			<point x="1301" y="137"/>
			<point x="1046" y="12"/>
			<point x="784" y="-6" type="curve"/>
		</contour>
		<contour>
			<point x="784" y="144" type="line"/>
			<point x="964" y="158"/>
			<point x="1151" y="233"/>
			<point x="1151" y="404" type="curve" smooth="yes"/>
			<point x="1151" y="492"/>
			<point x="1081" y="537"/>
			<point x="1013" y="561" type="curve" smooth="yes"/>
			<point x="941" y="586"/>
			<point x="863" y="598"/>
			<point x="784" y="605" type="curve"/>
		</contour>
	</outline>
</glyph>
<glyph name="percent" format="2">
	<unicode hex="0025"/>
	<advance width="1584"/>
	<outline>
		<contour>
			<point x="1333" y="1443" type="curve" smooth="yes"/>
			<point x="1377" y="1443"/>
			<point x="1405" y="1399"/>
			<point x="1405" y="1367" type="curve" smooth="yes"/>
			<point x="1405" y="1351"/>
			<point x="1400" y="1336"/>
			<point x="1392" y="1324" type="curve" smooth="yes"/>
			<point x="437" y="15" type="line" smooth="yes"/>
			<point x="422" y="-4"/>
			<point x="403" y="-19"/>
			<point x="375" y="-19" type="curve" smooth="yes"/>
			<point x="329" y="-19"/>
			<point x="300" y="22"/>
			<point x="300" y="57" type="curve" smooth="yes"/>
			<point x="300" y="71"/>
			<point x="304" y="86"/>
			<point x="313" y="99" type="curve" smooth="yes"/>
			<point x="1268" y="1408" type="line" smooth="yes"/>
			<point x="1283" y="1429"/>
			<point x="1308" y="1443"/>
		</contour>
		<contour>
			<point x="1485" y="305" type="curve" smooth="yes"/>
			<point x="1485" y="120"/>
			<point x="1339" y="-28"/>
			<point x="1153" y="-28" type="curve" smooth="yes"/>
			<point x="974" y="-28"/>
			<point x="818" y="115"/>
			<point x="818" y="292" type="curve" smooth="yes"/>
			<point x="818" y="487"/>
			<point x="951" y="641"/>
			<point x="1155" y="641" type="curve" smooth="yes"/>
			<point x="1341" y="641"/>
			<point x="1485" y="486"/>
		</contour>
		<contour>
			<point x="1150" y="112" type="curve" smooth="yes"/>
			<point x="1262" y="112"/>
			<point x="1345" y="197"/>
			<point x="1345" y="308" type="curve" smooth="yes"/>
			<point x="1345" y="411"/>
			<point x="1257" y="500"/>
			<point x="1152" y="500" type="curve" smooth="yes"/>
			<point x="1045" y="500"/>
			<point x="957" y="409"/>
			<point x="957" y="306" type="curve" smooth="yes"/>
			<point x="957" y="204"/>
			<point x="1044" y="112"/>
		</contour>
		<contour>
			<point x="841" y="1015" type="curve" smooth="yes"/>
			<point x="841" y="830"/>
			<point x="695" y="682"/>
			<point x="509" y="682" type="curve" smooth="yes"/>
			<point x="330" y="682"/>
			<point x="174" y="823"/>
			<point x="174" y="1001" type="curve" smooth="yes"/>
			<point x="174" y="1196"/>
			<point x="307" y="1350"/>
			<point x="511" y="1350" type="curve" smooth="yes"/>
			<point x="697" y="1350"/>
			<point x="841" y="1196"/>
		</contour>
		<contour>
			<point x="506" y="821" type="curve" smooth="yes"/>
			<point x="618" y="821"/>
			<point x="701" y="906"/>
			<point x="701" y="1017" type="curve" smooth="yes"/>
			<point x="701" y="1120"/>
			<point x="614" y="1210"/>
			<point x="508" y="1210" type="curve" smooth="yes"/>
			<point x="401" y="1210"/>
			<point x="313" y="1118"/>
			<point x="313" y="1015" type="curve" smooth="yes"/>
			<point x="313" y="913"/>
			<point x="400" y="821"/>
		</contour>
	</outline>
</glyph>
<glyph name="ampersand" format="2">
	<unicode hex="0026"/>
	<advance width="1216"/>
	<outline>
		<contour>
			<point x="493" y="659" type="curve"/>
			<point x="373" y="595"/>
			<point x="239" y="507"/>
			<point x="239" y="378" type="curve" smooth="yes"/>
			<point x="239" y="239"/>
			<point x="350" y="135"/>
			<point x="495" y="135" type="curve" smooth="yes"/>
			<point x="617" y="135"/>
			<point x="722" y="218"/>
			<point x="776" y="293" type="curve"/>
			<point x="685" y="411"/>
			<point x="591" y="533"/>
		</contour>
		<contour>
			<point x="530" y="840" type="curve"/>
			<point x="653" y="913"/>
			<point x="718" y="992"/>
			<point x="718" y="1080" type="curve" smooth="yes"/>
			<point x="718" y="1169"/>
			<point x="648" y="1239"/>
			<point x="560" y="1239" type="curve" smooth="yes"/>
			<point x="471" y="1239"/>
			<point x="395" y="1175"/>
			<point x="395" y="1078" type="curve" smooth="yes"/>
			<point x="395" y="1003"/>
			<point x="440" y="956"/>
		</contour>
		<contour>
			<point x="858" y="1075" type="curve" smooth="yes"/>
			<point x="858" y="937"/>
			<point x="776" y="825"/>
			<point x="616" y="728" type="curve"/>
			<point x="707" y="611"/>
			<point x="784" y="512"/>
			<point x="846" y="431" type="curve"/>
			<point x="870" y="498"/>
			<point x="883" y="569"/>
			<point x="886" y="643" type="curve" smooth="yes"/>
			<point x="887" y="680"/>
			<point x="918" y="712"/>
			<point x="956" y="712" type="curve" smooth="yes"/>
			<point x="986" y="712"/>
			<point x="1026" y="682"/>
			<point x="1026" y="655" type="curve" smooth="yes"/>
			<point x="1026" y="531"/>
			<point x="999" y="414"/>
			<point x="945" y="304" type="curve"/>
			<point x="1048" y="170"/>
			<point x="1103" y="99"/>
			<point x="1108" y="92" type="curve" smooth="yes"/>
			<point x="1113" y="85"/>
			<point x="1116" y="73"/>
			<point x="1116" y="55" type="curve" smooth="yes"/>
			<point x="1116" y="17"/>
			<point x="1083" y="-13"/>
			<point x="1043" y="-13" type="curve" smooth="yes"/>
			<point x="1022" y="-13"/>
			<point x="1003" y="-3"/>
			<point x="988" y="17" type="curve" smooth="yes"/>
			<point x="937" y="85"/>
			<point x="896" y="139"/>
			<point x="864" y="179" type="curve"/>
			<point x="780" y="78"/>
			<point x="656" y="-6"/>
			<point x="494" y="-6" type="curve" smooth="yes"/>
			<point x="276" y="-6"/>
			<point x="101" y="154"/>
			<point x="101" y="369" type="curve" smooth="yes"/>
			<point x="101" y="575"/>
			<point x="215" y="669"/>
			<point x="406" y="772" type="curve"/>
			<point x="347" y="854"/>
			<point x="256" y="959"/>
			<point x="256" y="1083" type="curve" smooth="yes"/>
			<point x="256" y="1248"/>
			<point x="398" y="1381"/>
			<point x="551" y="1381" type="curve" smooth="yes"/>
			<point x="725" y="1381"/>
			<point x="858" y="1249"/>
		</contour>
	</outline>
</glyph>
<glyph name="quotesingle" format="2">
	<unicode hex="0027"/>
	<advance width="382"/>
	<outline>
		<contour>
			<point x="100" y="1346" type="line"/>
			<point x="100" y="1387"/>
			<point x="147" y="1426"/>
			<point x="189" y="1426" type="curve" smooth="yes"/>
			<point x="230" y="1426"/>
			<point x="285" y="1388"/>
			<point x="282" y="1345" type="curve"/>
			<point x="242" y="1033" type="line"/>
			<point x="239" y="992"/>
			<point x="226" y="957"/>
			<point x="185" y="957" type="curve" smooth="yes"/>
			<point x="144" y="957"/>
			<point x="130" y="992"/>
			<point x="130" y="1033" type="curve"/>
		</contour>
	</outline>
</glyph>
<glyph name="parenleft" format="2">
	<unicode hex="0028"/>
	<advance width="706"/>
	<outline>
		<contour>
			<point x="606" y="-276" type="curve" smooth="yes"/>
			<point x="606" y="-319"/>
			<point x="574" y="-355"/>
			<point x="533" y="-355" type="curve" smooth="yes"/>
			<point x="514" y="-355"/>
			<point x="497" y="-349"/>
			<point x="484" y="-338" type="curve" smooth="yes"/>
			<point x="278" y="-179"/>
			<point x="100" y="99"/>
			<point x="100" y="440" type="curve" smooth="yes"/>
			<point x="100" y="780"/>
			<point x="273" y="1059"/>
			<point x="478" y="1218" type="curve" smooth="yes"/>
			<point x="491" y="1229"/>
			<point x="508" y="1235"/>
			<point x="527" y="1235" type="curve" smooth="yes"/>
			<point x="568" y="1235"/>
			<point x="600" y="1199"/>
			<point x="600" y="1157" type="curve" smooth="yes"/>
			<point x="600" y="1134"/>
			<point x="590" y="1115"/>
			<point x="570" y="1100" type="curve" smooth="yes"/>
			<point x="399" y="966"/>
			<point x="250" y="726"/>
			<point x="250" y="441" type="curve" smooth="yes"/>
			<point x="250" y="155"/>
			<point x="403" y="-87"/>
			<point x="575" y="-220" type="curve" smooth="yes"/>
			<point x="596" y="-235"/>
			<point x="606" y="-253"/>
		</contour>
	</outline>
</glyph>
<glyph name="asterisk" format="2">
  <advance width="955"/>
  <unicode hex="002A"/>
  <outline>
    <contour>
      <point x="1.0" y="1236.0" type="curve" smooth="yes"/>
      <point x="1.0" y="1276.0"/>
      <point x="30.0" y="1312.0"/>
      <point x="67.0" y="1312.0" type="curve" smooth="yes"/>
      <point x="84.0" y="1312.0"/>
      <point x="98.0" y="1308.0"/>
      <point x="109.0" y="1301.0" type="curve" smooth="yes"/>
      <point x="415.0" y="1114.0" type="line"/>
      <point x="411.0" y="1362.0" type="line"/>
      <point x="411.0" y="1378.0" type="line" smooth="yes"/>
      <point x="411.0" y="1404.0"/>
      <point x="451.0" y="1434.0"/>
      <point x="481.0" y="1434.0" type="curve" smooth="yes"/>
      <point x="519.0" y="1434.0"/>
      <point x="551.0" y="1402.0"/>
      <point x="551.0" y="1364.0" type="curve" smooth="yes"/>
      <point x="555.0" y="1115.0" type="line"/>
      <point x="847.0" y="1302.0" type="line" smooth="yes"/>
      <point x="859.0" y="1310.0"/>
      <point x="873.0" y="1314.0"/>
      <point x="890.0" y="1314.0" type="curve" smooth="yes"/>
      <point x="920.0" y="1314.0"/>
      <point x="956.0" y="1282.0"/>
      <point x="956.0" y="1253.0" type="curve" smooth="yes"/>
      <point x="956.0" y="1221.0"/>
      <point x="945.0" y="1198.0"/>
      <point x="923.0" y="1184.0" type="curve" smooth="yes"/>
      <point x="619.0" y="990.0" type="line"/>
      <point x="922.0" y="805.0" type="line" smooth="yes"/>
      <point x="945.0" y="791.0"/>
      <point x="956.0" y="773.0"/>
      <point x="956.0" y="750.0" type="curve" smooth="yes"/>
      <point x="956.0" y="710.0"/>
      <point x="928.0" y="675.0"/>
      <point x="890.0" y="675.0" type="curve" smooth="yes"/>
      <point x="874.0" y="675.0"/>
      <point x="860.0" y="679.0"/>
      <point x="849.0" y="686.0" type="curve" smooth="yes"/>
      <point x="558.0" y="863.0" type="line"/>
      <point x="563.0" y="549.0" type="line"/>
      <point x="563.0" y="533.0" type="line" smooth="yes"/>
      <point x="563.0" y="506.0"/>
      <point x="523.0" y="477.0"/>
      <point x="493.0" y="477.0" type="curve" smooth="yes"/>
      <point x="455.0" y="477.0"/>
      <point x="423.0" y="509.0"/>
      <point x="423.0" y="547.0" type="curve" smooth="yes"/>
      <point x="418.0" y="862.0" type="line"/>
      <point x="109.0" y="664.0" type="line" smooth="yes"/>
      <point x="97.0" y="656.0"/>
      <point x="83.0" y="653.0"/>
      <point x="66.0" y="653.0" type="curve" smooth="yes"/>
      <point x="28.0" y="653.0"/>
      <point x="0.0" y="688.0"/>
      <point x="0.0" y="728.0" type="curve" smooth="yes"/>
      <point x="0.0" y="751.0"/>
      <point x="11.0" y="768.0"/>
      <point x="33.0" y="782.0" type="curve" smooth="yes"/>
      <point x="354.0" y="987.0" type="line"/>
      <point x="36.0" y="1182.0" type="line" smooth="yes"/>
      <point x="13.0" y="1196.0"/>
      <point x="1.0" y="1213.0"/>
    </contour>
  </outline>
</glyph>
<glyph name="plus" format="2">
	<unicode hex="002B"/>
	<advance width="1103"/>
	<outline>
		<contour>
			<point x="547" y="915" type="curve" smooth="yes"/>
			<point x="587.6093139648" y="915"/>
			<point x="619" y="882.6917114258"/>
			<point x="619" y="842" type="curve" smooth="yes"/>
			<point x="623" y="531" type="line"/>
			<point x="933" y="531" type="line" smooth="yes"/>
			<point x="972" y="531"/>
			<point x="1003" y="499"/>
			<point x="1003" y="460" type="curve" smooth="yes"/>
			<point x="1003" y="421"/>
			<point x="972" y="389"/>
			<point x="933" y="389" type="curve" smooth="yes"/>
			<point x="624" y="389" type="line"/>
			<point x="628" y="75" type="line" smooth="yes"/>
			<point x="628" y="35"/>
			<point x="595" y="2"/>
			<point x="555" y="2" type="curve" smooth="yes"/>
			<point x="515" y="2"/>
			<point x="483" y="35"/>
			<point x="483" y="75" type="curve" smooth="yes"/>
			<point x="479" y="389" type="line"/>
			<point x="171" y="389" type="line" smooth="yes"/>
			<point x="132" y="389"/>
			<point x="100" y="421"/>
			<point x="100" y="460" type="curve" smooth="yes"/>
			<point x="100" y="499"/>
			<point x="132" y="531"/>
			<point x="171" y="531" type="curve" smooth="yes"/>
			<point x="478" y="531" type="line"/>
			<point x="474" y="841" type="line" smooth="yes"/>
			<point x="474" y="881.4052124023"/>
			<point x="505.7662658691" y="915"/>
		</contour>
	</outline>
</glyph>
<glyph name="comma" format="2">
  <advance width="506"/>
  <unicode hex="002C"/>
  <outline>
    <contour>
      <point x="100.0" y="139.0" type="curve" smooth="yes"/>
      <point x="100.0" y="211.0"/>
      <point x="162.0" y="283.0"/>
      <point x="231.0" y="283.0" type="curve" smooth="yes"/>
      <point x="262.0" y="283.0"/>
      <point x="288.0" y="278.0"/>
      <point x="309.0" y="267.0" type="curve" smooth="yes"/>
      <point x="404.0" y="216.0"/>
      <point x="430.0" y="118.0"/>
      <point x="385.0" y="-28.0" type="curve" smooth="yes"/>
      <point x="352.0" y="-137.0"/>
      <point x="294.0" y="-219.0"/>
      <point x="211.0" y="-274.0" type="curve" smooth="yes"/>
      <point x="159.0" y="-309.0"/>
      <point x="102.0" y="-267.0"/>
      <point x="102.0" y="-212.0" type="curve" smooth="yes"/>
      <point x="102.0" y="-190.0"/>
      <point x="114.0" y="-171.0"/>
      <point x="137.0" y="-155.0" type="curve" smooth="yes"/>
      <point x="190.0" y="-120.0"/>
      <point x="227.0" y="-70.0"/>
      <point x="246.0" y="-5.0" type="curve"/>
      <point x="244.0" y="-5.0" type="line" smooth="yes"/>
      <point x="165.0" y="-5.0"/>
      <point x="100.0" y="60.0"/>
    </contour>
  </outline>
</glyph>
<glyph name="hyphen" format="2">
  <advance width="1102"/>
  <unicode hex="002D"/>
  <outline>
    <contour>
      <point x="170.0" y="603.0" type="curve" smooth="yes"/>
      <point x="932.0" y="603.0" type="line" smooth="yes"/>
      <point x="971.0" y="603.0"/>
      <point x="1002.0" y="572.0"/>
      <point x="1002.0" y="533.0" type="curve" smooth="yes"/>
      <point x="1002.0" y="494.0"/>
      <point x="971.0" y="463.0"/>
      <point x="932.0" y="463.0" type="curve" smooth="yes"/>
      <point x="170.0" y="463.0" type="line" smooth="yes"/>
      <point x="131.0" y="463.0"/>
      <point x="100.0" y="494.0"/>
      <point x="100.0" y="533.0" type="curve" smooth="yes"/>
      <point x="100.0" y="572.0"/>
      <point x="131.0" y="603.0"/>
    </contour>
  </outline>
</glyph>
<glyph name="period" format="2">
  <advance width="489"/>
  <unicode hex="002E"/>
  <outline>
    <contour>
      <point x="244.0" y="-4.0" type="curve" smooth="yes"/>
      <point x="166.0" y="-4.0"/>
      <point x="100.0" y="59.0"/>
      <point x="100.0" y="136.0" type="curve" smooth="yes"/>
      <point x="100.0" y="213.0"/>
      <point x="166.0" y="275.0"/>
      <point x="244.0" y="275.0" type="curve" smooth="yes"/>
      <point x="322.0" y="275.0"/>
      <point x="389.0" y="213.0"/>
      <point x="389.0" y="136.0" type="curve" smooth="yes"/>
      <point x="389.0" y="59.0"/>
      <point x="322.0" y="-4.0"/>
    </contour>
  </outline>
</glyph>
<glyph name="slash" format="2">
	<unicode hex="002F"/>
	<advance width="912"/>
	<outline>
		<contour>
			<point x="814" y="1424" type="curve" smooth="yes"/>
			<point x="861" y="1403"/>
			<point x="870" y="1355"/>
			<point x="855" y="1322" type="curve" smooth="yes"/>
			<point x="633" y="875"/>
			<point x="412" y="428"/>
			<point x="189" y="-18" type="curve" smooth="yes"/>
			<point x="174" y="-50"/>
			<point x="126" y="-60"/>
			<point x="100" y="-48" type="curve" smooth="yes"/>
			<point x="57" y="-29"/>
			<point x="38" y="14"/>
			<point x="57" y="54" type="curve" smooth="yes"/>
			<point x="719" y="1384" type="line" smooth="yes"/>
			<point x="737" y="1419"/>
			<point x="777" y="1441"/>
		</contour>
	</outline>
</glyph>
<glyph name="zero" format="2">
  <advance width="1100"/>
  <unicode hex="0030"/>
  <outline>
    <contour>
      <point x="550.0" y="125.0" type="curve" smooth="yes"/>
      <point x="812.0" y="125.0"/>
      <point x="910.0" y="404.0"/>
      <point x="910.0" y="696.0" type="curve" smooth="yes"/>
      <point x="910.0" y="971.0"/>
      <point x="809.0" y="1235.0"/>
      <point x="554.0" y="1235.0" type="curve" smooth="yes"/>
      <point x="294.0" y="1235.0"/>
      <point x="190.0" y="968.0"/>
      <point x="190.0" y="682.0" type="curve" smooth="yes"/>
      <point x="190.0" y="394.0"/>
      <point x="290.0" y="125.0"/>
    </contour>
    <contour>
      <point x="40.0" y="680.0" type="curve" smooth="yes"/>
      <point x="40.0" y="1054.0"/>
      <point x="221.0" y="1385.0"/>
      <point x="568.0" y="1385.0" type="curve" smooth="yes"/>
      <point x="898.0" y="1385.0"/>
      <point x="1060.0" y="1042.0"/>
      <point x="1060.0" y="688.0" type="curve" smooth="yes"/>
      <point x="1060.0" y="312.0"/>
      <point x="903.0" y="-25.0"/>
      <point x="546.0" y="-25.0" type="curve" smooth="yes"/>
      <point x="194.0" y="-25.0"/>
      <point x="40.0" y="319.0"/>
    </contour>
  </outline>
</glyph>
<glyph name="one" format="2">
	<unicode hex="0031"/>
	<advance width="772"/>
	<outline>
		<contour>
			<point x="166" y="1033" type="curve" smooth="yes"/>
			<point x="138" y="1033"/>
			<point x="103" y="1072"/>
			<point x="103" y="1101" type="curve" smooth="yes"/>
			<point x="103" y="1136"/>
			<point x="124" y="1174"/>
			<point x="155" y="1180" type="curve" smooth="yes"/>
			<point x="218" y="1192"/>
			<point x="276" y="1247"/>
			<point x="329" y="1344" type="curve" smooth="yes"/>
			<point x="344" y="1373"/>
			<point x="364" y="1387"/>
			<point x="390" y="1387" type="curve" smooth="yes"/>
			<point x="437" y="1387"/>
			<point x="472" y="1357"/>
			<point x="472" y="1312" type="curve" smooth="yes"/>
			<point x="472" y="136" type="line"/>
			<point x="616" y="136" type="line" smooth="yes"/>
			<point x="643" y="136"/>
			<point x="672" y="96"/>
			<point x="672" y="66" type="curve" smooth="yes"/>
			<point x="672" y="28"/>
			<point x="640" y="0"/>
			<point x="602" y="0" type="curve" smooth="yes"/>
			<point x="170" y="0" type="line" smooth="yes"/>
			<point x="132" y="0"/>
			<point x="100" y="28"/>
			<point x="100" y="66" type="curve" smooth="yes"/>
			<point x="100" y="96"/>
			<point x="129" y="136"/>
			<point x="156" y="136" type="curve" smooth="yes"/>
			<point x="322" y="136" type="line"/>
			<point x="322" y="1098" type="line"/>
			<point x="284" y="1067"/>
			<point x="231" y="1033"/>
		</contour>
	</outline>
</glyph>
<glyph name="two" format="2">
	<unicode hex="0032"/>
	<advance width="1100"/>
	<outline>
		<contour>
			<point x="164" y="-3" type="line" smooth="yes"/>
			<point x="123" y="-3"/>
			<point x="89" y="31"/>
			<point x="89" y="72" type="curve" smooth="yes"/>
			<point x="89" y="83"/>
			<point x="93" y="99"/>
			<point x="98" y="108" type="curve" smooth="yes"/>
			<point x="166" y="232"/>
			<point x="255" y="343"/>
			<point x="361" y="437" type="curve" smooth="yes"/>
			<point x="519" y="578"/>
			<point x="792" y="678"/>
			<point x="792" y="951" type="curve" smooth="yes"/>
			<point x="792" y="1111"/>
			<point x="674" y="1237"/>
			<point x="519" y="1237" type="curve" smooth="yes"/>
			<point x="390" y="1237"/>
			<point x="289" y="1141"/>
			<point x="267" y="1035" type="curve" smooth="yes"/>
			<point x="260" y="1002"/>
			<point x="227" y="974"/>
			<point x="193" y="974" type="curve" smooth="yes"/>
			<point x="147" y="974"/>
			<point x="110.8" y="1020"/>
			<point x="120" y="1066" type="curve" smooth="yes"/>
			<point x="156" y="1238"/>
			<point x="309" y="1387"/>
			<point x="521" y="1387" type="curve" smooth="yes"/>
			<point x="765" y="1387"/>
			<point x="942" y="1198"/>
			<point x="942" y="951" type="curve" smooth="yes"/>
			<point x="942" y="610"/>
			<point x="641" y="484"/>
			<point x="461" y="325" type="curve" smooth="yes"/>
			<point x="401" y="272"/>
			<point x="347" y="212"/>
			<point x="300" y="147" type="curve"/>
			<point x="936" y="147" type="line" smooth="yes"/>
			<point x="977" y="147"/>
			<point x="1011" y="113"/>
			<point x="1011" y="72" type="curve" smooth="yes"/>
			<point x="1011" y="31"/>
			<point x="977" y="-3"/>
			<point x="936" y="-3" type="curve" smooth="yes"/>
		</contour>
	</outline>
</glyph>
<glyph name="three" format="2">
	<unicode hex="0033"/>
	<advance width="1100"/>
	<outline>
		<contour>
			<point x="788" y="1003" type="curve" smooth="yes"/>
			<point x="788" y="1125"/>
			<point x="678" y="1227"/>
			<point x="553" y="1227" type="curve" smooth="yes"/>
			<point x="454" y="1227"/>
			<point x="361" y="1159"/>
			<point x="335" y="1088" type="curve" smooth="yes"/>
			<point x="318" y="1040"/>
			<point x="298" y="1019"/>
			<point x="248" y="1019" type="curve" smooth="yes"/>
			<point x="219" y="1019"/>
			<point x="182" y="1057"/>
			<point x="182" y="1086" type="curve" smooth="yes"/>
			<point x="182" y="1101"/>
			<point x="184" y="1112"/>
			<point x="187" y="1121" type="curve" smooth="yes"/>
			<point x="238" y="1260"/>
			<point x="371" y="1376"/>
			<point x="553" y="1376" type="curve" smooth="yes"/>
			<point x="762" y="1376"/>
			<point x="939" y="1213"/>
			<point x="939" y="992" type="curve" smooth="yes"/>
			<point x="939" y="866"/>
			<point x="873" y="769"/>
			<point x="802" y="709" type="curve"/>
			<point x="902" y="650"/>
			<point x="970" y="547"/>
			<point x="970" y="409" type="curve" smooth="yes"/>
			<point x="970" y="160"/>
			<point x="764" y="-17"/>
			<point x="529" y="-17" type="curve" smooth="yes"/>
			<point x="360" y="-17"/>
			<point x="220" y="79"/>
			<point x="144" y="186" type="curve" smooth="yes"/>
			<point x="135" y="199"/>
			<point x="130" y="216"/>
			<point x="130" y="234" type="curve" smooth="yes"/>
			<point x="130" y="274"/>
			<point x="167" y="305"/>
			<point x="210" y="305" type="curve" smooth="yes"/>
			<point x="234" y="305"/>
			<point x="252" y="294"/>
			<point x="267" y="273" type="curve" smooth="yes"/>
			<point x="316" y="204"/>
			<point x="413" y="134"/>
			<point x="523" y="134" type="curve" smooth="yes"/>
			<point x="682" y="134"/>
			<point x="820" y="251"/>
			<point x="820" y="405" type="curve" smooth="yes"/>
			<point x="820" y="568"/>
			<point x="704" y="618"/>
			<point x="534" y="619" type="curve" smooth="yes"/>
			<point x="495" y="619"/>
			<point x="463" y="649"/>
			<point x="463" y="693" type="curve" smooth="yes"/>
			<point x="463" y="748"/>
			<point x="507" y="772"/>
			<point x="551" y="772" type="curve" smooth="yes"/>
			<point x="683" y="772"/>
			<point x="788" y="846"/>
		</contour>
	</outline>
</glyph>
<glyph name="four" format="2">
	<unicode hex="0034"/>
	<advance width="1304"/>
	<outline>
		<contour>
			<point x="754" y="555" type="line"/>
			<point x="752" y="1096" type="line"/>
			<point x="330" y="557" type="line"/>
		</contour>
		<contour>
			<point x="830" y="-23" type="curve" smooth="yes"/>
			<point x="788" y="-23"/>
			<point x="754" y="11"/>
			<point x="754" y="53" type="curve" smooth="yes"/>
			<point x="754" y="405" type="line"/>
			<point x="176" y="407" type="line" smooth="yes"/>
			<point x="136" y="407"/>
			<point x="100" y="441"/>
			<point x="100" y="480" type="curve" smooth="yes"/>
			<point x="100" y="499"/>
			<point x="105" y="515"/>
			<point x="116" y="529" type="curve" smooth="yes"/>
			<point x="768" y="1357" type="line" smooth="yes"/>
			<point x="783" y="1376"/>
			<point x="802" y="1385"/>
			<point x="824" y="1385" type="curve" smooth="yes"/>
			<point x="867" y="1385"/>
			<point x="900" y="1352"/>
			<point x="900" y="1310" type="curve" smooth="yes"/>
			<point x="904" y="555" type="line"/>
			<point x="1128" y="554" type="line" smooth="yes"/>
			<point x="1169" y="554"/>
			<point x="1204" y="520"/>
			<point x="1204" y="479" type="curve" smooth="yes"/>
			<point x="1204" y="437"/>
			<point x="1168" y="404"/>
			<point x="1126" y="404" type="curve" smooth="yes"/>
			<point x="904" y="405" type="line"/>
			<point x="904" y="53" type="line" smooth="yes"/>
			<point x="904" y="11"/>
			<point x="872" y="-23"/>
		</contour>
	</outline>
</glyph>
<glyph name="five" format="2">
	<unicode hex="0035"/>
	<advance width="1136"/>
	<outline>
		<contour>
			<point x="230" y="615" type="curve" smooth="yes"/>
			<point x="193" y="615"/>
			<point x="152" y="645"/>
			<point x="152" y="678" type="curve" smooth="yes"/>
			<point x="152" y="690"/>
			<point x="153.3285711776" y="697.9319312523"/>
			<point x="256" y="1320" type="curve" smooth="yes"/>
			<point x="262" y="1357"/>
			<point x="292" y="1383"/>
			<point x="328" y="1383" type="curve" smooth="yes"/>
			<point x="942" y="1383" type="line" smooth="yes"/>
			<point x="979" y="1383"/>
			<point x="1018" y="1350"/>
			<point x="1018" y="1316" type="curve" smooth="yes"/>
			<point x="1018" y="1268"/>
			<point x="987" y="1233"/>
			<point x="942" y="1233" type="curve" smooth="yes"/>
			<point x="392" y="1233" type="line"/>
			<point x="336" y="884" type="line"/>
			<point x="407" y="921"/>
			<point x="480" y="940"/>
			<point x="558" y="940" type="curve" smooth="yes"/>
			<point x="826" y="940"/>
			<point x="1036" y="734"/>
			<point x="1036" y="461" type="curve" smooth="yes"/>
			<point x="1036" y="185"/>
			<point x="822" y="-22"/>
			<point x="550" y="-22" type="curve" smooth="yes"/>
			<point x="342" y="-22"/>
			<point x="180" y="101"/>
			<point x="108" y="249" type="curve" smooth="yes"/>
			<point x="103" y="260"/>
			<point x="100" y="274"/>
			<point x="100" y="290" type="curve" smooth="yes"/>
			<point x="100" y="322"/>
			<point x="137" y="358"/>
			<point x="170" y="358" type="curve" smooth="yes"/>
			<point x="205" y="358"/>
			<point x="230" y="344"/>
			<point x="244" y="315" type="curve" smooth="yes"/>
			<point x="295" y="211"/>
			<point x="402" y="128"/>
			<point x="550" y="128" type="curve" smooth="yes"/>
			<point x="738" y="128"/>
			<point x="886" y="271"/>
			<point x="886" y="460" type="curve" smooth="yes"/>
			<point x="886" y="650"/>
			<point x="744" y="790"/>
			<point x="546" y="790" type="curve" smooth="yes"/>
			<point x="441" y="790"/>
			<point x="335" y="716"/>
			<point x="288" y="648" type="curve" smooth="yes"/>
			<point x="273" y="626"/>
			<point x="254" y="615"/>
		</contour>
	</outline>
</glyph>
<glyph name="six" format="2">
	<unicode hex="0036"/>
	<advance width="1196"/>
	<outline>
		<contour>
			<point x="644" y="131" type="curve" smooth="yes"/>
			<point x="822" y="131"/>
			<point x="946" y="265"/>
			<point x="946" y="442" type="curve" smooth="yes"/>
			<point x="946" y="609"/>
			<point x="805" y="754"/>
			<point x="634" y="754" type="curve" smooth="yes"/>
			<point x="460" y="754"/>
			<point x="322" y="608"/>
			<point x="322" y="439" type="curve" smooth="yes"/>
			<point x="322" y="267"/>
			<point x="481" y="131"/>
		</contour>
		<contour>
			<point x="640" y="-18" type="curve" smooth="yes"/>
			<point x="278" y="-18"/>
			<point x="100" y="339"/>
			<point x="100" y="701" type="curve" smooth="yes"/>
			<point x="100" y="1055"/>
			<point x="289" y="1386"/>
			<point x="644" y="1386" type="curve" smooth="yes"/>
			<point x="825" y="1386"/>
			<point x="961" y="1284"/>
			<point x="1032" y="1163" type="curve" smooth="yes"/>
			<point x="1039" y="1151"/>
			<point x="1044" y="1137"/>
			<point x="1044" y="1120" type="curve" smooth="yes"/>
			<point x="1044" y="1088"/>
			<point x="1009" y="1050"/>
			<point x="978" y="1050" type="curve" smooth="yes"/>
			<point x="943" y="1050"/>
			<point x="917" y="1063"/>
			<point x="902" y="1088" type="curve" smooth="yes"/>
			<point x="855" y="1168"/>
			<point x="763" y="1237"/>
			<point x="644" y="1237" type="curve" smooth="yes"/>
			<point x="371" y="1237"/>
			<point x="250" y="969"/>
			<point x="250" y="696" type="curve"/>
			<point x="292" y="772"/>
			<point x="439.6470588235" y="902"/>
			<point x="622" y="902" type="curve" smooth="yes"/>
			<point x="893" y="902"/>
			<point x="1096" y="700"/>
			<point x="1096" y="432" type="curve" smooth="yes"/>
			<point x="1096" y="193"/>
			<point x="909" y="-18"/>
		</contour>
	</outline>
</glyph>
<glyph name="seven" format="2">
	<unicode hex="0037"/>
	<advance width="1100"/>
	<outline>
		<contour>
			<point x="962" y="1380" type="line" smooth="yes"/>
			<point x="1001" y="1380"/>
			<point x="1038" y="1350"/>
			<point x="1038" y="1306" type="curve" smooth="yes"/>
			<point x="1038" y="1293"/>
			<point x="1035" y="1282"/>
			<point x="1030" y="1271" type="curve" smooth="yes"/>
			<point x="829" y="870"/>
			<point x="659" y="455"/>
			<point x="522" y="28" type="curve" smooth="yes"/>
			<point x="512" y="-7"/>
			<point x="485" y="-25"/>
			<point x="442" y="-25" type="curve" smooth="yes"/>
			<point x="413" y="-25"/>
			<point x="360" y="-4"/>
			<point x="380" y="73" type="curve"/>
			<point x="507" y="469"/>
			<point x="660" y="855"/>
			<point x="842" y="1230" type="curve"/>
			<point x="138" y="1230" type="line" smooth="yes"/>
			<point x="97" y="1230"/>
			<point x="62" y="1264"/>
			<point x="62" y="1305" type="curve" smooth="yes"/>
			<point x="62" y="1346"/>
			<point x="97" y="1380"/>
			<point x="138" y="1380" type="curve" smooth="yes"/>
		</contour>
	</outline>
</glyph>
<glyph name="eight" format="2">
  <advance width="1100"/>
  <unicode hex="0038"/>
  <outline>
    <contour>
      <point x="834.0" y="375.0" type="curve" smooth="yes"/>
      <point x="834.0" y="517.0"/>
      <point x="694.0" y="618.0"/>
      <point x="548.0" y="618.0" type="curve" smooth="yes"/>
      <point x="405.0" y="618.0"/>
      <point x="264.0" y="526.0"/>
      <point x="264.0" y="376.0" type="curve" smooth="yes"/>
      <point x="264.0" y="231.0"/>
      <point x="402.0" y="131.0"/>
      <point x="550.0" y="131.0" type="curve" smooth="yes"/>
      <point x="698.0" y="131.0"/>
      <point x="834.0" y="230.0"/>
    </contour>
    <contour>
      <point x="308.0" y="1009.0" type="curve" smooth="yes"/>
      <point x="308.0" y="881.0"/>
      <point x="421.0" y="783.0"/>
      <point x="550.0" y="783.0" type="curve" smooth="yes"/>
      <point x="675.0" y="783.0"/>
      <point x="790.0" y="871.0"/>
      <point x="790.0" y="1008.0" type="curve" smooth="yes"/>
      <point x="790.0" y="1133.0"/>
      <point x="672.0" y="1231.0"/>
      <point x="554.0" y="1231.0" type="curve" smooth="yes"/>
      <point x="425.0" y="1231.0"/>
      <point x="308.0" y="1137.0"/>
    </contour>
    <contour>
      <point x="940.0" y="995.0" type="curve" smooth="yes"/>
      <point x="940.0" y="875.0"/>
      <point x="889.0" y="781.0"/>
      <point x="784.0" y="707.0" type="curve"/>
      <point x="891.0" y="646.0"/>
      <point x="986.0" y="528.0"/>
      <point x="986.0" y="372.0" type="curve" smooth="yes"/>
      <point x="986.0" y="138.0"/>
      <point x="776.0" y="-19.0"/>
      <point x="550.0" y="-19.0" type="curve" smooth="yes"/>
      <point x="322.0" y="-19.0"/>
      <point x="114.0" y="136.0"/>
      <point x="114.0" y="374.0" type="curve" smooth="yes"/>
      <point x="114.0" y="533.0"/>
      <point x="208.0" y="647.0"/>
      <point x="314.0" y="708.0" type="curve"/>
      <point x="224.0" y="772.0"/>
      <point x="160.0" y="874.0"/>
      <point x="160.0" y="1011.0" type="curve" smooth="yes"/>
      <point x="160.0" y="1218.0"/>
      <point x="344.0" y="1380.0"/>
      <point x="548.0" y="1380.0" type="curve" smooth="yes"/>
      <point x="760.0" y="1380.0"/>
      <point x="940.0" y="1216.0"/>
    </contour>
  </outline>
</glyph>
<glyph name="semicolon" format="2">
	<unicode hex="003B"/>
	<advance width="506"/>
	<outline>
		<contour>
			<point x="231" y="283" type="curve" smooth="yes"/>
			<point x="346" y="283"/>
			<point x="406" y="197"/>
			<point x="406" y="97" type="curve" smooth="yes"/>
			<point x="406" y="60"/>
			<point x="399" y="18"/>
			<point x="385" y="-28" type="curve" smooth="yes"/>
			<point x="352" y="-137"/>
			<point x="294" y="-219"/>
			<point x="211" y="-274" type="curve" smooth="yes"/>
			<point x="198" y="-283"/>
			<point x="184" y="-287"/>
			<point x="171" y="-287" type="curve" smooth="yes"/>
			<point x="133" y="-287"/>
			<point x="102" y="-253"/>
			<point x="102" y="-212" type="curve" smooth="yes"/>
			<point x="102" y="-190"/>
			<point x="114" y="-171"/>
			<point x="137" y="-155" type="curve" smooth="yes"/>
			<point x="190" y="-120"/>
			<point x="227" y="-70"/>
			<point x="246" y="-5" type="curve"/>
			<point x="244" y="-5" type="line" smooth="yes"/>
			<point x="165" y="-5"/>
			<point x="100" y="60"/>
			<point x="100" y="139" type="curve" smooth="yes"/>
			<point x="100" y="211"/>
			<point x="162" y="283"/>
		</contour>
		<contour>
			<point x="254" y="601" type="curve" smooth="yes"/>
			<point x="176" y="601"/>
			<point x="110" y="663"/>
			<point x="110" y="740" type="curve" smooth="yes"/>
			<point x="110" y="817"/>
			<point x="176" y="880"/>
			<point x="254" y="880" type="curve" smooth="yes"/>
			<point x="332" y="880"/>
			<point x="399" y="817"/>
			<point x="399" y="740" type="curve" smooth="yes"/>
			<point x="399" y="663"/>
			<point x="332" y="601"/>
		</contour>
	</outline>
</glyph>
<glyph name="less" format="2">
  <advance width="1003"/>
  <unicode hex="003C"/>
  <outline>
    <contour>
      <point x="800.0" y="1018.0" type="line" smooth="yes"/>
      <point x="809.0" y="1023.0"/>
      <point x="823.0" y="1026.0"/>
      <point x="834.0" y="1026.0" type="curve" smooth="yes"/>
      <point x="873.0" y="1026.0"/>
      <point x="904.0" y="995.0"/>
      <point x="904.0" y="956.0" type="curve" smooth="yes"/>
      <point x="904.0" y="932.0"/>
      <point x="887.0" y="905.0"/>
      <point x="866.0" y="894.0" type="curve" smooth="yes"/>
      <point x="317.0" y="603.0" type="line"/>
      <point x="866.0" y="299.0" type="line" smooth="yes"/>
      <point x="886.0" y="288.0"/>
      <point x="903.0" y="260.0"/>
      <point x="903.0" y="237.0" type="curve" smooth="yes"/>
      <point x="903.0" y="198.0"/>
      <point x="872.0" y="167.0"/>
      <point x="833.0" y="167.0" type="curve" smooth="yes"/>
      <point x="823.0" y="167.0"/>
      <point x="808.0" y="171.0"/>
      <point x="799.0" y="176.0" type="curve" smooth="yes"/>
      <point x="136.0" y="543.0" type="line" smooth="yes"/>
      <point x="116.0" y="554.0"/>
      <point x="100.0" y="581.0"/>
      <point x="100.0" y="604.0" type="curve" smooth="yes"/>
      <point x="100.0" y="627.0"/>
      <point x="116.0" y="655.0"/>
      <point x="137.0" y="666.0" type="curve" smooth="yes"/>
    </contour>
  </outline>
</glyph>
<glyph name="equal" format="2">
  <advance width="1109"/>
  <unicode hex="003D"/>
  <outline>
    <contour>
      <point x="100.0" y="702.0" type="curve" smooth="yes"/>
      <point x="100.0" y="732.0"/>
      <point x="130.0" y="772.0"/>
      <point x="156.0" y="772.0" type="curve"/>
      <point x="956.0" y="771.0" type="line"/>
      <point x="982.0" y="771.0"/>
      <point x="1010.0" y="730.0"/>
      <point x="1010.0" y="702.0" type="curve" smooth="yes"/>
      <point x="1010.0" y="672.0"/>
      <point x="980.0" y="631.0"/>
      <point x="954.0" y="631.0" type="curve" smooth="yes"/>
      <point x="156.0" y="631.0" type="line" smooth="yes"/>
      <point x="130.0" y="631.0"/>
      <point x="100.0" y="672.0"/>
    </contour>
    <contour>
      <point x="100.0" y="380.0" type="curve" smooth="yes"/>
      <point x="100.0" y="405.0"/>
      <point x="127.0" y="451.0"/>
      <point x="148.0" y="451.0" type="curve" smooth="yes"/>
      <point x="171.0" y="450.0" type="line"/>
      <point x="954.0" y="451.0" type="line"/>
      <point x="980.0" y="451.0"/>
      <point x="1010.0" y="410.0"/>
      <point x="1010.0" y="380.0" type="curve" smooth="yes"/>
      <point x="1010.0" y="350.0"/>
      <point x="980.0" y="310.0"/>
      <point x="954.0" y="310.0" type="curve" smooth="yes"/>
      <point x="156.0" y="310.0" type="line" smooth="yes"/>
      <point x="130.0" y="310.0"/>
      <point x="100.0" y="350.0"/>
    </contour>
  </outline>
</glyph>
<glyph name="question" format="2">
  <advance width="949"/>
  <unicode hex="003F"/>
  <outline>
    <contour>
      <point x="100.0" y="952.0" type="curve" smooth="yes"/>
      <point x="100.0" y="1154.0"/>
      <point x="264.0" y="1287.0"/>
      <point x="458.0" y="1287.0" type="curve" smooth="yes"/>
      <point x="641.0" y="1287.0"/>
      <point x="783.0" y="1190.0"/>
      <point x="832.0" y="1048.0" type="curve" smooth="yes"/>
      <point x="844.0" y="1014.0"/>
      <point x="849.0" y="979.0"/>
      <point x="849.0" y="944.0" type="curve" smooth="yes"/>
      <point x="849.0" y="759.0"/>
      <point x="715.0" y="654.0"/>
      <point x="621.0" y="571.0" type="curve" smooth="yes"/>
      <point x="566.0" y="522.0"/>
      <point x="515.0" y="481.0"/>
      <point x="515.0" y="393.0" type="curve" smooth="yes"/>
      <point x="515.0" y="374.0"/>
      <point x="521.0" y="356.0"/>
      <point x="521.0" y="338.0" type="curve" smooth="yes"/>
      <point x="521.0" y="302.0"/>
      <point x="492.0" y="273.0"/>
      <point x="456.0" y="273.0" type="curve" smooth="yes"/>
      <point x="398.0" y="273.0"/>
      <point x="385.0" y="335.0"/>
      <point x="385.0" y="394.0" type="curve" smooth="yes"/>
      <point x="385.0" y="618.0"/>
      <point x="602.0" y="688.0"/>
      <point x="683.0" y="823.0" type="curve" smooth="yes"/>
      <point x="705.0" y="859.0"/>
      <point x="719.0" y="895.0"/>
      <point x="719.0" y="944.0" type="curve" smooth="yes"/>
      <point x="719.0" y="1080.0"/>
      <point x="596.0" y="1157.0"/>
      <point x="460.0" y="1157.0" type="curve" smooth="yes"/>
      <point x="334.0" y="1157.0"/>
      <point x="230.0" y="1081.0"/>
      <point x="230.0" y="952.0" type="curve" smooth="yes"/>
      <point x="230.0" y="944.0"/>
      <point x="231.0" y="936.0"/>
      <point x="231.0" y="928.0" type="curve" smooth="yes"/>
      <point x="231.0" y="892.0"/>
      <point x="202.0" y="863.0"/>
      <point x="166.0" y="863.0" type="curve" smooth="yes"/>
      <point x="118.0" y="863.0"/>
      <point x="100.0" y="902.0"/>
    </contour>
    <contour>
      <point x="474.0" y="171.0" type="curve" smooth="yes"/>
      <point x="527.0" y="171.0"/>
      <point x="570.0" y="128.0"/>
      <point x="570.0" y="75.0" type="curve" smooth="yes"/>
      <point x="570.0" y="22.0"/>
      <point x="527.0" y="-21.0"/>
      <point x="474.0" y="-21.0" type="curve" smooth="yes"/>
      <point x="421.0" y="-21.0"/>
      <point x="378.0" y="22.0"/>
      <point x="378.0" y="75.0" type="curve" smooth="yes"/>
      <point x="378.0" y="128.0"/>
      <point x="421.0" y="171.0"/>
    </contour>
  </outline>
</glyph>
<glyph name="at" format="2">
	<unicode hex="0040"/>
	<advance width="1784"/>
	<outline>
		<contour>
			<point x="859" y="734" type="curve" smooth="yes"/>
			<point x="725" y="734"/>
			<point x="616" y="618"/>
			<point x="616" y="484" type="curve" smooth="yes"/>
			<point x="616" y="352"/>
			<point x="714" y="232"/>
			<point x="859" y="232" type="curve" smooth="yes"/>
			<point x="999" y="232"/>
			<point x="1103" y="341"/>
			<point x="1105" y="480" type="curve" smooth="yes"/>
			<point x="1104" y="619"/>
			<point x="997" y="734"/>
		</contour>
		<contour>
			<point x="867" y="83" type="curve" smooth="yes"/>
			<point x="638" y="83"/>
			<point x="466" y="263"/>
			<point x="466" y="492" type="curve" smooth="yes"/>
			<point x="466" y="695"/>
			<point x="646" y="884"/>
			<point x="846" y="884" type="curve" smooth="yes"/>
			<point x="945" y="884"/>
			<point x="1030" y="856"/>
			<point x="1102" y="800" type="curve"/>
			<point x="1102" y="811" type="line" smooth="yes"/>
			<point x="1102" y="852"/>
			<point x="1136" y="886"/>
			<point x="1177" y="886" type="curve" smooth="yes"/>
			<point x="1218" y="886"/>
			<point x="1252" y="852"/>
			<point x="1252" y="811" type="curve" smooth="yes"/>
			<point x="1252" y="321" type="line" smooth="yes"/>
			<point x="1252" y="266"/>
			<point x="1313" y="227"/>
			<point x="1370" y="227" type="curve" smooth="yes"/>
			<point x="1486" y="227"/>
			<point x="1532" y="355"/>
			<point x="1532" y="462" type="curve" smooth="yes"/>
			<point x="1532" y="819"/>
			<point x="1225" y="1111"/>
			<point x="900" y="1111" type="curve" smooth="yes"/>
			<point x="524" y="1111"/>
			<point x="249" y="809"/>
			<point x="249" y="481" type="curve" smooth="yes"/>
			<point x="249" y="136"/>
			<point x="505" y="-162"/>
			<point x="870" y="-162" type="curve" smooth="yes"/>
			<point x="944" y="-162"/>
			<point x="1019" y="-148"/>
			<point x="1097" y="-120" type="curve" smooth="yes"/>
			<point x="1119" y="-112"/>
			<point x="1137" y="-108"/>
			<point x="1153" y="-108" type="curve" smooth="yes"/>
			<point x="1190" y="-108"/>
			<point x="1209" y="-131"/>
			<point x="1209" y="-176" type="curve" smooth="yes"/>
			<point x="1209" y="-218"/>
			<point x="1189" y="-246"/>
			<point x="1149" y="-261" type="curve" smooth="yes"/>
			<point x="1054" y="-297"/>
			<point x="960" y="-314"/>
			<point x="869" y="-314" type="curve" smooth="yes"/>
			<point x="422" y="-314"/>
			<point x="99" y="57"/>
			<point x="99" y="477" type="curve" smooth="yes"/>
			<point x="99" y="871"/>
			<point x="430" y="1267"/>
			<point x="900" y="1267" type="curve" smooth="yes"/>
			<point x="1298" y="1267"/>
			<point x="1684" y="903"/>
			<point x="1684" y="464" type="curve" smooth="yes"/>
			<point x="1684" y="263"/>
			<point x="1570" y="76"/>
			<point x="1369" y="76" type="curve" smooth="yes"/>
			<point x="1269" y="76"/>
			<point x="1193" y="118"/>
			<point x="1140" y="201" type="curve"/>
			<point x="1077" y="137"/>
			<point x="981" y="83"/>
		</contour>
	</outline>
</glyph>
<glyph name="A" format="2">
	<unicode hex="0041"/>
	<advance width="1350"/>
	<outline>
		<contour>
			<point x="675" y="1120" type="line"/>
			<point x="464" y="634" type="line"/>
			<point x="889" y="634" type="line"/>
		</contour>
		<contour>
			<point x="120" y="-23" type="curve" smooth="yes"/>
			<point x="87" y="-23"/>
			<point x="50" y="13"/>
			<point x="50" y="45" type="curve" smooth="yes"/>
			<point x="50" y="61"/>
			<point x="52" y="73"/>
			<point x="57" y="83" type="curve"/>
			<point x="606" y="1338" type="line" smooth="yes"/>
			<point x="615" y="1358"/>
			<point x="645" y="1383"/>
			<point x="671" y="1383" type="curve" smooth="yes"/>
			<point x="706" y="1383"/>
			<point x="731" y="1368"/>
			<point x="744" y="1338" type="curve" smooth="yes"/>
			<point x="1294" y="85" type="line" smooth="yes"/>
			<point x="1298" y="76"/>
			<point x="1300" y="66"/>
			<point x="1300" y="56" type="curve" smooth="yes"/>
			<point x="1300" y="18"/>
			<point x="1272" y="-21"/>
			<point x="1234" y="-21" type="curve" smooth="yes"/>
			<point x="1195" y="-21"/>
			<point x="1169" y="-6"/>
			<point x="1156" y="25" type="curve" smooth="yes"/>
			<point x="955" y="484" type="line"/>
			<point x="399" y="484" type="line"/>
			<point x="194" y="23" type="line" smooth="yes"/>
			<point x="181" y="-8"/>
			<point x="156" y="-23"/>
		</contour>
	</outline>
</glyph>
<glyph name="B" format="2">
	<unicode hex="0042"/>
	<advance width="1238"/>
	<outline>
		<contour>
			<point x="705" y="142" type="line" smooth="yes"/>
			<point x="893" y="143"/>
			<point x="988" y="213"/>
			<point x="988" y="410" type="curve" smooth="yes"/>
			<point x="988" y="580"/>
			<point x="884" y="648"/>
			<point x="706" y="648" type="curve" smooth="yes"/>
			<point x="690" y="648" type="line"/>
			<point x="271" y="642" type="line"/>
			<point x="272" y="140" type="line"/>
		</contour>
		<contour>
			<point x="543" y="1231" type="curve" smooth="yes"/>
			<point x="270" y="1230" type="line"/>
			<point x="271" y="792" type="line"/>
			<point x="687" y="798" type="line" smooth="yes"/>
			<point x="838" y="800"/>
			<point x="931" y="854"/>
			<point x="931" y="994" type="curve" smooth="yes"/>
			<point x="931" y="1166"/>
			<point x="764" y="1231"/>
		</contour>
		<contour>
			<point x="1081" y="997" type="curve" smooth="yes"/>
			<point x="1081" y="880"/>
			<point x="1041" y="807"/>
			<point x="968" y="739" type="curve"/>
			<point x="1068" y="677"/>
			<point x="1138" y="567"/>
			<point x="1138" y="415" type="curve" smooth="yes"/>
			<point x="1138" y="140"/>
			<point x="985" y="-3"/>
			<point x="708" y="-1" type="curve" smooth="yes"/>
			<point x="195" y="0" type="line" smooth="yes"/>
			<point x="155" y="0"/>
			<point x="122" y="23"/>
			<point x="122" y="63" type="curve" smooth="yes"/>
			<point x="120" y="1309" type="line" smooth="yes"/>
			<point x="120" y="1348"/>
			<point x="154" y="1383"/>
			<point x="192" y="1384" type="curve" smooth="yes"/>
			<point x="536" y="1385" type="line" smooth="yes"/>
			<point x="847" y="1385"/>
			<point x="1081" y="1263"/>
		</contour>
	</outline>
</glyph>
<glyph name="C" format="2">
	<unicode hex="0043"/>
	<advance width="1479"/>
	<outline>
		<contour>
			<point x="1309" y="489" type="curve" smooth="yes"/>
			<point x="1342" y="489"/>
			<point x="1379" y="453"/>
			<point x="1379" y="421" type="curve" smooth="yes"/>
			<point x="1379" y="405"/>
			<point x="1377" y="392"/>
			<point x="1372" y="382" type="curve" smooth="yes"/>
			<point x="1275" y="165"/>
			<point x="1054" y="-22"/>
			<point x="752" y="-22" type="curve" smooth="yes"/>
			<point x="354" y="-22"/>
			<point x="100" y="294"/>
			<point x="100" y="688" type="curve" smooth="yes"/>
			<point x="100" y="1076"/>
			<point x="359" y="1386"/>
			<point x="749" y="1386" type="curve" smooth="yes"/>
			<point x="1045" y="1386"/>
			<point x="1268" y="1214"/>
			<point x="1369" y="1002" type="curve" smooth="yes"/>
			<point x="1374" y="992"/>
			<point x="1377" y="981"/>
			<point x="1377" y="968" type="curve" smooth="yes"/>
			<point x="1377" y="929"/>
			<point x="1343" y="894"/>
			<point x="1314" y="894" type="curve" smooth="yes"/>
			<point x="1274" y="894"/>
			<point x="1247" y="909"/>
			<point x="1234" y="938" type="curve" smooth="yes"/>
			<point x="1155" y="1104"/>
			<point x="981" y="1236"/>
			<point x="749" y="1236" type="curve" smooth="yes"/>
			<point x="441" y="1236"/>
			<point x="250" y="992"/>
			<point x="250" y="685" type="curve" smooth="yes"/>
			<point x="250" y="376"/>
			<point x="439" y="129"/>
			<point x="750" y="129" type="curve" smooth="yes"/>
			<point x="981" y="129"/>
			<point x="1160" y="276"/>
			<point x="1235" y="443" type="curve" smooth="yes"/>
			<point x="1248" y="473"/>
			<point x="1273" y="489"/>
		</contour>
	</outline>
</glyph>
<glyph name="D" format="2">
	<unicode hex="0044"/>
	<advance width="1364"/>
	<outline>
		<contour>
			<point x="1126" y="696" type="curve" smooth="yes"/>
			<point x="1126" y="1084"/>
			<point x="861" y="1242"/>
			<point x="465" y="1233" type="curve" smooth="yes"/>
			<point x="276" y="1229" type="line"/>
			<point x="270" y="144" type="line"/>
			<point x="542" y="142" type="line" smooth="yes"/>
			<point x="926" y="137"/>
			<point x="1126" y="322"/>
		</contour>
		<contour>
			<point x="552" y="1384" type="line" smooth="yes"/>
			<point x="1039" y="1387"/>
			<point x="1264" y="1028"/>
			<point x="1264" y="674" type="curve" smooth="yes"/>
			<point x="1264" y="333"/>
			<point x="1055" y="-2"/>
			<point x="672" y="-4" type="curve" smooth="yes"/>
			<point x="194" y="-2" type="line" smooth="yes"/>
			<point x="154" y="-1"/>
			<point x="120" y="29"/>
			<point x="120" y="70" type="curve" smooth="yes"/>
			<point x="127" y="1303" type="line" smooth="yes"/>
			<point x="127" y="1343"/>
			<point x="160" y="1381"/>
			<point x="200" y="1382" type="curve" smooth="yes"/>
		</contour>
	</outline>
</glyph>
<glyph name="E" format="2">
  <advance width="1308"/>
  <unicode hex="0045"/>
  <outline>
    <contour>
      <point x="120.0" y="1307.0" type="line" smooth="yes"/>
      <point x="120.0" y="1348.0"/>
      <point x="154.0" y="1382.0"/>
      <point x="195.0" y="1382.0" type="curve" smooth="yes"/>
      <point x="1132.0" y="1381.0" type="line"/>
      <point x="1133.0" y="1381.0" type="line" smooth="yes"/>
      <point x="1174.0" y="1381.0"/>
      <point x="1208.0" y="1347.0"/>
      <point x="1208.0" y="1306.0" type="curve" smooth="yes"/>
      <point x="1208.0" y="1265.0"/>
      <point x="1174.0" y="1231.0"/>
      <point x="1133.0" y="1231.0" type="curve" smooth="yes"/>
      <point x="1132.0" y="1231.0" type="line"/>
      <point x="270.0" y="1232.0" type="line"/>
      <point x="271.0" y="762.0" type="line"/>
      <point x="275.0" y="762.0"/>
      <point x="278.0" y="763.0"/>
      <point x="281.0" y="763.0" type="curve" smooth="yes"/>
      <point x="1050.0" y="758.0" type="line" smooth="yes"/>
      <point x="1093.0" y="758.0"/>
      <point x="1125.0" y="727.0"/>
      <point x="1125.0" y="678.0" type="curve" smooth="yes"/>
      <point x="1125.0" y="641.0"/>
      <point x="1088.0" y="608.0"/>
      <point x="1050.0" y="608.0" type="curve" smooth="yes"/>
      <point x="1049.0" y="608.0" type="line"/>
      <point x="280.0" y="613.0" type="line"/>
      <point x="272.0" y="613.0" type="line"/>
      <point x="273.0" y="148.0" type="line"/>
      <point x="1132.0" y="149.0" type="line"/>
      <point x="1133.0" y="149.0" type="line" smooth="yes"/>
      <point x="1174.0" y="149.0"/>
      <point x="1208.0" y="115.0"/>
      <point x="1208.0" y="74.0" type="curve" smooth="yes"/>
      <point x="1208.0" y="33.0"/>
      <point x="1174.0" y="-1.0"/>
      <point x="1133.0" y="-1.0" type="curve" smooth="yes"/>
      <point x="1132.0" y="-1.0" type="line"/>
      <point x="198.0" y="-2.0" type="line" smooth="yes"/>
      <point x="157.0" y="-2.0"/>
      <point x="123.0" y="32.0"/>
      <point x="123.0" y="73.0" type="curve" smooth="yes"/>
    </contour>
  </outline>
</glyph>
<glyph name="F" format="2">
	<unicode hex="0046"/>
	<advance width="1136"/>
	<outline>
		<contour>
			<point x="120" y="1309" type="line" smooth="yes"/>
			<point x="120" y="1350"/>
			<point x="154" y="1384"/>
			<point x="195" y="1384" type="curve" smooth="yes"/>
			<point x="1010" y="1385" type="line"/>
			<point x="1011" y="1385" type="line" smooth="yes"/>
			<point x="1052" y="1385"/>
			<point x="1086" y="1351"/>
			<point x="1086" y="1310" type="curve" smooth="yes"/>
			<point x="1086" y="1269"/>
			<point x="1052" y="1235"/>
			<point x="1011" y="1235" type="curve" smooth="yes"/>
			<point x="1010" y="1235" type="line"/>
			<point x="270" y="1234" type="line"/>
			<point x="271" y="813" type="line"/>
			<point x="274" y="813"/>
			<point x="276" y="813"/>
			<point x="279" y="814" type="curve"/>
			<point x="817" y="819" type="line"/>
			<point x="828" y="819" type="line" smooth="yes"/>
			<point x="863" y="819"/>
			<point x="893" y="778"/>
			<point x="893" y="750" type="curve" smooth="yes"/>
			<point x="893" y="704"/>
			<point x="862" y="669"/>
			<point x="818" y="669" type="curve" smooth="yes"/>
			<point x="281" y="664" type="line"/>
			<point x="272" y="664" type="line"/>
			<point x="273" y="65" type="line"/>
			<point x="273" y="63" type="line" smooth="yes"/>
			<point x="273" y="22"/>
			<point x="239" y="-12"/>
			<point x="198" y="-12" type="curve" smooth="yes"/>
			<point x="157" y="-12"/>
			<point x="123" y="22"/>
			<point x="123" y="63" type="curve" smooth="yes"/>
			<point x="123" y="64" type="line"/>
		</contour>
	</outline>
</glyph>
<glyph name="G" format="2">
  <advance width="1438"/>
  <unicode hex="0047"/>
  <outline>
    <contour>
      <point x="100.0" y="667.0" type="curve" smooth="yes"/>
      <point x="100.0" y="1055.0"/>
      <point x="385.0" y="1388.0"/>
      <point x="802.0" y="1388.0" type="curve" smooth="yes"/>
      <point x="996.0" y="1388.0"/>
      <point x="1147.0" y="1334.0"/>
      <point x="1285.0" y="1236.0" type="curve" smooth="yes"/>
      <point x="1303.0" y="1224.0"/>
      <point x="1318.0" y="1196.0"/>
      <point x="1318.0" y="1174.0" type="curve" smooth="yes"/>
      <point x="1318.0" y="1133.0"/>
      <point x="1284.0" y="1099.0"/>
      <point x="1243.0" y="1099.0" type="curve" smooth="yes"/>
      <point x="1230.0" y="1099.0"/>
      <point x="1210.0" y="1105.0"/>
      <point x="1199.0" y="1113.0" type="curve" smooth="yes"/>
      <point x="1091.0" y="1189.0"/>
      <point x="949.0" y="1237.0"/>
      <point x="807.0" y="1237.0" type="curve" smooth="yes"/>
      <point x="482.0" y="1237.0"/>
      <point x="248.0" y="982.0"/>
      <point x="248.0" y="671.0" type="curve" smooth="yes"/>
      <point x="248.0" y="351.0"/>
      <point x="471.0" y="136.0"/>
      <point x="795.0" y="136.0" type="curve" smooth="yes"/>
      <point x="920.0" y="136.0"/>
      <point x="1047.0" y="170.0"/>
      <point x="1145.0" y="205.0" type="curve"/>
      <point x="1142.0" y="580.0" type="line"/>
      <point x="812.0" y="580.0" type="line" smooth="yes"/>
      <point x="771.0" y="580.0"/>
      <point x="737.0" y="614.0"/>
      <point x="737.0" y="655.0" type="curve" smooth="yes"/>
      <point x="737.0" y="696.0"/>
      <point x="771.0" y="730.0"/>
      <point x="812.0" y="730.0" type="curve" smooth="yes"/>
      <point x="1217.0" y="730.0" type="line" smooth="yes"/>
      <point x="1258.0" y="730.0"/>
      <point x="1292.0" y="697.0"/>
      <point x="1292.0" y="656.0" type="curve" smooth="yes"/>
      <point x="1296.0" y="154.0" type="line"/>
      <point x="1296.0" y="153.0" type="line" smooth="yes"/>
      <point x="1296.0" y="125.0"/>
      <point x="1275.0" y="94.0"/>
      <point x="1249.0" y="84.0" type="curve" smooth="yes"/>
      <point x="1123.0" y="33.0"/>
      <point x="968.0" y="-15.0"/>
      <point x="802.0" y="-15.0" type="curve" smooth="yes"/>
      <point x="393.0" y="-15.0"/>
      <point x="100.0" y="259.0"/>
    </contour>
  </outline>
</glyph>
<glyph name="H" format="2">
	<unicode hex="0048"/>
	<advance width="1340"/>
	<outline>
		<contour>
			<point x="120" y="1319" type="line" smooth="yes"/>
			<point x="120" y="1354"/>
			<point x="161" y="1384"/>
			<point x="189" y="1384" type="curve" smooth="yes"/>
			<point x="235" y="1383"/>
			<point x="272" y="1353"/>
			<point x="272" y="1309" type="curve" smooth="yes"/>
			<point x="272" y="778" type="line"/>
			<point x="1070" y="778" type="line"/>
			<point x="1070" y="1309" type="line" smooth="yes"/>
			<point x="1070" y="1350"/>
			<point x="1103" y="1384"/>
			<point x="1144" y="1384" type="curve" smooth="yes"/>
			<point x="1186" y="1384"/>
			<point x="1220" y="1350"/>
			<point x="1220" y="1308" type="curve" smooth="yes"/>
			<point x="1220" y="60" type="line" smooth="yes"/>
			<point x="1220" y="19"/>
			<point x="1185" y="-15"/>
			<point x="1144" y="-15" type="curve" smooth="yes"/>
			<point x="1103" y="-15"/>
			<point x="1070" y="19"/>
			<point x="1070" y="60" type="curve" smooth="yes"/>
			<point x="1070" y="628" type="line"/>
			<point x="272" y="628" type="line"/>
			<point x="272" y="57" type="line" smooth="yes"/>
			<point x="272" y="16"/>
			<point x="239" y="-18"/>
			<point x="198" y="-18" type="curve" smooth="yes"/>
			<point x="156" y="-18"/>
			<point x="120" y="16"/>
			<point x="120" y="58" type="curve" smooth="yes"/>
		</contour>
	</outline>
</glyph>
<glyph name="I" format="2">
  <advance width="391"/>
  <unicode hex="0049"/>
  <outline>
    <contour>
      <point x="196.0" y="-21.0" type="curve" smooth="yes"/>
      <point x="155.0" y="-21.0"/>
      <point x="121.0" y="13.0"/>
      <point x="121.0" y="54.0" type="curve" smooth="yes"/>
      <point x="121.0" y="55.0" type="line"/>
      <point x="120.0" y="1311.0" type="line"/>
      <point x="120.0" y="1312.0" type="line" smooth="yes"/>
      <point x="120.0" y="1350.0"/>
      <point x="154.0" y="1387.0"/>
      <point x="190.0" y="1387.0" type="curve" smooth="yes"/>
      <point x="239.0" y="1387.0"/>
      <point x="270.0" y="1355.0"/>
      <point x="270.0" y="1312.0" type="curve" smooth="yes"/>
      <point x="270.0" y="1311.0" type="line"/>
      <point x="271.0" y="55.0" type="line"/>
      <point x="271.0" y="54.0" type="line" smooth="yes"/>
      <point x="271.0" y="13.0"/>
      <point x="237.0" y="-21.0"/>
    </contour>
  </outline>
</glyph>
<glyph name="J" format="2">
  <advance width="944"/>
  <unicode hex="004A"/>
  <outline>
    <contour>
      <point x="120.0" y="408.0" type="curve" smooth="yes"/>
      <point x="169.0" y="408.0"/>
      <point x="200.0" y="376.0"/>
      <point x="200.0" y="333.0" type="curve" smooth="yes"/>
      <point x="200.0" y="332.0" type="line" smooth="yes"/>
      <point x="200.0" y="222.0"/>
      <point x="292.0" y="130.0"/>
      <point x="404.0" y="130.0" type="curve" smooth="yes"/>
      <point x="615.0" y="130.0"/>
      <point x="674.0" y="327.0"/>
      <point x="674.0" y="559.0" type="curve" smooth="yes"/>
      <point x="674.0" y="593.0" type="line"/>
      <point x="664.0" y="1307.0" type="line"/>
      <point x="664.0" y="1309.0" type="line" smooth="yes"/>
      <point x="664.0" y="1349.0"/>
      <point x="699.0" y="1384.0"/>
      <point x="739.0" y="1384.0" type="curve" smooth="yes"/>
      <point x="780.0" y="1384.0"/>
      <point x="814.0" y="1350.0"/>
      <point x="814.0" y="1309.0" type="curve" smooth="yes"/>
      <point x="824.0" y="595.0" type="line" smooth="yes"/>
      <point x="824.0" y="583.0"/>
      <point x="824.0" y="571.0"/>
      <point x="824.0" y="559.0" type="curve" smooth="yes"/>
      <point x="824.0" y="232.0"/>
      <point x="706.0" y="-18.0"/>
      <point x="406.0" y="-18.0" type="curve" smooth="yes"/>
      <point x="207.0" y="-18.0"/>
      <point x="50.0" y="133.0"/>
      <point x="50.0" y="333.0" type="curve" smooth="yes"/>
      <point x="50.0" y="371.0"/>
      <point x="84.0" y="408.0"/>
    </contour>
  </outline>
</glyph>
<glyph name="K" format="2">
  <advance width="1265"/>
  <unicode hex="004B"/>
  <outline>
    <contour>
      <point x="120.0" y="95.0" type="curve" smooth="yes"/>
      <point x="120.0" y="151.0"/>
      <point x="122.0" y="227.0"/>
      <point x="122.0" y="352.0" type="curve" smooth="yes"/>
      <point x="123.0" y="1314.0" type="line" smooth="yes"/>
      <point x="123.0" y="1356.0"/>
      <point x="155.0" y="1390.0"/>
      <point x="197.0" y="1390.0" type="curve" smooth="yes"/>
      <point x="238.0" y="1390.0"/>
      <point x="273.0" y="1355.0"/>
      <point x="273.0" y="1314.0" type="curve" smooth="yes"/>
      <point x="274.0" y="1119.0"/>
      <point x="274.0" y="925.0"/>
      <point x="275.0" y="731.0" type="curve"/>
      <point x="1002.0" y="1360.0" type="line" smooth="yes"/>
      <point x="1019.0" y="1375.0"/>
      <point x="1036.0" y="1382.0"/>
      <point x="1052.0" y="1382.0" type="curve" smooth="yes"/>
      <point x="1092.0" y="1382.0"/>
      <point x="1126.0" y="1343.0"/>
      <point x="1126.0" y="1302.0" type="curve" smooth="yes"/>
      <point x="1126.0" y="1283.0"/>
      <point x="1119.0" y="1263.0"/>
      <point x="1101.0" y="1247.0" type="curve" smooth="yes"/>
      <point x="523.0" y="750.0" type="line"/>
      <point x="1143.0" y="116.0" type="line" smooth="yes"/>
      <point x="1159.0" y="100.0"/>
      <point x="1165.0" y="82.0"/>
      <point x="1165.0" y="65.0" type="curve" smooth="yes"/>
      <point x="1165.0" y="24.0"/>
      <point x="1127.0" y="-12.0"/>
      <point x="1087.0" y="-12.0" type="curve" smooth="yes"/>
      <point x="1069.0" y="-12.0"/>
      <point x="1052.0" y="-5.0"/>
      <point x="1036.0" y="11.0" type="curve" smooth="yes"/>
      <point x="410.0" y="650.0" type="line"/>
      <point x="274.0" y="531.0" type="line"/>
      <point x="272.0" y="270.0"/>
      <point x="271.0" y="113.0"/>
      <point x="270.0" y="60.0" type="curve"/>
      <point x="270.0" y="16.0"/>
      <point x="232.0" y="-14.0"/>
      <point x="193.0" y="-14.0" type="curve" smooth="yes"/>
      <point x="138.0" y="-14.0"/>
      <point x="120.0" y="26.0"/>
    </contour>
  </outline>
</glyph>
<glyph name="L" format="2">
  <advance width="1181"/>
  <unicode hex="004C"/>
  <outline>
    <contour>
      <point x="198.0" y="1.0" type="curve" smooth="yes"/>
      <point x="157.0" y="1.0"/>
      <point x="123.0" y="35.0"/>
      <point x="123.0" y="76.0" type="curve" smooth="yes"/>
      <point x="120.0" y="1305.0" type="line"/>
      <point x="120.0" y="1306.0" type="line" smooth="yes"/>
      <point x="120.0" y="1347.0"/>
      <point x="154.0" y="1381.0"/>
      <point x="195.0" y="1381.0" type="curve" smooth="yes"/>
      <point x="236.0" y="1381.0"/>
      <point x="270.0" y="1347.0"/>
      <point x="270.0" y="1306.0" type="curve" smooth="yes"/>
      <point x="270.0" y="1305.0" type="line"/>
      <point x="273.0" y="151.0" type="line"/>
      <point x="534.0" y="151.0"/>
      <point x="795.0" y="151.0"/>
      <point x="1056.0" y="151.0" type="curve" smooth="yes"/>
      <point x="1097.0" y="151.0"/>
      <point x="1131.0" y="117.0"/>
      <point x="1131.0" y="76.0" type="curve" smooth="yes"/>
      <point x="1131.0" y="35.0"/>
      <point x="1097.0" y="1.0"/>
      <point x="1056.0" y="1.0" type="curve" smooth="yes"/>
      <point x="770.0" y="1.0"/>
      <point x="484.0" y="1.0"/>
    </contour>
  </outline>
</glyph>
<glyph name="M" format="2">
	<unicode hex="004D"/>
	<advance width="1644"/>
	<outline>
		<contour>
			<point x="120" y="1310" type="line" smooth="yes"/>
			<point x="120" y="1347"/>
			<point x="151" y="1385"/>
			<point x="195" y="1385" type="curve" smooth="yes"/>
			<point x="221" y="1385"/>
			<point x="249" y="1365"/>
			<point x="263" y="1342" type="curve" smooth="yes"/>
			<point x="821" y="429" type="line"/>
			<point x="1385" y="1348" type="line" smooth="yes"/>
			<point x="1397" y="1368"/>
			<point x="1426" y="1384"/>
			<point x="1449" y="1384" type="curve" smooth="yes"/>
			<point x="1490" y="1384"/>
			<point x="1524" y="1350"/>
			<point x="1524" y="1309" type="curve" smooth="yes"/>
			<point x="1524" y="56" type="line" smooth="yes"/>
			<point x="1524" y="15"/>
			<point x="1490" y="-19"/>
			<point x="1449" y="-19" type="curve" smooth="yes"/>
			<point x="1408" y="-19"/>
			<point x="1374" y="15"/>
			<point x="1374" y="56" type="curve" smooth="yes"/>
			<point x="1374" y="1043" type="line"/>
			<point x="885" y="246" type="line" smooth="yes"/>
			<point x="873" y="226"/>
			<point x="844" y="210"/>
			<point x="821" y="210" type="curve" smooth="yes"/>
			<point x="798" y="210"/>
			<point x="769" y="226"/>
			<point x="757" y="246" type="curve" smooth="yes"/>
			<point x="270" y="1042" type="line"/>
			<point x="270" y="60" type="line" smooth="yes"/>
			<point x="270" y="19"/>
			<point x="236" y="-15"/>
			<point x="195" y="-15" type="curve" smooth="yes"/>
			<point x="154" y="-15"/>
			<point x="120" y="19"/>
			<point x="120" y="60" type="curve" smooth="yes"/>
		</contour>
	</outline>
</glyph>
<glyph name="N" format="2">
  <advance width="1325"/>
  <unicode hex="004E"/>
  <outline>
    <contour>
      <point x="120.0" y="1311.0" type="line" smooth="yes"/>
      <point x="120.0" y="1354.0"/>
      <point x="154.0" y="1386.0"/>
      <point x="198.0" y="1386.0" type="curve" smooth="yes"/>
      <point x="221.0" y="1386.0"/>
      <point x="240.0" y="1376.0"/>
      <point x="255.0" y="1356.0" type="curve" smooth="yes"/>
      <point x="1055.0" y="280.0" type="line"/>
      <point x="1055.0" y="1308.0" type="line" smooth="yes"/>
      <point x="1055.0" y="1349.0"/>
      <point x="1089.0" y="1383.0"/>
      <point x="1130.0" y="1383.0" type="curve" smooth="yes"/>
      <point x="1171.0" y="1383.0"/>
      <point x="1205.0" y="1349.0"/>
      <point x="1205.0" y="1308.0" type="curve" smooth="yes"/>
      <point x="1205.0" y="1307.0" type="line"/>
      <point x="1204.0" y="55.0" type="line"/>
      <point x="1204.0" y="12.0"/>
      <point x="1170.0" y="-20.0"/>
      <point x="1126.0" y="-20.0" type="curve" smooth="yes"/>
      <point x="1103.0" y="-20.0"/>
      <point x="1084.0" y="-10.0"/>
      <point x="1069.0" y="10.0" type="curve" smooth="yes"/>
      <point x="270.0" y="1085.0" type="line"/>
      <point x="270.0" y="56.0" type="line" smooth="yes"/>
      <point x="270.0" y="15.0"/>
      <point x="236.0" y="-19.0"/>
      <point x="195.0" y="-19.0" type="curve" smooth="yes"/>
      <point x="154.0" y="-19.0"/>
      <point x="120.0" y="15.0"/>
      <point x="120.0" y="56.0" type="curve" smooth="yes"/>
    </contour>
  </outline>
</glyph>
<glyph name="O" format="2">
	<unicode hex="004F"/>
	<advance width="1533"/>
	<outline>
		<contour>
			<point x="766" y="1233" type="curve" smooth="yes"/>
			<point x="454" y="1233"/>
			<point x="250" y="995"/>
			<point x="250" y="678" type="curve" smooth="yes"/>
			<point x="250" y="385"/>
			<point x="476" y="130"/>
			<point x="766" y="130" type="curve" smooth="yes"/>
			<point x="1055" y="130"/>
			<point x="1286" y="400"/>
			<point x="1286" y="678" type="curve" smooth="yes"/>
			<point x="1286" y="1008"/>
			<point x="1061" y="1233"/>
		</contour>
		<contour>
			<point x="766" y="1386" type="curve" smooth="yes"/>
			<point x="1159" y="1386"/>
			<point x="1433" y="1075"/>
			<point x="1433" y="678" type="curve" smooth="yes"/>
			<point x="1433" y="280"/>
			<point x="1163" y="-22"/>
			<point x="766" y="-22" type="curve" smooth="yes"/>
			<point x="361" y="-22"/>
			<point x="100" y="276"/>
			<point x="100" y="678" type="curve" smooth="yes"/>
			<point x="100" y="1068"/>
			<point x="379" y="1386"/>
		</contour>
	</outline>
</glyph>
<glyph name="P" format="2">
  <advance width="1110"/>
  <unicode hex="0050"/>
  <outline>
    <contour>
      <point x="860.0" y="962.0" type="curve" smooth="yes"/>
      <point x="860.0" y="1158.0"/>
      <point x="715.0" y="1234.0"/>
      <point x="502.0" y="1234.0" type="curve" smooth="yes"/>
      <point x="270.0" y="1234.0" type="line"/>
      <point x="271.0" y="645.0" type="line"/>
      <point x="463.0" y="649.0" type="line" smooth="yes"/>
      <point x="702.0" y="654.0"/>
      <point x="860.0" y="723.0"/>
    </contour>
    <contour>
      <point x="197.0" y="-15.0" type="curve" smooth="yes"/>
      <point x="156.0" y="-15.0"/>
      <point x="122.0" y="19.0"/>
      <point x="122.0" y="60.0" type="curve" smooth="yes"/>
      <point x="122.0" y="61.0" type="line"/>
      <point x="120.0" y="1308.0" type="line" smooth="yes"/>
      <point x="120.0" y="1334.0"/>
      <point x="148.0" y="1382.0"/>
      <point x="194.0" y="1383.0" type="curve" smooth="yes"/>
      <point x="509.0" y="1385.0" type="line" smooth="yes"/>
      <point x="794.0" y="1385.0"/>
      <point x="1010.0" y="1248.0"/>
      <point x="1010.0" y="963.0" type="curve" smooth="yes"/>
      <point x="1010.0" y="632.0"/>
      <point x="788.0" y="508.0"/>
      <point x="466.0" y="499.0" type="curve" smooth="yes"/>
      <point x="271.0" y="495.0" type="line"/>
      <point x="272.0" y="61.0" type="line"/>
      <point x="272.0" y="60.0" type="line" smooth="yes"/>
      <point x="272.0" y="19.0"/>
      <point x="238.0" y="-15.0"/>
    </contour>
  </outline>
</glyph>
<glyph name="Q" format="2">
	<unicode hex="0051"/>
	<advance width="1610"/>
	<outline>
		<contour>
			<point x="1437" y="-147" type="curve" smooth="yes"/>
			<point x="1467" y="-147"/>
			<point x="1499" y="-188"/>
			<point x="1499" y="-221" type="curve" smooth="yes"/>
			<point x="1499" y="-300"/>
			<point x="1401" y="-307"/>
			<point x="1318" y="-307" type="curve" smooth="yes"/>
			<point x="1269" y="-307" type="line" smooth="yes"/>
			<point x="1014" y="-307"/>
			<point x="806" y="-221"/>
			<point x="727" y="-47" type="curve"/>
			<point x="358" y="-17"/>
			<point x="100" y="259"/>
			<point x="100" y="663" type="curve" smooth="yes"/>
			<point x="100" y="1081"/>
			<point x="383" y="1383"/>
			<point x="807" y="1383" type="curve" smooth="yes"/>
			<point x="1231" y="1383"/>
			<point x="1510" y="1082"/>
			<point x="1510" y="663" type="curve" smooth="yes"/>
			<point x="1510" y="264"/>
			<point x="1258" y="-7"/>
			<point x="906" y="-45" type="curve"/>
			<point x="988" y="-126"/>
			<point x="1098" y="-167"/>
			<point x="1237" y="-167" type="curve" smooth="yes"/>
			<point x="1298" y="-167"/>
			<point x="1366" y="-147"/>
		</contour>
		<contour>
			<point x="264" y="663" type="curve" smooth="yes"/>
			<point x="264" y="337"/>
			<point x="473" y="90"/>
			<point x="807" y="90" type="curve" smooth="yes"/>
			<point x="1145" y="90"/>
			<point x="1342" y="330"/>
			<point x="1342" y="663" type="curve" smooth="yes"/>
			<point x="1342" y="995"/>
			<point x="1143" y="1241"/>
			<point x="807" y="1241" type="curve" smooth="yes"/>
			<point x="476" y="1241"/>
			<point x="264" y="987"/>
		</contour>
	</outline>
</glyph>
<glyph name="R" format="2">
	<unicode hex="0052"/>
	<advance width="1224"/>
	<outline>
		<contour>
			<point x="488" y="1238" type="curve" smooth="yes"/>
			<point x="270" y="1238" type="line"/>
			<point x="272" y="711" type="line"/>
			<point x="277" y="712"/>
			<point x="281" y="712"/>
			<point x="285" y="712" type="curve" smooth="yes"/>
			<point x="490" y="714" type="line" smooth="yes"/>
			<point x="735" y="716"/>
			<point x="908" y="790"/>
			<point x="908" y="979" type="curve" smooth="yes"/>
			<point x="908" y="1174"/>
			<point x="718" y="1238"/>
		</contour>
		<contour>
			<point x="1144" y="47" type="curve" smooth="yes"/>
			<point x="1144" y="8"/>
			<point x="1108" y="-24"/>
			<point x="1079" y="-24" type="curve" smooth="yes"/>
			<point x="1052" y="-24"/>
			<point x="1027" y="-7"/>
			<point x="1017" y="0" type="curve" smooth="yes"/>
			<point x="900" y="84"/>
			<point x="813" y="198"/>
			<point x="753" y="328" type="curve" smooth="yes"/>
			<point x="668" y="511"/>
			<point x="588" y="573"/>
			<point x="388" y="575" type="curve" smooth="yes"/>
			<point x="272" y="576" type="line"/>
			<point x="273" y="63" type="line"/>
			<point x="273" y="61" type="line" smooth="yes"/>
			<point x="273" y="21"/>
			<point x="238" y="-14"/>
			<point x="198" y="-14" type="curve" smooth="yes"/>
			<point x="157" y="-14"/>
			<point x="123" y="21"/>
			<point x="123" y="62" type="curve" smooth="yes"/>
			<point x="120" y="1312" type="line" smooth="yes"/>
			<point x="120" y="1354"/>
			<point x="154" y="1386"/>
			<point x="194" y="1387" type="curve" smooth="yes"/>
			<point x="460" y="1388" type="line"/>
			<point x="483" y="1388" type="line" smooth="yes"/>
			<point x="821" y="1388"/>
			<point x="1056" y="1259"/>
			<point x="1056" y="974" type="curve" smooth="yes"/>
			<point x="1056" y="774"/>
			<point x="914" y="646"/>
			<point x="757" y="596" type="curve"/>
			<point x="786" y="567"/>
			<point x="816" y="524"/>
			<point x="846" y="466" type="curve" smooth="yes"/>
			<point x="923" y="318"/>
			<point x="986" y="200"/>
			<point x="1112" y="109" type="curve" smooth="yes"/>
			<point x="1130" y="96"/>
			<point x="1144" y="73"/>
		</contour>
	</outline>
</glyph>
<glyph name="S" format="2">
  <advance width="1323"/>
  <unicode hex="0053"/>
  <outline>
    <contour>
      <point x="670.0" y="1381.0" type="curve" smooth="yes"/>
      <point x="888.0" y="1381.0"/>
      <point x="1071.0" y="1267.0"/>
      <point x="1148.0" y="1097.0" type="curve" smooth="yes"/>
      <point x="1152.0" y="1089.0"/>
      <point x="1155.0" y="1076.0"/>
      <point x="1155.0" y="1067.0" type="curve" smooth="yes"/>
      <point x="1155.0" y="1028.0"/>
      <point x="1123.0" y="996.0"/>
      <point x="1084.0" y="996.0" type="curve" smooth="yes"/>
      <point x="1058.0" y="996.0"/>
      <point x="1028.0" y="1015.0"/>
      <point x="1018.0" y="1039.0" type="curve" smooth="yes"/>
      <point x="963.0" y="1161.0"/>
      <point x="830.0" y="1238.0"/>
      <point x="670.0" y="1238.0" type="curve" smooth="yes"/>
      <point x="499.0" y="1238.0"/>
      <point x="280.0" y="1156.0"/>
      <point x="280.0" y="987.0" type="curve" smooth="yes"/>
      <point x="280.0" y="791.0"/>
      <point x="577.0" y="761.0"/>
      <point x="755.0" y="736.0" type="curve" smooth="yes"/>
      <point x="968.0" y="707.0"/>
      <point x="1203.0" y="627.0"/>
      <point x="1203.0" y="378.0" type="curve" smooth="yes"/>
      <point x="1203.0" y="106.0"/>
      <point x="907.0" y="-23.0"/>
      <point x="670.0" y="-23.0" type="curve" smooth="yes"/>
      <point x="423.0" y="-23.0"/>
      <point x="210.0" y="97.0"/>
      <point x="126.0" y="290.0" type="curve"/>
      <point x="123.0" y="298.0"/>
      <point x="120.0" y="311.0"/>
      <point x="120.0" y="319.0" type="curve" smooth="yes"/>
      <point x="120.0" y="358.0"/>
      <point x="152.0" y="390.0"/>
      <point x="191.0" y="390.0" type="curve" smooth="yes"/>
      <point x="217.0" y="390.0"/>
      <point x="247.0" y="370.0"/>
      <point x="257.0" y="346.0" type="curve" smooth="yes"/>
      <point x="320.0" y="203.0"/>
      <point x="476.0" y="117.0"/>
      <point x="670.0" y="117.0" type="curve" smooth="yes"/>
      <point x="840.0" y="117.0"/>
      <point x="1062.0" y="197.0"/>
      <point x="1062.0" y="378.0" type="curve" smooth="yes"/>
      <point x="1062.0" y="538.0"/>
      <point x="881.0" y="576.0"/>
      <point x="736.0" y="595.0" type="curve" smooth="yes"/>
      <point x="475.0" y="632.0"/>
      <point x="137.0" y="683.0"/>
      <point x="137.0" y="988.0" type="curve" smooth="yes"/>
      <point x="137.0" y="1244.0"/>
      <point x="425.0" y="1381.0"/>
    </contour>
  </outline>
</glyph>
<glyph name="T" format="2">
	<unicode hex="0054"/>
	<advance width="1251"/>
	<outline>
		<contour>
			<point x="50" y="1307" type="curve" smooth="yes"/>
			<point x="50" y="1349"/>
			<point x="84" y="1385"/>
			<point x="126" y="1385" type="curve" smooth="yes"/>
			<point x="1127" y="1385" type="line" smooth="yes"/>
			<point x="1168" y="1385"/>
			<point x="1202" y="1354"/>
			<point x="1202" y="1313" type="curve" smooth="yes"/>
			<point x="1202" y="1271"/>
			<point x="1168" y="1235"/>
			<point x="1126" y="1235" type="curve" smooth="yes"/>
			<point x="700" y="1235" type="line"/>
			<point x="700" y="58" type="line" smooth="yes"/>
			<point x="700" y="17"/>
			<point x="664" y="-17"/>
			<point x="623" y="-17" type="curve" smooth="yes"/>
			<point x="582" y="-17"/>
			<point x="550" y="17"/>
			<point x="550" y="58" type="curve" smooth="yes"/>
			<point x="550" y="1235" type="line"/>
			<point x="125" y="1235" type="line" smooth="yes"/>
			<point x="84" y="1235"/>
			<point x="50" y="1266"/>
		</contour>
	</outline>
</glyph>
<glyph name="U" format="2">
	<unicode hex="0055"/>
	<advance width="1366"/>
	<outline>
		<contour>
			<point x="120" y="1302" type="line" smooth="yes"/>
			<point x="120" y="1340"/>
			<point x="154" y="1377"/>
			<point x="190" y="1377" type="curve" smooth="yes"/>
			<point x="243" y="1377"/>
			<point x="269" y="1352"/>
			<point x="270" y="1302" type="curve" smooth="yes"/>
			<point x="277" y="623" type="line" smooth="yes"/>
			<point x="279" y="324"/>
			<point x="390" y="122"/>
			<point x="671" y="122" type="curve" smooth="yes"/>
			<point x="980" y="122"/>
			<point x="1096" y="328"/>
			<point x="1096" y="608" type="curve" smooth="yes"/>
			<point x="1094" y="1303" type="line"/>
			<point x="1094" y="1304" type="line" smooth="yes"/>
			<point x="1094" y="1345"/>
			<point x="1127" y="1379"/>
			<point x="1168" y="1379" type="curve" smooth="yes"/>
			<point x="1209" y="1379"/>
			<point x="1244" y="1345"/>
			<point x="1244" y="1304" type="curve" smooth="yes"/>
			<point x="1244" y="1303" type="line"/>
			<point x="1246" y="609" type="line" smooth="yes"/>
			<point x="1246" y="212"/>
			<point x="1059" y="-27"/>
			<point x="675" y="-27" type="curve" smooth="yes"/>
			<point x="307" y="-27"/>
			<point x="131" y="239"/>
			<point x="127" y="622" type="curve" smooth="yes"/>
			<point x="120" y="1301" type="line"/>
		</contour>
	</outline>
</glyph>
<glyph name="V" format="2">
	<unicode hex="0056"/>
	<advance width="1353"/>
	<outline>
		<contour>
			<point x="50" y="1302" type="curve" smooth="yes"/>
			<point x="50" y="1334"/>
			<point x="87" y="1370"/>
			<point x="120" y="1370" type="curve" smooth="yes"/>
			<point x="157" y="1370"/>
			<point x="181" y="1355"/>
			<point x="194" y="1325" type="curve" smooth="yes"/>
			<point x="702" y="238" type="line"/>
			<point x="1158" y="1336" type="line" smooth="yes"/>
			<point x="1171" y="1368"/>
			<point x="1196" y="1384"/>
			<point x="1233" y="1384" type="curve" smooth="yes"/>
			<point x="1267" y="1384"/>
			<point x="1303" y="1349"/>
			<point x="1303" y="1316" type="curve" smooth="yes"/>
			<point x="1303" y="1300"/>
			<point x="1301" y="1288"/>
			<point x="1298" y="1280" type="curve" smooth="yes"/>
			<point x="776" y="18" type="line" smooth="yes"/>
			<point x="767" y="-5"/>
			<point x="737" y="-30"/>
			<point x="706" y="-30" type="curve" smooth="yes"/>
			<point x="674" y="-30"/>
			<point x="652" y="-15"/>
			<point x="638" y="15" type="curve" smooth="yes"/>
			<point x="57" y="1264" type="line" smooth="yes"/>
			<point x="52" y="1274"/>
			<point x="50" y="1286"/>
		</contour>
	</outline>
</glyph>
<glyph name="W" format="2">
	<unicode hex="0057"/>
	<advance width="1850"/>
	<outline>
		<contour>
			<point x="854" y="1334" type="line" smooth="yes"/>
			<point x="863" y="1362"/>
			<point x="894" y="1386"/>
			<point x="925" y="1386" type="curve" smooth="yes"/>
			<point x="955" y="1386"/>
			<point x="988" y="1363"/>
			<point x="997" y="1334" type="curve" smooth="yes"/>
			<point x="1325" y="295" type="line"/>
			<point x="1654" y="1329" type="line" smooth="yes"/>
			<point x="1663" y="1358"/>
			<point x="1695" y="1382"/>
			<point x="1726" y="1382" type="curve" smooth="yes"/>
			<point x="1767" y="1382"/>
			<point x="1801" y="1348"/>
			<point x="1801" y="1307" type="curve" smooth="yes"/>
			<point x="1801" y="1300"/>
			<point x="1799" y="1289"/>
			<point x="1797" y="1283" type="curve" smooth="yes"/>
			<point x="1397" y="27" type="line" smooth="yes"/>
			<point x="1388" y="-2"/>
			<point x="1355" y="-25"/>
			<point x="1325" y="-25" type="curve" smooth="yes"/>
			<point x="1295" y="-25"/>
			<point x="1263" y="-2"/>
			<point x="1254" y="27" type="curve" smooth="yes"/>
			<point x="925" y="1065" type="line"/>
			<point x="597" y="27" type="line" smooth="yes"/>
			<point x="588" y="-2"/>
			<point x="555" y="-25"/>
			<point x="525" y="-25" type="curve" smooth="yes"/>
			<point x="495" y="-25"/>
			<point x="463" y="-2"/>
			<point x="454" y="27" type="curve" smooth="yes"/>
			<point x="54" y="1286" type="line" smooth="yes"/>
			<point x="52" y="1292"/>
			<point x="50" y="1303"/>
			<point x="50" y="1310" type="curve" smooth="yes"/>
			<point x="50" y="1351"/>
			<point x="84" y="1385"/>
			<point x="125" y="1385" type="curve" smooth="yes"/>
			<point x="156" y="1385"/>
			<point x="188" y="1360"/>
			<point x="197" y="1331" type="curve" smooth="yes"/>
			<point x="525" y="295" type="line"/>
		</contour>
	</outline>
</glyph>
<glyph name="X" format="2">
	<unicode hex="0058"/>
	<advance width="1234"/>
	<outline>
		<contour>
			<point x="1066" y="1375" type="curve" smooth="yes"/>
			<point x="1108" y="1375"/>
			<point x="1141" y="1341"/>
			<point x="1141" y="1300" type="curve" smooth="yes"/>
			<point x="1141" y="1286"/>
			<point x="1134" y="1266"/>
			<point x="1125" y="1255" type="curve" smooth="yes"/>
			<point x="709" y="702" type="line"/>
			<point x="1168" y="94" type="line" smooth="yes"/>
			<point x="1177" y="83"/>
			<point x="1184" y="61"/>
			<point x="1184" y="47" type="curve" smooth="yes"/>
			<point x="1184" y="6"/>
			<point x="1150" y="-28"/>
			<point x="1109" y="-28" type="curve" smooth="yes"/>
			<point x="1088" y="-28"/>
			<point x="1061" y="-14"/>
			<point x="1049" y="3" type="curve" smooth="yes"/>
			<point x="616" y="577" type="line"/>
			<point x="186" y="5" type="line" smooth="yes"/>
			<point x="174" y="-12"/>
			<point x="146" y="-26"/>
			<point x="125" y="-26" type="curve" smooth="yes"/>
			<point x="84" y="-26"/>
			<point x="50" y="8"/>
			<point x="50" y="49" type="curve" smooth="yes"/>
			<point x="50" y="63"/>
			<point x="57" y="84"/>
			<point x="66" y="95" type="curve" smooth="yes"/>
			<point x="522" y="701" type="line"/>
			<point x="99" y="1267" type="line" smooth="yes"/>
			<point x="90" y="1278"/>
			<point x="83" y="1299"/>
			<point x="83" y="1313" type="curve" smooth="yes"/>
			<point x="83" y="1354"/>
			<point x="117" y="1388"/>
			<point x="158" y="1388" type="curve" smooth="yes"/>
			<point x="180" y="1388"/>
			<point x="207" y="1374"/>
			<point x="219" y="1357" type="curve" smooth="yes"/>
			<point x="615" y="826" type="line"/>
			<point x="1005" y="1345" type="line" smooth="yes"/>
			<point x="1017" y="1362"/>
			<point x="1045" y="1375"/>
		</contour>
	</outline>
</glyph>
<glyph name="Y" format="2">
	<unicode hex="0059"/>
	<advance width="1129"/>
	<outline>
		<contour>
			<point x="50" y="1306" type="curve" smooth="yes"/>
			<point x="50" y="1346"/>
			<point x="88" y="1377"/>
			<point x="131" y="1377" type="curve" smooth="yes"/>
			<point x="156" y="1377"/>
			<point x="175" y="1365"/>
			<point x="189" y="1341" type="curve" smooth="yes"/>
			<point x="568" y="735" type="line"/>
			<point x="939" y="1333" type="line" smooth="yes"/>
			<point x="947" y="1347"/>
			<point x="977" y="1369"/>
			<point x="996" y="1369" type="curve" smooth="yes"/>
			<point x="1027" y="1369"/>
			<point x="1036" y="1369"/>
			<point x="1058" y="1346" type="curve" smooth="yes"/>
			<point x="1072" y="1331"/>
			<point x="1079" y="1315"/>
			<point x="1079" y="1298" type="curve" smooth="yes"/>
			<point x="1079" y="1281"/>
			<point x="1075" y="1266"/>
			<point x="1067" y="1253" type="curve" smooth="yes"/>
			<point x="639" y="565" type="line"/>
			<point x="632" y="56" type="line"/>
			<point x="632" y="15"/>
			<point x="598" y="-19"/>
			<point x="557" y="-19" type="curve" smooth="yes"/>
			<point x="516" y="-19"/>
			<point x="482" y="15"/>
			<point x="482" y="56" type="curve" smooth="yes"/>
			<point x="482" y="58" type="line"/>
			<point x="489" y="578" type="line"/>
			<point x="62" y="1261" type="line" smooth="yes"/>
			<point x="54" y="1274"/>
			<point x="50" y="1288"/>
		</contour>
	</outline>
</glyph>
<glyph name="Z" format="2">
	<unicode hex="005A"/>
	<advance width="1369"/>
	<outline>
		<contour>
			<point x="125" y="1232" type="line" smooth="yes"/>
			<point x="83" y="1232"/>
			<point x="50" y="1266"/>
			<point x="50" y="1308" type="curve" smooth="yes"/>
			<point x="50" y="1347"/>
			<point x="93" y="1385"/>
			<point x="118" y="1385" type="curve" smooth="yes"/>
			<point x="1244" y="1383" type="line" smooth="yes"/>
			<point x="1284" y="1383"/>
			<point x="1319" y="1349"/>
			<point x="1319" y="1309" type="curve" smooth="yes"/>
			<point x="1319" y="1289"/>
			<point x="1313" y="1273"/>
			<point x="1302" y="1260" type="curve" smooth="yes"/>
			<point x="293" y="149" type="line"/>
			<point x="1215" y="144" type="line"/>
			<point x="1216" y="144" type="line" smooth="yes"/>
			<point x="1260" y="144"/>
			<point x="1291" y="109"/>
			<point x="1291" y="64" type="curve" smooth="yes"/>
			<point x="1291" y="15"/>
			<point x="1237" y="-1"/>
			<point x="1214" y="-1" type="curve" smooth="yes"/>
			<point x="1213" y="-1"/>
			<point x="1213" y="-1"/>
			<point x="1213" y="0" type="curve"/>
			<point x="133" y="-1" type="line" smooth="yes"/>
			<point x="92" y="-1"/>
			<point x="58" y="32"/>
			<point x="58" y="73" type="curve" smooth="yes"/>
			<point x="58" y="93"/>
			<point x="64" y="109"/>
			<point x="75" y="122" type="curve" smooth="yes"/>
			<point x="1084" y="1233" type="line"/>
			<point x="126" y="1232" type="line"/>
		</contour>
	</outline>
</glyph>
<glyph name="bracketleft" format="2">
  <advance width="694"/>
  <unicode hex="005B"/>
  <outline>
    <contour>
      <point x="170.0" y="1385.0" type="curve" smooth="yes"/>
      <point x="524.0" y="1385.0" type="line" smooth="yes"/>
      <point x="563.0" y="1385.0"/>
      <point x="594.0" y="1354.0"/>
      <point x="594.0" y="1315.0" type="curve" smooth="yes"/>
      <point x="594.0" y="1276.0"/>
      <point x="563.0" y="1245.0"/>
      <point x="524.0" y="1245.0" type="curve" smooth="yes"/>
      <point x="240.0" y="1245.0" type="line"/>
      <point x="242.0" y="-278.0" type="line"/>
      <point x="522.0" y="-279.0" type="line"/>
      <point x="523.0" y="-279.0" type="line" smooth="yes"/>
      <point x="562.0" y="-279.0"/>
      <point x="593.0" y="-310.0"/>
      <point x="593.0" y="-349.0" type="curve" smooth="yes"/>
      <point x="593.0" y="-388.0"/>
      <point x="562.0" y="-419.0"/>
      <point x="523.0" y="-419.0" type="curve" smooth="yes"/>
      <point x="522.0" y="-419.0" type="line"/>
      <point x="172.0" y="-418.0" type="line" smooth="yes"/>
      <point x="133.0" y="-418.0"/>
      <point x="102.0" y="-387.0"/>
      <point x="102.0" y="-348.0" type="curve" smooth="yes"/>
      <point x="100.0" y="1315.0" type="line" smooth="yes"/>
      <point x="100.0" y="1354.0"/>
      <point x="131.0" y="1385.0"/>
    </contour>
  </outline>
</glyph>
<glyph name="backslash" format="2">
	<unicode hex="005C"/>
	<advance width="912"/>
	<outline>
		<contour>
			<point x="98" y="1424" type="curve" smooth="yes"/>
			<point x="135" y="1441"/>
			<point x="175" y="1419"/>
			<point x="193" y="1384" type="curve" smooth="yes"/>
			<point x="855" y="54" type="line" smooth="yes"/>
			<point x="874" y="14"/>
			<point x="855" y="-29"/>
			<point x="812" y="-48" type="curve" smooth="yes"/>
			<point x="786" y="-60"/>
			<point x="738" y="-50"/>
			<point x="723" y="-18" type="curve" smooth="yes"/>
			<point x="500" y="428"/>
			<point x="279" y="875"/>
			<point x="57" y="1322" type="curve" smooth="yes"/>
			<point x="42" y="1355"/>
			<point x="51" y="1403"/>
		</contour>
	</outline>
</glyph>
<glyph name="asciicircum" format="2">
  <advance width="761"/>
  <unicode hex="005E"/>
  <outline>
    <contour>
      <point x="324.0" y="1413.0" type="line" smooth="yes"/>
      <point x="335.0" y="1425.0"/>
      <point x="356.0" y="1434.0"/>
      <point x="373.0" y="1434.0" type="curve" smooth="yes"/>
      <point x="388.0" y="1434.0"/>
      <point x="411.0" y="1426.0"/>
      <point x="422.0" y="1415.0" type="curve" smooth="yes"/>
      <point x="739.0" y="1111.0" type="line" smooth="yes"/>
      <point x="751.0" y="1100.0"/>
      <point x="762.0" y="1077.0"/>
      <point x="762.0" y="1060.0" type="curve" smooth="yes"/>
      <point x="762.0" y="1021.0"/>
      <point x="731.0" y="990.0"/>
      <point x="692.0" y="990.0" type="curve" smooth="yes"/>
      <point x="676.0" y="990.0"/>
      <point x="654.0" y="999.0"/>
      <point x="643.0" y="1010.0" type="curve" smooth="yes"/>
      <point x="375.0" y="1266.0" type="line"/>
      <point x="121.0" y="1008.0" type="line" smooth="yes"/>
      <point x="110.0" y="996.0"/>
      <point x="87.0" y="986.0"/>
      <point x="70.0" y="986.0" type="curve" smooth="yes"/>
      <point x="31.0" y="986.0"/>
      <point x="0.0" y="1017.0"/>
      <point x="0.0" y="1056.0" type="curve" smooth="yes"/>
      <point x="0.0" y="1072.0"/>
      <point x="9.0" y="1095.0"/>
      <point x="21.0" y="1106.0" type="curve"/>
    </contour>
  </outline>
</glyph>
<glyph name="underscore" format="2">
  <advance width="1010"/>
  <unicode hex="005F"/>
  <outline>
    <contour>
      <point x="50.0" y="72.0" type="curve" smooth="yes"/>
      <point x="50.0" y="97.0"/>
      <point x="77.0" y="143.0"/>
      <point x="98.0" y="143.0" type="curve" smooth="yes"/>
      <point x="904.0" y="143.0" type="line" smooth="yes"/>
      <point x="930.0" y="143.0"/>
      <point x="960.0" y="102.0"/>
      <point x="960.0" y="72.0" type="curve" smooth="yes"/>
      <point x="960.0" y="42.0"/>
      <point x="930.0" y="2.0"/>
      <point x="904.0" y="2.0" type="curve" smooth="yes"/>
      <point x="106.0" y="2.0" type="line" smooth="yes"/>
      <point x="80.0" y="2.0"/>
      <point x="50.0" y="42.0"/>
    </contour>
  </outline>
</glyph>
<glyph name="grave" format="2">
	<unicode hex="0060"/>
	<advance width="459"/>
	<outline>
		<contour>
			<point x="0" y="1364" type="curve" smooth="yes"/>
			<point x="0" y="1402"/>
			<point x="31" y="1434"/>
			<point x="70" y="1434" type="curve" smooth="yes"/>
			<point x="86" y="1434"/>
			<point x="108" y="1425"/>
			<point x="119" y="1414" type="curve" smooth="yes"/>
			<point x="435" y="1095" type="line" smooth="yes"/>
			<point x="467" y="1060"/>
			<point x="462" y="1036"/>
			<point x="443" y="1013" type="curve" smooth="yes"/>
			<point x="414" y="978"/>
			<point x="368" y="1015"/>
			<point x="356" y="1025" type="curve" smooth="yes"/>
			<point x="22" y="1313" type="line" smooth="yes"/>
			<point x="10" y="1324"/>
			<point x="0" y="1347"/>
		</contour>
	</outline>
</glyph>
<glyph name="a" format="2">
	<unicode hex="0061"/>
	<advance width="1191"/>
	<outline>
		<contour>
			<point x="589" y="1025" type="curve" smooth="yes"/>
			<point x="732" y="1025"/>
			<point x="846" y="924"/>
			<point x="931" y="832" type="curve"/>
			<point x="940" y="958" type="line"/>
			<point x="940" y="996"/>
			<point x="962" y="1028"/>
			<point x="1001" y="1028" type="curve" smooth="yes"/>
			<point x="1040" y="1028"/>
			<point x="1071" y="997"/>
			<point x="1071" y="958" type="curve" smooth="yes"/>
			<point x="1071" y="54" type="line" smooth="yes"/>
			<point x="1071" y="15"/>
			<point x="1040" y="-16"/>
			<point x="1001" y="-16" type="curve" smooth="yes"/>
			<point x="962" y="-16"/>
			<point x="931" y="15"/>
			<point x="931" y="54" type="curve" smooth="yes"/>
			<point x="931" y="168" type="line"/>
			<point x="843" y="72"/>
			<point x="717" y="-20"/>
			<point x="584" y="-20" type="curve" smooth="yes"/>
			<point x="310" y="-20"/>
			<point x="100" y="227"/>
			<point x="100" y="501" type="curve" smooth="yes"/>
			<point x="100" y="774"/>
			<point x="309" y="1025"/>
		</contour>
		<contour>
			<point x="936" y="507" type="curve" smooth="yes"/>
			<point x="936" y="700"/>
			<point x="782" y="875"/>
			<point x="590" y="875" type="curve" smooth="yes"/>
			<point x="395" y="875"/>
			<point x="250" y="695"/>
			<point x="250" y="501" type="curve" smooth="yes"/>
			<point x="250" y="309"/>
			<point x="394" y="130"/>
			<point x="584" y="130" type="curve" smooth="yes"/>
			<point x="775" y="130"/>
			<point x="936" y="312"/>
		</contour>
	</outline>
</glyph>
<glyph name="b" format="2">
	<unicode hex="0062"/>
	<advance width="1166"/>
	<outline>
		<contour>
			<point x="600" y="-20" type="curve" smooth="yes"/>
			<point x="460" y="-20"/>
			<point x="346" y="73"/>
			<point x="270" y="150" type="curve"/>
			<point x="265" y="54" type="line"/>
			<point x="265" y="13"/>
			<point x="236" y="-21"/>
			<point x="195" y="-21" type="curve" smooth="yes"/>
			<point x="154" y="-21"/>
			<point x="120" y="13"/>
			<point x="120" y="54" type="curve" smooth="yes"/>
			<point x="120" y="1313" type="line" smooth="yes"/>
			<point x="120" y="1354"/>
			<point x="153" y="1388"/>
			<point x="195" y="1388" type="curve" smooth="yes"/>
			<point x="236" y="1388"/>
			<point x="270" y="1354"/>
			<point x="270" y="1313" type="curve" smooth="yes"/>
			<point x="270" y="861" type="line"/>
			<point x="351" y="946"/>
			<point x="460" y="1023"/>
			<point x="591" y="1023" type="curve" smooth="yes"/>
			<point x="867" y="1023"/>
			<point x="1066" y="766"/>
			<point x="1066" y="494" type="curve" smooth="yes"/>
			<point x="1066" y="223"/>
			<point x="872" y="-20"/>
		</contour>
		<contour>
			<point x="597" y="130" type="curve" smooth="yes"/>
			<point x="787" y="130"/>
			<point x="914" y="301"/>
			<point x="914" y="491" type="curve" smooth="yes"/>
			<point x="914" y="683"/>
			<point x="787" y="873"/>
			<point x="593" y="873" type="curve" smooth="yes"/>
			<point x="392" y="873"/>
			<point x="271" y="695"/>
			<point x="271" y="508" type="curve" smooth="yes"/>
			<point x="271" y="319"/>
			<point x="394" y="130"/>
		</contour>
	</outline>
</glyph>
<glyph name="c" format="2">
	<unicode hex="0063"/>
	<advance width="1128"/>
	<outline>
		<contour>
			<point x="100" y="503" type="curve" smooth="yes"/>
			<point x="100" y="780"/>
			<point x="317" y="1021"/>
			<point x="594" y="1021" type="curve" smooth="yes"/>
			<point x="798" y="1021"/>
			<point x="952" y="894"/>
			<point x="1019" y="747" type="curve" smooth="yes"/>
			<point x="1023" y="739"/>
			<point x="1027" y="724"/>
			<point x="1027" y="715" type="curve" smooth="yes"/>
			<point x="1027" y="674"/>
			<point x="993" y="641"/>
			<point x="952" y="641" type="curve" smooth="yes"/>
			<point x="925" y="641"/>
			<point x="895" y="660"/>
			<point x="884" y="685" type="curve" smooth="yes"/>
			<point x="838" y="785"/>
			<point x="733" y="872"/>
			<point x="594" y="872" type="curve" smooth="yes"/>
			<point x="400" y="872"/>
			<point x="249" y="698"/>
			<point x="249" y="502" type="curve" smooth="yes"/>
			<point x="249" y="306"/>
			<point x="399" y="132"/>
			<point x="594" y="132" type="curve" smooth="yes"/>
			<point x="733" y="132"/>
			<point x="839" y="218"/>
			<point x="885" y="318" type="curve" smooth="yes"/>
			<point x="896" y="343"/>
			<point x="926" y="363"/>
			<point x="953" y="363" type="curve" smooth="yes"/>
			<point x="994" y="363"/>
			<point x="1028" y="329"/>
			<point x="1028" y="288" type="curve" smooth="yes"/>
			<point x="1028" y="279"/>
			<point x="1025" y="265"/>
			<point x="1021" y="257" type="curve" smooth="yes"/>
			<point x="954" y="110"/>
			<point x="798" y="-17"/>
			<point x="594" y="-17" type="curve" smooth="yes"/>
			<point x="315" y="-17"/>
			<point x="100" y="225"/>
		</contour>
	</outline>
</glyph>
<glyph name="d" format="2">
  <advance width="1166"/>
  <unicode hex="0064"/>
  <outline>
    <contour>
      <point x="566.0" y="-21.0" type="curve" smooth="yes"/>
      <point x="294.0" y="-21.0"/>
      <point x="100.0" y="222.0"/>
      <point x="100.0" y="493.0" type="curve" smooth="yes"/>
      <point x="100.0" y="765.0"/>
      <point x="299.0" y="1022.0"/>
      <point x="575.0" y="1022.0" type="curve" smooth="yes"/>
      <point x="706.0" y="1022.0"/>
      <point x="815.0" y="945.0"/>
      <point x="896.0" y="860.0" type="curve"/>
      <point x="896.0" y="1312.0" type="line" smooth="yes"/>
      <point x="896.0" y="1353.0"/>
      <point x="930.0" y="1387.0"/>
      <point x="971.0" y="1387.0" type="curve" smooth="yes"/>
      <point x="1013.0" y="1387.0"/>
      <point x="1046.0" y="1353.0"/>
      <point x="1046.0" y="1312.0" type="curve" smooth="yes"/>
      <point x="1046.0" y="53.0" type="line" smooth="yes"/>
      <point x="1046.0" y="12.0"/>
      <point x="1012.0" y="-22.0"/>
      <point x="971.0" y="-22.0" type="curve" smooth="yes"/>
      <point x="930.0" y="-22.0"/>
      <point x="901.0" y="12.0"/>
      <point x="901.0" y="53.0" type="curve"/>
      <point x="896.0" y="149.0" type="line"/>
      <point x="820.0" y="72.0"/>
      <point x="706.0" y="-21.0"/>
    </contour>
    <contour>
      <point x="569.0" y="129.0" type="curve" smooth="yes"/>
      <point x="772.0" y="129.0"/>
      <point x="895.0" y="318.0"/>
      <point x="895.0" y="507.0" type="curve" smooth="yes"/>
      <point x="895.0" y="694.0"/>
      <point x="774.0" y="872.0"/>
      <point x="573.0" y="872.0" type="curve" smooth="yes"/>
      <point x="379.0" y="872.0"/>
      <point x="252.0" y="682.0"/>
      <point x="252.0" y="490.0" type="curve" smooth="yes"/>
      <point x="252.0" y="300.0"/>
      <point x="379.0" y="129.0"/>
    </contour>
  </outline>
</glyph>
<glyph name="e" format="2">
	<unicode hex="0065"/>
	<advance width="1162"/>
	<outline>
		<contour>
			<point x="618" y="-20" type="curve" smooth="yes"/>
			<point x="328" y="-20"/>
			<point x="100" y="221"/>
			<point x="100" y="509" type="curve" smooth="yes"/>
			<point x="100" y="783"/>
			<point x="317" y="1021"/>
			<point x="593" y="1021" type="curve" smooth="yes"/>
			<point x="847" y="1021"/>
			<point x="1062" y="812"/>
			<point x="1062" y="552" type="curve" smooth="yes"/>
			<point x="1062" y="490"/>
			<point x="1044" y="440"/>
			<point x="985" y="440" type="curve" smooth="yes"/>
			<point x="257" y="440" type="line"/>
			<point x="288" y="274"/>
			<point x="430" y="130"/>
			<point x="616" y="130" type="curve" smooth="yes"/>
			<point x="721" y="130"/>
			<point x="830" y="180"/>
			<point x="896" y="261" type="curve" smooth="yes"/>
			<point x="908" y="277"/>
			<point x="935" y="290"/>
			<point x="955" y="290" type="curve" smooth="yes"/>
			<point x="996" y="290"/>
			<point x="1030" y="256"/>
			<point x="1030" y="215" type="curve" smooth="yes"/>
			<point x="1030" y="200"/>
			<point x="1022" y="178"/>
			<point x="1012" y="166" type="curve" smooth="yes"/>
			<point x="916" y="48"/>
			<point x="769" y="-20"/>
		</contour>
		<contour>
			<point x="909" y="588" type="line"/>
			<point x="890" y="744"/>
			<point x="758" y="871"/>
			<point x="594" y="871" type="curve" smooth="yes"/>
			<point x="423" y="871"/>
			<point x="292" y="741"/>
			<point x="259" y="588" type="curve"/>
		</contour>
	</outline>
</glyph>
<glyph name="f" format="2">
	<unicode hex="0066"/>
	<advance width="703"/>
	<outline>
		<contour>
			<point x="624" y="1217" type="curve" smooth="yes"/>
			<point x="584" y="1217"/>
			<point x="560" y="1244"/>
			<point x="502" y="1243" type="curve" smooth="yes"/>
			<point x="417" y="1242"/>
			<point x="379" y="1186"/>
			<point x="380" y="1067" type="curve" smooth="yes"/>
			<point x="381" y="998" type="line"/>
			<point x="588" y="998" type="line" smooth="yes"/>
			<point x="626" y="998"/>
			<point x="658" y="962"/>
			<point x="658" y="924" type="curve" smooth="yes"/>
			<point x="658" y="894"/>
			<point x="625" y="858"/>
			<point x="598" y="858" type="curve" smooth="yes"/>
			<point x="381" y="858" type="line"/>
			<point x="383" y="52" type="line" smooth="yes"/>
			<point x="383" y="11"/>
			<point x="349" y="-23"/>
			<point x="308" y="-23" type="curve" smooth="yes"/>
			<point x="266" y="-23"/>
			<point x="233" y="11"/>
			<point x="233" y="53" type="curve" smooth="yes"/>
			<point x="231" y="858" type="line"/>
			<point x="92" y="858" type="line" smooth="yes"/>
			<point x="51" y="858"/>
			<point x="22" y="887"/>
			<point x="22" y="934" type="curve" smooth="yes"/>
			<point x="22" y="961"/>
			<point x="53" y="995"/>
			<point x="78" y="995" type="curve" smooth="yes"/>
			<point x="231" y="998" type="line"/>
			<point x="231" y="1060" type="line" smooth="yes"/>
			<point x="231" y="1270"/>
			<point x="307" y="1388"/>
			<point x="509" y="1388" type="curve" smooth="yes"/>
			<point x="560" y="1388"/>
			<point x="703" y="1368"/>
			<point x="703" y="1298" type="curve" smooth="yes"/>
			<point x="703" y="1253"/>
			<point x="675" y="1217"/>
		</contour>
	</outline>
</glyph>
<glyph name="g" format="2">
  <advance width="1201"/>
  <unicode hex="0067"/>
  <outline>
    <contour>
      <point x="586.0" y="1018.0" type="curve" smooth="yes"/>
      <point x="725.0" y="1018.0"/>
      <point x="843.0" y="937.0"/>
      <point x="930.0" y="844.0" type="curve"/>
      <point x="935.0" y="946.0" type="line" smooth="yes"/>
      <point x="935.0" y="987.0"/>
      <point x="965.0" y="1021.0"/>
      <point x="1006.0" y="1021.0" type="curve" smooth="yes"/>
      <point x="1047.0" y="1021.0"/>
      <point x="1081.0" y="987.0"/>
      <point x="1081.0" y="946.0" type="curve"/>
      <point x="1080.0" y="944.0" type="line"/>
      <point x="1073.0" y="0.0" type="line" smooth="yes"/>
      <point x="1071.0" y="-286.0"/>
      <point x="827.0" y="-524.0"/>
      <point x="539.0" y="-524.0" type="curve" smooth="yes"/>
      <point x="377.0" y="-524.0"/>
      <point x="221.0" y="-449.0"/>
      <point x="120.0" y="-322.0" type="curve" smooth="yes"/>
      <point x="111.0" y="-311.0"/>
      <point x="103.0" y="-289.0"/>
      <point x="103.0" y="-274.0" type="curve" smooth="yes"/>
      <point x="103.0" y="-233.0"/>
      <point x="137.0" y="-199.0"/>
      <point x="178.0" y="-199.0" type="curve" smooth="yes"/>
      <point x="198.0" y="-199.0"/>
      <point x="226.0" y="-213.0"/>
      <point x="238.0" y="-229.0" type="curve" smooth="yes"/>
      <point x="309.0" y="-318.0"/>
      <point x="425.0" y="-374.0"/>
      <point x="539.0" y="-374.0" type="curve" smooth="yes"/>
      <point x="746.0" y="-374.0"/>
      <point x="919.0" y="-202.0"/>
      <point x="923.0" y="2.0" type="curve" smooth="yes"/>
      <point x="924.0" y="152.0" type="line"/>
      <point x="836.0" y="62.0"/>
      <point x="715.0" y="-22.0"/>
      <point x="586.0" y="-22.0" type="curve" smooth="yes"/>
      <point x="310.0" y="-22.0"/>
      <point x="100.0" y="225.0"/>
      <point x="100.0" y="498.0" type="curve" smooth="yes"/>
      <point x="100.0" y="769.0"/>
      <point x="308.0" y="1018.0"/>
    </contour>
    <contour>
      <point x="921.0" y="498.0" type="curve" smooth="yes"/>
      <point x="921.0" y="691.0"/>
      <point x="778.0" y="868.0"/>
      <point x="586.0" y="868.0" type="curve" smooth="yes"/>
      <point x="392.0" y="868.0"/>
      <point x="251.0" y="691.0"/>
      <point x="251.0" y="498.0" type="curve" smooth="yes"/>
      <point x="251.0" y="306.0"/>
      <point x="394.0" y="128.0"/>
      <point x="586.0" y="128.0" type="curve" smooth="yes"/>
      <point x="777.0" y="128.0"/>
      <point x="921.0" y="305.0"/>
    </contour>
  </outline>
</glyph>
<glyph name="h" format="2">
	<unicode hex="0068"/>
	<advance width="1092"/>
	<outline>
		<contour>
			<point x="120" y="1308" type="line" smooth="yes"/>
			<point x="120" y="1349"/>
			<point x="153" y="1383"/>
			<point x="195" y="1383" type="curve" smooth="yes"/>
			<point x="236" y="1383"/>
			<point x="270" y="1349"/>
			<point x="270" y="1308" type="curve" smooth="yes"/>
			<point x="270" y="848" type="line"/>
			<point x="336" y="958"/>
			<point x="455" y="1026"/>
			<point x="562" y="1026" type="curve" smooth="yes"/>
			<point x="859" y="1026"/>
			<point x="972" y="834"/>
			<point x="972" y="534" type="curve" smooth="yes"/>
			<point x="972" y="531"/>
			<point x="972" y="528"/>
			<point x="972" y="525" type="curve"/>
			<point x="971" y="53" type="line"/>
			<point x="971" y="52" type="line" smooth="yes"/>
			<point x="971" y="11"/>
			<point x="937" y="-23"/>
			<point x="896" y="-23" type="curve" smooth="yes"/>
			<point x="855" y="-23"/>
			<point x="821" y="11"/>
			<point x="821" y="52" type="curve" smooth="yes"/>
			<point x="821" y="53" type="line"/>
			<point x="822" y="527" type="line" smooth="yes"/>
			<point x="822" y="745"/>
			<point x="770" y="877"/>
			<point x="574" y="877" type="curve" smooth="yes"/>
			<point x="388" y="877"/>
			<point x="272" y="741"/>
			<point x="272" y="617" type="curve" smooth="yes"/>
			<point x="272" y="51" type="line" smooth="yes"/>
			<point x="272" y="10"/>
			<point x="238" y="-24"/>
			<point x="197" y="-24" type="curve" smooth="yes"/>
			<point x="153" y="-24"/>
			<point x="120" y="12"/>
			<point x="120" y="51" type="curve" smooth="yes"/>
		</contour>
	</outline>
</glyph>
<glyph name="i" format="2">
	<unicode hex="0069"/>
	<advance width="436"/>
	<outline>
		<contour>
			<point x="208" y="1177" type="curve" smooth="yes"/>
			<point x="150" y="1177"/>
			<point x="100" y="1224"/>
			<point x="100" y="1283" type="curve" smooth="yes"/>
			<point x="100" y="1342"/>
			<point x="150" y="1389"/>
			<point x="208" y="1389" type="curve" smooth="yes"/>
			<point x="266" y="1389"/>
			<point x="316" y="1342"/>
			<point x="316" y="1283" type="curve" smooth="yes"/>
			<point x="316" y="1224"/>
			<point x="266" y="1177"/>
		</contour>
		<contour>
			<point x="135" y="960" type="line" smooth="yes"/>
			<point x="135" y="995"/>
			<point x="176" y="1025"/>
			<point x="204" y="1025" type="curve" smooth="yes"/>
			<point x="251" y="1025"/>
			<point x="285" y="994"/>
			<point x="285" y="949" type="curve" smooth="yes"/>
			<point x="287" y="52" type="line" smooth="yes"/>
			<point x="287" y="11"/>
			<point x="253" y="-23"/>
			<point x="212" y="-23" type="curve" smooth="yes"/>
			<point x="170" y="-23"/>
			<point x="137" y="11"/>
			<point x="137" y="53" type="curve" smooth="yes"/>
		</contour>
	</outline>
</glyph>
<glyph name="j" format="2">
  <advance width="440"/>
  <unicode hex="006A"/>
  <outline>
    <contour>
      <point x="232.0" y="1177.0" type="curve" smooth="yes"/>
      <point x="174.0" y="1177.0"/>
      <point x="124.0" y="1224.0"/>
      <point x="124.0" y="1283.0" type="curve" smooth="yes"/>
      <point x="124.0" y="1342.0"/>
      <point x="174.0" y="1389.0"/>
      <point x="232.0" y="1389.0" type="curve" smooth="yes"/>
      <point x="290.0" y="1389.0"/>
      <point x="340.0" y="1342.0"/>
      <point x="340.0" y="1283.0" type="curve" smooth="yes"/>
      <point x="340.0" y="1224.0"/>
      <point x="290.0" y="1177.0"/>
    </contour>
    <contour>
      <point x="225.0" y="1024.0" type="curve" smooth="yes"/>
      <point x="263.0" y="1024.0"/>
      <point x="304.0" y="1001.0"/>
      <point x="304.0" y="965.0" type="curve" smooth="yes"/>
      <point x="308.0" y="34.0" type="line" smooth="yes"/>
      <point x="310.0" y="-349.0"/>
      <point x="256.0" y="-456.0"/>
      <point x="-8.0" y="-456.0" type="curve" smooth="yes"/>
      <point x="-50.0" y="-456.0"/>
      <point x="-94.0" y="-448.0"/>
      <point x="-138.0" y="-430.0" type="curve" smooth="yes"/>
      <point x="-167.0" y="-418.0"/>
      <point x="-182.0" y="-394.0"/>
      <point x="-182.0" y="-357.0" type="curve" smooth="yes"/>
      <point x="-182.0" y="-329.0"/>
      <point x="-147.0" y="-295.0"/>
      <point x="-119.0" y="-295.0" type="curve" smooth="yes"/>
      <point x="-104.0" y="-295.0"/>
      <point x="-93.0" y="-297.0"/>
      <point x="-84.0" y="-301.0" type="curve" smooth="yes"/>
      <point x="-56.0" y="-313.0"/>
      <point x="-29.0" y="-318.0"/>
      <point x="-4.0" y="-318.0" type="curve" smooth="yes"/>
      <point x="175.0" y="-318.0"/>
      <point x="169.0" y="-199.0"/>
      <point x="168.0" y="52.0" type="curve" smooth="yes"/>
      <point x="164.0" y="968.0" type="line" smooth="yes"/>
      <point x="164.0" y="990.0"/>
      <point x="202.0" y="1024.0"/>
    </contour>
  </outline>
</glyph>
<glyph name="k" format="2">
	<unicode hex="006B"/>
	<advance width="897"/>
	<outline>
		<contour>
			<point x="120.0224609375" y="1312" type="line" smooth="yes"/>
			<point x="120.0224609375" y="1350"/>
			<point x="151.0224609375" y="1382"/>
			<point x="190.0224609375" y="1382" type="curve" smooth="yes"/>
			<point x="229.0224609375" y="1382"/>
			<point x="261.0224609375" y="1351"/>
			<point x="260.0224609375" y="1311" type="curve"/>
			<point x="260.0224609375" y="531" type="line"/>
			<point x="405.0224609375" y="699"/>
			<point x="565.0224609375" y="854"/>
			<point x="717.0224609375" y="1015" type="curve" smooth="yes"/>
			<point x="728.0224609375" y="1027"/>
			<point x="750.0224609375" y="1037"/>
			<point x="768.0224609375" y="1037" type="curve" smooth="yes"/>
			<point x="807.0224609375" y="1037"/>
			<point x="838.0224609375" y="1006"/>
			<point x="838.0224609375" y="967" type="curve" smooth="yes"/>
			<point x="838.0224609375" y="951"/>
			<point x="829.0224609375" y="929"/>
			<point x="818.0224609375" y="918" type="curve" smooth="yes"/>
			<point x="475.0224609375" y="562" type="line"/>
			<point x="832.0224609375" y="93" type="line" smooth="yes"/>
			<point x="840.0224609375" y="83"/>
			<point x="847.0224609375" y="63"/>
			<point x="847.0224609375" y="50" type="curve" smooth="yes"/>
			<point x="847.0224609375" y="11"/>
			<point x="816.0224609375" y="-20"/>
			<point x="777.0224609375" y="-20" type="curve" smooth="yes"/>
			<point x="757.0224609375" y="-20"/>
			<point x="733.0224609375" y="-8"/>
			<point x="721.0224609375" y="8" type="curve" smooth="yes"/>
			<point x="377.0224609375" y="473" type="line"/>
			<point x="260.0224609375" y="359" type="line"/>
			<point x="260.0224609375" y="53" type="line" smooth="yes"/>
			<point x="260.0224609375" y="14"/>
			<point x="229.0224609375" y="-17"/>
			<point x="190.0224609375" y="-17" type="curve" smooth="yes"/>
			<point x="151.0224609375" y="-17"/>
			<point x="119.0224609375" y="15"/>
			<point x="120.0224609375" y="54" type="curve" smooth="yes"/>
		</contour>
	</outline>
</glyph>
<glyph name="l" format="2">
	<unicode hex="006C"/>
	<advance width="390"/>
	<outline>
		<contour>
			<point x="190" y="1384" type="curve" smooth="yes"/>
			<point x="239" y="1384"/>
			<point x="270" y="1344"/>
			<point x="270" y="1308" type="curve" smooth="yes"/>
			<point x="270" y="38" type="line" smooth="yes"/>
			<point x="270" y="3"/>
			<point x="230" y="-26"/>
			<point x="201" y="-26" type="curve" smooth="yes"/>
			<point x="155" y="-26"/>
			<point x="120" y="5"/>
			<point x="120" y="49" type="curve" smooth="yes"/>
			<point x="120" y="1306" type="line" smooth="yes"/>
			<point x="120" y="1345"/>
			<point x="152" y="1384"/>
		</contour>
	</outline>
</glyph>
<glyph name="m" format="2">
	<unicode hex="006D"/>
	<advance width="1693"/>
	<outline>
		<contour>
			<point x="882" y="811" type="curve"/>
			<point x="947" y="917"/>
			<point x="1058" y="1028"/>
			<point x="1228" y="1028" type="curve" smooth="yes"/>
			<point x="1481" y="1028"/>
			<point x="1571" y="830"/>
			<point x="1572" y="564" type="curve" smooth="yes"/>
			<point x="1573" y="60" type="line" smooth="yes"/>
			<point x="1573" y="19"/>
			<point x="1539" y="-15"/>
			<point x="1498" y="-15" type="curve" smooth="yes"/>
			<point x="1456" y="-15"/>
			<point x="1423" y="19"/>
			<point x="1423" y="61" type="curve" smooth="yes"/>
			<point x="1422" y="564" type="line" smooth="yes"/>
			<point x="1422" y="728"/>
			<point x="1387" y="876"/>
			<point x="1226" y="876" type="curve" smooth="yes"/>
			<point x="1015" y="876"/>
			<point x="925" y="724"/>
			<point x="924" y="564" type="curve" smooth="yes"/>
			<point x="922" y="57" type="line"/>
			<point x="922" y="16"/>
			<point x="888" y="-18"/>
			<point x="847" y="-18" type="curve" smooth="yes"/>
			<point x="805" y="-18"/>
			<point x="772" y="16"/>
			<point x="772" y="58" type="curve" smooth="yes"/>
			<point x="771" y="564" type="line" smooth="yes"/>
			<point x="771" y="731"/>
			<point x="734" y="876"/>
			<point x="570" y="876" type="curve" smooth="yes"/>
			<point x="379" y="876"/>
			<point x="272" y="746"/>
			<point x="272" y="564" type="curve"/>
			<point x="271" y="55" type="line"/>
			<point x="271" y="14"/>
			<point x="237" y="-20"/>
			<point x="196" y="-20" type="curve" smooth="yes"/>
			<point x="154" y="-20"/>
			<point x="121" y="14"/>
			<point x="121" y="56" type="curve" smooth="yes"/>
			<point x="120" y="956" type="line" smooth="yes"/>
			<point x="122" y="997"/>
			<point x="153" y="1028"/>
			<point x="195" y="1028" type="curve" smooth="yes"/>
			<point x="237" y="1028"/>
			<point x="266" y="997"/>
			<point x="265" y="955" type="curve"/>
			<point x="270" y="837" type="line"/>
			<point x="320" y="922"/>
			<point x="438" y="1028"/>
			<point x="567" y="1028" type="curve" smooth="yes"/>
			<point x="728" y="1028"/>
			<point x="833" y="926"/>
		</contour>
	</outline>
</glyph>
<glyph name="n" format="2">
	<unicode hex="006E"/>
	<advance width="1087"/>
	<outline>
		<contour>
			<point x="195" y="1027" type="curve" smooth="yes"/>
			<point x="236" y="1027"/>
			<point x="265" y="993"/>
			<point x="265" y="952" type="curve" smooth="yes"/>
			<point x="270" y="833" type="line"/>
			<point x="341" y="920"/>
			<point x="447" y="1024"/>
			<point x="600" y="1024" type="curve" smooth="yes"/>
			<point x="865" y="1024"/>
			<point x="967" y="794"/>
			<point x="967" y="539" type="curve"/>
			<point x="966" y="54" type="line"/>
			<point x="966" y="13"/>
			<point x="932" y="-21"/>
			<point x="891" y="-21" type="curve" smooth="yes"/>
			<point x="849" y="-21"/>
			<point x="816" y="13"/>
			<point x="816" y="55" type="curve" smooth="yes"/>
			<point x="817" y="539" type="line" smooth="yes"/>
			<point x="817" y="716"/>
			<point x="773" y="874"/>
			<point x="600" y="874" type="curve" smooth="yes"/>
			<point x="383" y="874"/>
			<point x="271" y="753"/>
			<point x="271" y="542" type="curve" smooth="yes"/>
			<point x="271" y="52" type="line" smooth="yes"/>
			<point x="271" y="11"/>
			<point x="237" y="-23"/>
			<point x="196" y="-23" type="curve" smooth="yes"/>
			<point x="154" y="-23"/>
			<point x="121" y="11"/>
			<point x="121" y="53" type="curve" smooth="yes"/>
			<point x="120" y="951" type="line" smooth="yes"/>
			<point x="120" y="993"/>
			<point x="152" y="1027"/>
		</contour>
	</outline>
</glyph>
<glyph name="o" format="2">
  <advance width="1200"/>
  <unicode hex="006F"/>
  <outline>
    <contour>
      <point x="599.0" y="1026.0" type="curve" smooth="yes"/>
      <point x="879.0" y="1026.0"/>
      <point x="1100.0" y="781.0"/>
      <point x="1100.0" y="502.0" type="curve" smooth="yes"/>
      <point x="1100.0" y="224.0"/>
      <point x="883.0" y="-21.0"/>
      <point x="603.0" y="-23.0" type="curve" smooth="yes"/>
      <point x="319.0" y="-23.0"/>
      <point x="100.0" y="222.0"/>
      <point x="100.0" y="502.0" type="curve" smooth="yes"/>
      <point x="100.0" y="780.0"/>
      <point x="320.0" y="1026.0"/>
    </contour>
    <contour>
      <point x="599.0" y="876.0" type="curve" smooth="yes"/>
      <point x="403.0" y="876.0"/>
      <point x="250.0" y="701.0"/>
      <point x="250.0" y="504.0" type="curve" smooth="yes"/>
      <point x="250.0" y="304.0"/>
      <point x="401.0" y="127.0"/>
      <point x="602.0" y="127.0" type="curve" smooth="yes"/>
      <point x="799.0" y="129.0"/>
      <point x="950.0" y="304.0"/>
      <point x="950.0" y="502.0" type="curve" smooth="yes"/>
      <point x="950.0" y="700.0"/>
      <point x="797.0" y="876.0"/>
    </contour>
  </outline>
</glyph>
<glyph name="p" format="2">
	<unicode hex="0070"/>
	<advance width="1166"/>
	<outline>
		<contour>
			<point x="600" y="1023" type="curve" smooth="yes"/>
			<point x="872" y="1023"/>
			<point x="1066" y="780"/>
			<point x="1066" y="509" type="curve" smooth="yes"/>
			<point x="1066" y="237"/>
			<point x="867" y="-20"/>
			<point x="591" y="-20" type="curve" smooth="yes"/>
			<point x="460" y="-20"/>
			<point x="351" y="57"/>
			<point x="270" y="142" type="curve"/>
			<point x="270" y="-310" type="line" smooth="yes"/>
			<point x="270" y="-351"/>
			<point x="236" y="-385"/>
			<point x="195" y="-385" type="curve" smooth="yes"/>
			<point x="153" y="-385"/>
			<point x="120" y="-351"/>
			<point x="120" y="-310" type="curve" smooth="yes"/>
			<point x="120" y="949" type="line" smooth="yes"/>
			<point x="120" y="990"/>
			<point x="154" y="1024"/>
			<point x="195" y="1024" type="curve" smooth="yes"/>
			<point x="236" y="1024"/>
			<point x="265" y="990"/>
			<point x="265" y="949" type="curve"/>
			<point x="270" y="853" type="line"/>
			<point x="346" y="930"/>
			<point x="460" y="1023"/>
		</contour>
		<contour>
			<point x="597" y="873" type="curve" smooth="yes"/>
			<point x="394" y="873"/>
			<point x="271" y="684"/>
			<point x="271" y="495" type="curve" smooth="yes"/>
			<point x="271" y="308"/>
			<point x="392" y="130"/>
			<point x="593" y="130" type="curve" smooth="yes"/>
			<point x="787" y="130"/>
			<point x="914" y="320"/>
			<point x="914" y="512" type="curve" smooth="yes"/>
			<point x="914" y="702"/>
			<point x="787" y="873"/>
		</contour>
	</outline>
</glyph>
<glyph name="r" format="2">
	<unicode hex="0072"/>
	<advance width="719"/>
	<outline>
		<contour>
			<point x="709" y="929" type="curve" smooth="yes"/>
			<point x="709" y="893"/>
			<point x="680" y="856"/>
			<point x="652" y="856" type="curve" smooth="yes"/>
			<point x="610" y="856"/>
			<point x="579" y="885"/>
			<point x="527" y="885" type="curve" smooth="yes"/>
			<point x="331" y="885"/>
			<point x="270" y="742"/>
			<point x="270" y="597" type="curve" smooth="yes"/>
			<point x="270" y="52" type="line" smooth="yes"/>
			<point x="270" y="10"/>
			<point x="245" y="-24"/>
			<point x="195" y="-24" type="curve" smooth="yes"/>
			<point x="145" y="-24"/>
			<point x="120" y="10"/>
			<point x="120" y="52" type="curve" smooth="yes"/>
			<point x="120" y="939" type="line" smooth="yes"/>
			<point x="120" y="988"/>
			<point x="159" y="1022"/>
			<point x="197" y="1022" type="curve" smooth="yes"/>
			<point x="236" y="1022"/>
			<point x="263" y="989"/>
			<point x="263" y="939" type="curve"/>
			<point x="272" y="829" type="line"/>
			<point x="299" y="920"/>
			<point x="413" y="1026"/>
			<point x="522" y="1026" type="curve" smooth="yes"/>
			<point x="624" y="1026"/>
			<point x="709" y="1004"/>
		</contour>
	</outline>
</glyph>
<glyph name="s" format="2">
  <advance width="1167"/>
  <unicode hex="0073"/>
  <outline>
    <contour>
      <point x="594.0" y="1030.0" type="curve" smooth="yes"/>
      <point x="772.0" y="1030.0"/>
      <point x="931.0" y="947.0"/>
      <point x="1002.0" y="814.0" type="curve" smooth="yes"/>
      <point x="1007.0" y="805.0"/>
      <point x="1011.0" y="789.0"/>
      <point x="1011.0" y="779.0" type="curve" smooth="yes"/>
      <point x="1011.0" y="739.0"/>
      <point x="978.0" y="707.0"/>
      <point x="938.0" y="707.0" type="curve" smooth="yes"/>
      <point x="914.0" y="707.0"/>
      <point x="885.0" y="724.0"/>
      <point x="874.0" y="746.0" type="curve" smooth="yes"/>
      <point x="826.0" y="836.0"/>
      <point x="723.0" y="885.0"/>
      <point x="593.0" y="885.0" type="curve" smooth="yes"/>
      <point x="469.0" y="885.0"/>
      <point x="280.0" y="839.0"/>
      <point x="280.0" y="714.0" type="curve" smooth="yes"/>
      <point x="280.0" y="583.0"/>
      <point x="542.0" y="584.0"/>
      <point x="664.0" y="571.0" type="curve" smooth="yes"/>
      <point x="846.0" y="552.0"/>
      <point x="1047.0" y="508.0"/>
      <point x="1047.0" y="300.0" type="curve" smooth="yes"/>
      <point x="1047.0" y="75.0"/>
      <point x="819.0" y="-22.0"/>
      <point x="598.0" y="-22.0" type="curve" smooth="yes"/>
      <point x="390.0" y="-22.0"/>
      <point x="208.0" y="60.0"/>
      <point x="128.0" y="216.0" type="curve" smooth="yes"/>
      <point x="123.0" y="225.0"/>
      <point x="120.0" y="240.0"/>
      <point x="120.0" y="250.0" type="curve" smooth="yes"/>
      <point x="120.0" y="290.0"/>
      <point x="152.0" y="322.0"/>
      <point x="192.0" y="322.0" type="curve" smooth="yes"/>
      <point x="217.0" y="322.0"/>
      <point x="246.0" y="304.0"/>
      <point x="257.0" y="282.0" type="curve" smooth="yes"/>
      <point x="314.0" y="172.0"/>
      <point x="438.0" y="123.0"/>
      <point x="598.0" y="123.0" type="curve" smooth="yes"/>
      <point x="735.0" y="123.0"/>
      <point x="903.0" y="167.0"/>
      <point x="903.0" y="300.0" type="curve" smooth="yes"/>
      <point x="903.0" y="439.0"/>
      <point x="633.0" y="430.0"/>
      <point x="506.0" y="445.0" type="curve" smooth="yes"/>
      <point x="335.0" y="465.0"/>
      <point x="136.0" y="514.0"/>
      <point x="136.0" y="714.0" type="curve" smooth="yes"/>
      <point x="136.0" y="937.0"/>
      <point x="385.0" y="1030.0"/>
    </contour>
  </outline>
</glyph>
<glyph name="t" format="2">
	<unicode hex="0074"/>
	<advance width="767"/>
	<outline>
		<contour>
			<point x="275" y="1234" type="line" smooth="yes"/>
			<point x="275" y="1275"/>
			<point x="308" y="1309"/>
			<point x="350" y="1309" type="curve" smooth="yes"/>
			<point x="391" y="1309"/>
			<point x="425" y="1275"/>
			<point x="425" y="1234" type="curve"/>
			<point x="424" y="1010" type="line"/>
			<point x="619" y="1009" type="line" smooth="yes"/>
			<point x="658" y="1009"/>
			<point x="689" y="978"/>
			<point x="689" y="939" type="curve" smooth="yes"/>
			<point x="689" y="900"/>
			<point x="658" y="869"/>
			<point x="619" y="869" type="curve" smooth="yes"/>
			<point x="424" y="870" type="line"/>
			<point x="423" y="246" type="line"/>
			<point x="423" y="175"/>
			<point x="438" y="128"/>
			<point x="504" y="128" type="curve" smooth="yes"/>
			<point x="562" y="128"/>
			<point x="592" y="161"/>
			<point x="642" y="161" type="curve" smooth="yes"/>
			<point x="683" y="161"/>
			<point x="717" y="127"/>
			<point x="717" y="86" type="curve" smooth="yes"/>
			<point x="717" y="2"/>
			<point x="585" y="-23"/>
			<point x="510" y="-23" type="curve" smooth="yes"/>
			<point x="352" y="-23"/>
			<point x="273" y="88"/>
			<point x="273" y="248" type="curve" smooth="yes"/>
			<point x="274" y="869" type="line"/>
			<point x="120" y="869" type="line" smooth="yes"/>
			<point x="81" y="869"/>
			<point x="50" y="900"/>
			<point x="50" y="939" type="curve" smooth="yes"/>
			<point x="50" y="978"/>
			<point x="81" y="1009"/>
			<point x="120" y="1009" type="curve" smooth="yes"/>
			<point x="274" y="1009" type="line"/>
		</contour>
	</outline>
</glyph>
<glyph name="v" format="2">
  <advance width="1040"/>
  <unicode hex="0076"/>
  <outline>
    <contour>
      <point x="50.0" y="955.0" type="curve" smooth="yes"/>
      <point x="50.0" y="993.0"/>
      <point x="81.0" y="1025.0"/>
      <point x="120.0" y="1025.0" type="curve" smooth="yes"/>
      <point x="146.0" y="1025.0"/>
      <point x="174.0" y="1006.0"/>
      <point x="184.0" y="982.0" type="curve" smooth="yes"/>
      <point x="521.0" y="220.0" type="line"/>
      <point x="856.0" y="978.0" type="line" smooth="yes"/>
      <point x="866.0" y="1001.0"/>
      <point x="895.0" y="1021.0"/>
      <point x="921.0" y="1021.0" type="curve" smooth="yes"/>
      <point x="960.0" y="1021.0"/>
      <point x="991.0" y="990.0"/>
      <point x="991.0" y="951.0" type="curve" smooth="yes"/>
      <point x="991.0" y="943.0"/>
      <point x="988.0" y="930.0"/>
      <point x="984.0" y="922.0" type="curve" smooth="yes"/>
      <point x="584.0" y="19.0" type="line" smooth="yes"/>
      <point x="574.0" y="-4.0"/>
      <point x="545.0" y="-23.0"/>
      <point x="520.0" y="-23.0" type="curve" smooth="yes"/>
      <point x="495.0" y="-23.0"/>
      <point x="466.0" y="-4.0"/>
      <point x="456.0" y="19.0" type="curve" smooth="yes"/>
      <point x="56.0" y="925.0" type="line" smooth="yes"/>
      <point x="52.0" y="933.0"/>
      <point x="50.0" y="947.0"/>
    </contour>
  </outline>
</glyph>
<glyph name="w" format="2">
	<unicode hex="0077"/>
	<advance width="1530"/>
	<outline>
		<contour>
			<point x="1481" y="952" type="curve" smooth="yes"/>
			<point x="1481" y="945"/>
			<point x="1479" y="933"/>
			<point x="1476" y="926" type="curve"/>
			<point x="1156" y="29" type="line" smooth="yes"/>
			<point x="1146" y="2"/>
			<point x="1114" y="-21"/>
			<point x="1085" y="-21" type="curve" smooth="yes"/>
			<point x="1056" y="-21"/>
			<point x="1025" y="2"/>
			<point x="1015" y="29" type="curve" smooth="yes"/>
			<point x="766" y="727" type="line"/>
			<point x="516" y="22" type="line" smooth="yes"/>
			<point x="506" y="-6"/>
			<point x="474" y="-28"/>
			<point x="445" y="-28" type="curve" smooth="yes"/>
			<point x="416" y="-28"/>
			<point x="385" y="-5"/>
			<point x="375" y="22" type="curve" smooth="yes"/>
			<point x="55" y="919" type="line"/>
			<point x="52" y="926"/>
			<point x="50" y="938"/>
			<point x="50" y="945" type="curve" smooth="yes"/>
			<point x="50" y="986"/>
			<point x="84" y="1020"/>
			<point x="125" y="1020" type="curve" smooth="yes"/>
			<point x="155" y="1020"/>
			<point x="186" y="998"/>
			<point x="196" y="970" type="curve" smooth="yes"/>
			<point x="445" y="271" type="line"/>
			<point x="695" y="976" type="line" smooth="yes"/>
			<point x="705" y="1004"/>
			<point x="736" y="1025"/>
			<point x="765" y="1025" type="curve" smooth="yes"/>
			<point x="794" y="1025"/>
			<point x="826" y="1003"/>
			<point x="836" y="976" type="curve" smooth="yes"/>
			<point x="1085" y="277" type="line"/>
			<point x="1335" y="976" type="line" smooth="yes"/>
			<point x="1345" y="1004"/>
			<point x="1376" y="1027"/>
			<point x="1406" y="1027" type="curve" smooth="yes"/>
			<point x="1447" y="1027"/>
			<point x="1481" y="992"/>
		</contour>
	</outline>
</glyph>
<glyph name="x" format="2">
	<unicode hex="0078"/>
	<advance width="1083"/>
	<outline>
		<contour>
			<point x="953" y="1024" type="curve" smooth="yes"/>
			<point x="995" y="1024"/>
			<point x="1028" y="989"/>
			<point x="1028" y="948" type="curve" smooth="yes"/>
			<point x="1028" y="931"/>
			<point x="1018" y="908"/>
			<point x="1007" y="896" type="curve" smooth="yes"/>
			<point x="644" y="504" type="line"/>
			<point x="1012" y="105" type="line" smooth="yes"/>
			<point x="1023" y="93"/>
			<point x="1033" y="70"/>
			<point x="1033" y="53" type="curve" smooth="yes"/>
			<point x="1033" y="12"/>
			<point x="999" y="-22"/>
			<point x="958" y="-22" type="curve" smooth="yes"/>
			<point x="940" y="-22"/>
			<point x="914" y="-11"/>
			<point x="902" y="3" type="curve" smooth="yes"/>
			<point x="542" y="393" type="line"/>
			<point x="181" y="4" type="line" smooth="yes"/>
			<point x="169" y="-10"/>
			<point x="143" y="-21"/>
			<point x="125" y="-21" type="curve" smooth="yes"/>
			<point x="84" y="-21"/>
			<point x="50" y="13"/>
			<point x="50" y="54" type="curve" smooth="yes"/>
			<point x="50" y="71"/>
			<point x="60" y="94"/>
			<point x="71" y="106" type="curve" smooth="yes"/>
			<point x="439" y="504" type="line"/>
			<point x="76" y="897" type="line" smooth="yes"/>
			<point x="65" y="909"/>
			<point x="55" y="932"/>
			<point x="55" y="949" type="curve" smooth="yes"/>
			<point x="55" y="990"/>
			<point x="89" y="1024"/>
			<point x="130" y="1024" type="curve" smooth="yes"/>
			<point x="150" y="1024"/>
			<point x="174" y="1013"/>
			<point x="186" y="999" type="curve" smooth="yes"/>
			<point x="542" y="614" type="line"/>
			<point x="897" y="998" type="line" smooth="yes"/>
			<point x="909" y="1012"/>
			<point x="935" y="1024"/>
		</contour>
	</outline>
</glyph>
<glyph name="y" format="2">
  <advance width="1065"/>
  <unicode hex="0079"/>
  <outline>
    <contour>
      <point x="125.0" y="1026.0" type="curve" smooth="yes"/>
      <point x="153.0" y="1026.0"/>
      <point x="182.0" y="1006.0"/>
      <point x="193.0" y="982.0" type="curve" smooth="yes"/>
      <point x="558.0" y="193.0" type="line"/>
      <point x="870.0" y="977.0" type="line" smooth="yes"/>
      <point x="880.0" y="1003.0"/>
      <point x="911.0" y="1025.0"/>
      <point x="940.0" y="1025.0" type="curve" smooth="yes"/>
      <point x="992.0" y="1025.0"/>
      <point x="1029.0" y="973.0"/>
      <point x="1009.0" y="921.0" type="curve" smooth="yes"/>
      <point x="568.0" y="-185.0" type="line" smooth="yes"/>
      <point x="510.0" y="-329.0"/>
      <point x="395.0" y="-510.0"/>
      <point x="194.0" y="-510.0" type="curve" smooth="yes"/>
      <point x="153.0" y="-510.0"/>
      <point x="119.0" y="-476.0"/>
      <point x="119.0" y="-435.0" type="curve" smooth="yes"/>
      <point x="119.0" y="-396.0"/>
      <point x="151.0" y="-362.0"/>
      <point x="190.0" y="-360.0" type="curve" smooth="yes"/>
      <point x="373.0" y="-348.0"/>
      <point x="423.0" y="-145.0"/>
      <point x="481.0" y="3.0" type="curve"/>
      <point x="57.0" y="918.0" type="line" smooth="yes"/>
      <point x="53.0" y="927.0"/>
      <point x="50.0" y="942.0"/>
      <point x="50.0" y="951.0" type="curve" smooth="yes"/>
      <point x="50.0" y="992.0"/>
      <point x="84.0" y="1026.0"/>
    </contour>
  </outline>
</glyph>
<glyph name="z" format="2">
  <advance width="971"/>
  <unicode hex="007A"/>
  <outline>
    <contour>
      <point x="132.0" y="-3.0" type="line" smooth="yes"/>
      <point x="92.0" y="-3.0"/>
      <point x="57.0" y="30.0"/>
      <point x="57.0" y="70.0" type="curve" smooth="yes"/>
      <point x="57.0" y="90.0"/>
      <point x="64.0" y="108.0"/>
      <point x="77.0" y="122.0" type="curve"/>
      <point x="668.0" y="856.0" type="line"/>
      <point x="110.0" y="851.0" type="line" smooth="yes"/>
      <point x="85.0" y="851.0"/>
      <point x="50.0" y="892.0"/>
      <point x="50.0" y="918.0" type="curve" smooth="yes"/>
      <point x="50.0" y="960.0"/>
      <point x="76.0" y="1001.0"/>
      <point x="125.0" y="1001.0" type="curve" smooth="yes"/>
      <point x="848.0" y="1007.0" type="line"/>
      <point x="877.0" y="1003.0"/>
      <point x="914.0" y="977.0"/>
      <point x="914.0" y="938.0" type="curve" smooth="yes"/>
      <point x="914.0" y="914.0"/>
      <point x="907.0" y="896.0"/>
      <point x="894.0" y="882.0" type="curve"/>
      <point x="302.0" y="147.0" type="line"/>
      <point x="860.0" y="147.0" type="line" smooth="yes"/>
      <point x="889.0" y="147.0"/>
      <point x="921.0" y="105.0"/>
      <point x="921.0" y="72.0" type="curve" smooth="yes"/>
      <point x="921.0" y="39.0"/>
      <point x="889.0" y="-3.0"/>
      <point x="860.0" y="-3.0" type="curve" smooth="yes"/>
    </contour>
  </outline>
</glyph>
<glyph name="braceleft" format="2">
  <advance width="617"/>
  <unicode hex="007B"/>
  <outline>
    <contour>
      <point x="493.0" y="1231.0" type="curve" smooth="yes"/>
      <point x="480.0" y="1231.0"/>
      <point x="466.0" y="1236.0"/>
      <point x="454.0" y="1236.0" type="curve" smooth="yes"/>
      <point x="392.0" y="1236.0"/>
      <point x="380.0" y="1172.0"/>
      <point x="379.0" y="1105.0" type="curve" smooth="yes"/>
      <point x="373.0" y="642.0" type="line" smooth="yes"/>
      <point x="372.0" y="557.0"/>
      <point x="348.0" y="487.0"/>
      <point x="303.0" y="439.0" type="curve"/>
      <point x="358.0" y="384.0"/>
      <point x="380.0" y="308.0"/>
      <point x="379.0" y="209.0" type="curve" smooth="yes"/>
      <point x="377.0" y="-207.0" type="line"/>
      <point x="377.0" y="-285.0"/>
      <point x="390.0" y="-357.0"/>
      <point x="463.0" y="-357.0" type="curve" smooth="yes"/>
      <point x="492.0" y="-357.0" type="line" smooth="yes"/>
      <point x="533.0" y="-357.0"/>
      <point x="567.0" y="-391.0"/>
      <point x="567.0" y="-432.0" type="curve" smooth="yes"/>
      <point x="567.0" y="-489.0"/>
      <point x="521.0" y="-509.0"/>
      <point x="468.0" y="-509.0" type="curve" smooth="yes"/>
      <point x="302.0" y="-509.0"/>
      <point x="227.0" y="-374.0"/>
      <point x="227.0" y="-215.0" type="curve" smooth="yes"/>
      <point x="229.0" y="213.0" type="line" smooth="yes"/>
      <point x="229.0" y="301.0"/>
      <point x="208.0" y="356.0"/>
      <point x="125.0" y="356.0" type="curve" smooth="yes"/>
      <point x="84.0" y="356.0"/>
      <point x="50.0" y="390.0"/>
      <point x="50.0" y="431.0" type="curve" smooth="yes"/>
      <point x="50.0" y="471.0"/>
      <point x="81.0" y="501.0"/>
      <point x="120.0" y="506.0" type="curve"/>
      <point x="190.0" y="510.0"/>
      <point x="222.0" y="565.0"/>
      <point x="223.0" y="644.0" type="curve" smooth="yes"/>
      <point x="229.0" y="1107.0" type="line" smooth="yes"/>
      <point x="231.0" y="1257.0"/>
      <point x="305.0" y="1386.0"/>
      <point x="453.0" y="1386.0" type="curve" smooth="yes"/>
      <point x="512.0" y="1386.0"/>
      <point x="568.0" y="1362.0"/>
      <point x="568.0" y="1306.0" type="curve" smooth="yes"/>
      <point x="568.0" y="1265.0"/>
      <point x="534.0" y="1231.0"/>
    </contour>
  </outline>
</glyph>
<glyph name="bar" format="2">
	<unicode hex="007C"/>
	<advance width="350"/>
	<outline>
		<contour>
			<point x="250" y="-295" type="line" smooth="yes"/>
			<point x="250" y="-330"/>
			<point x="218" y="-370"/>
			<point x="186" y="-370" type="curve" smooth="yes"/>
			<point x="129" y="-370"/>
			<point x="100" y="-345"/>
			<point x="100" y="-294" type="curve" smooth="yes"/>
			<point x="100" y="1211" type="line" smooth="yes"/>
			<point x="100" y="1253"/>
			<point x="133" y="1286"/>
			<point x="175" y="1286" type="curve" smooth="yes"/>
			<point x="217" y="1286"/>
			<point x="250" y="1252"/>
			<point x="250" y="1210" type="curve" smooth="yes"/>
		</contour>
	</outline>
</glyph>
<glyph name="asciitilde" format="2">
  <advance width="762"/>
  <unicode hex="007E"/>
  <outline>
    <contour>
      <point x="623.0" y="1292.0" type="curve" smooth="yes"/>
      <point x="623.0" y="1301.0"/>
      <point x="620.0" y="1308.0"/>
      <point x="620.0" y="1317.0" type="curve" smooth="yes"/>
      <point x="620.0" y="1356.0"/>
      <point x="651.0" y="1387.0"/>
      <point x="690.0" y="1387.0" type="curve" smooth="yes"/>
      <point x="740.0" y="1387.0"/>
      <point x="763.0" y="1343.0"/>
      <point x="763.0" y="1289.0" type="curve" smooth="yes"/>
      <point x="763.0" y="1171.0"/>
      <point x="663.0" y="1073.0"/>
      <point x="546.0" y="1073.0" type="curve" smooth="yes"/>
      <point x="416.0" y="1073.0"/>
      <point x="357.0" y="1169.0"/>
      <point x="280.0" y="1219.0" type="curve" smooth="yes"/>
      <point x="259.0" y="1233.0"/>
      <point x="242.0" y="1241.0"/>
      <point x="220.0" y="1241.0" type="curve" smooth="yes"/>
      <point x="175.0" y="1241.0"/>
      <point x="140.0" y="1205.0"/>
      <point x="140.0" y="1161.0" type="curve" smooth="yes"/>
      <point x="140.0" y="1156.0"/>
      <point x="141.0" y="1151.0"/>
      <point x="141.0" y="1146.0" type="curve" smooth="yes"/>
      <point x="141.0" y="1107.0"/>
      <point x="110.0" y="1076.0"/>
      <point x="71.0" y="1076.0" type="curve" smooth="yes"/>
      <point x="25.0" y="1076.0"/>
      <point x="0.0" y="1114.0"/>
      <point x="0.0" y="1163.0" type="curve" smooth="yes"/>
      <point x="0.0" y="1281.0"/>
      <point x="99.0" y="1381.0"/>
      <point x="218.0" y="1381.0" type="curve" smooth="yes"/>
      <point x="349.0" y="1381.0"/>
      <point x="409.0" y="1284.0"/>
      <point x="487.0" y="1234.0" type="curve" smooth="yes"/>
      <point x="507.0" y="1221.0"/>
      <point x="523.0" y="1213.0"/>
      <point x="544.0" y="1213.0" type="curve" smooth="yes"/>
      <point x="588.0" y="1213.0"/>
      <point x="623.0" y="1248.0"/>
    </contour>
  </outline>
</glyph>
<glyph name="cent" format="2">
	<unicode hex="00A2"/>
	<advance width="1088"/>
	<outline>
		<contour>
			<point x="644.8372591006" y="-150.5310492505" type="line" smooth="yes"/>
			<point x="644.8372591006" y="-185.5310492505"/>
			<point x="612.8372591006" y="-225.5310492505"/>
			<point x="580.8372591006" y="-225.5310492505" type="curve" smooth="yes"/>
			<point x="523.8372591006" y="-225.5310492505"/>
			<point x="494.8372591006" y="-200.5310492505"/>
			<point x="494.8372591006" y="-149.5310492505" type="curve" smooth="yes"/>
			<point x="494.8372591006" y="364.7002141328" type="line"/>
			<point x="644.8372591006" y="364.7002141328" type="line"/>
		</contour>
		<contour>
			<point x="494.8372591006" y="1126.4689507495" type="line" smooth="yes"/>
			<point x="494.8372591006" y="1168.4689507495"/>
			<point x="527.8372591006" y="1201.4689507495"/>
			<point x="569.8372591006" y="1201.4689507495" type="curve" smooth="yes"/>
			<point x="611.8372591006" y="1201.4689507495"/>
			<point x="644.8372591006" y="1167.4689507495"/>
			<point x="644.8372591006" y="1125.4689507495" type="curve" smooth="yes"/>
			<point x="644.8372591006" y="641.6382850893" type="line"/>
			<point x="494.8372591006" y="642.7174217799" type="line"/>
		</contour>
		<component base="c" xOffset="-20" yOffset="-1.7815845824"/>
	</outline>
</glyph>
<glyph name="pound" format="2">
	<unicode hex="00A3"/>
	<advance width="1095.486"/>
	<outline>
		<contour>
			<point x="659.866" y="1261.4818608137" type="qcurve" smooth="yes"/>
			<point x="679.546" y="1261.4758608137"/>
			<point x="699.086" y="1259.5418608137" type="qcurve" smooth="yes"/>
			<point x="751.156" y="1254.3878608137"/>
			<point x="849.356" y="1217.6588608137"/>
			<point x="934.996" y="1157.1928608137"/>
			<point x="968.576" y="1117.0688608137" type="qcurve" smooth="yes"/>
			<point x="986.066" y="1096.1788608137"/>
			<point x="986.066" y="1068.9358608137" type="qcurve" smooth="yes"/>
			<point x="986.066" y="1054.4318608137"/>
			<point x="970.316" y="1020.7268608137"/>
			<point x="959.196" y="1011.4188608137" type="qcurve" smooth="yes"/>
			<point x="938.306" y="993.9358608137"/>
			<point x="911.066" y="993.9358608137" type="qcurve" smooth="yes"/>
			<point x="896.556" y="993.9358608137"/>
			<point x="862.856" y="1009.6788608137"/>
			<point x="853.546" y="1020.8018608137" type="qcurve" smooth="yes"/>
			<point x="822.486" y="1057.9128608137"/>
			<point x="732.466" y="1105.5038608137"/>
			<point x="684.316" y="1110.2708608137" type="qcurve" smooth="yes"/>
			<point x="652.426" y="1113.4268608137"/>
			<point x="586.756" y="1102.5548608137"/>
			<point x="525.806" y="1075.7838608137"/>
			<point x="500.826" y="1055.7178608137" type="qcurve" smooth="yes"/>
			<point x="463.906" y="1026.0648608137"/>
			<point x="449.436" y="990.3898608137" type="qcurve" smooth="yes"/>
			<point x="437.3546952596" y="960.613857005"/>
			<point x="437.536" y="898.7098608137" type="qcurve" smooth="yes"/>
			<point x="438.006" y="738.2348608137" type="line"/>
			<point x="586.146" y="740.1748608137" type="line" smooth="yes"/>
			<point x="586.516103376" y="740.179707584"/>
			<point x="586.716" y="740.1848608137" type="qcurve" smooth="yes"/>
			<point x="617.776" y="740.1848608137"/>
			<point x="661.726" y="696.8148608137"/>
			<point x="662.126" y="666.1648608137" type="qcurve" smooth="yes"/>
			<point x="662.136" y="665.6948608137"/>
			<point x="662.136" y="665.1848608137" type="qcurve" smooth="yes"/>
			<point x="662.136" y="634.5348608137"/>
			<point x="618.7559568471" y="590.5981528227"/>
			<point x="588.116" y="590.1948608137" type="qcurve" smooth="yes"/>
			<point x="438.446" y="588.2248608137" type="line"/>
			<point x="439.316" y="287.6648608137" type="line" smooth="yes"/>
			<point x="439.4800947403" y="230.9748434107"/>
			<point x="430.356" y="194.9748608137" type="qcurve" smooth="yes"/>
			<point x="424.866" y="173.3448608137"/>
			<point x="415.196" y="152.1748608137" type="qcurve"/>
			<point x="940.166" y="154.3548608137" type="line" smooth="yes"/>
			<point x="971.4057306493" y="154.4845874892"/>
			<point x="1015.356" y="110.5848608137"/>
			<point x="1015.486" y="79.6648608137" type="qcurve" smooth="yes"/>
			<point x="1015.486" y="48.4348608137"/>
			<point x="971.7160069778" y="4.4831904171"/>
			<point x="940.796" y="4.3548608137" type="qcurve" smooth="yes"/>
			<point x="191.466" y="1.2448608137" type="line" smooth="yes"/>
			<point x="160.3262682014" y="1.1156192701"/>
			<point x="116.366" y="45.2048608137"/>
			<point x="116.366" y="76.2548608137" type="qcurve" smooth="yes"/>
			<point x="116.366" y="105.1548608137"/>
			<point x="157.176" y="148.9948608137"/>
			<point x="186.006" y="151.0648608137" type="qcurve" smooth="yes"/>
			<point x="208.396" y="152.6048608137"/>
			<point x="252.106" y="175.7448608137"/>
			<point x="265.966" y="193.3848608137" type="qcurve" smooth="yes"/>
			<point x="279.596" y="210.7248608137"/>
			<point x="284.956" y="231.8548608137" type="qcurve" smooth="yes"/>
			<point x="289.4370336666" y="249.4948638421"/>
			<point x="289.326" y="287.2248608137" type="qcurve" smooth="yes"/>
			<point x="288.446" y="586.2548608137" type="line"/>
			<point x="155.986" y="584.5148608137" type="line" smooth="yes"/>
			<point x="155.5059372617" y="584.5085546899"/>
			<point x="154.996" y="584.5048608137" type="qcurve" smooth="yes"/>
			<point x="124.356" y="584.5048608137"/>
			<point x="80.409" y="627.8848608137"/>
			<point x="80.007" y="658.5248608137" type="qcurve" smooth="yes"/>
			<point x="80" y="658.9948608137"/>
			<point x="80" y="659.5048608137" type="qcurve" smooth="yes"/>
			<point x="80" y="690.1548608137"/>
			<point x="123.376032285" y="734.1023953821"/>
			<point x="154.016" y="734.5048608137" type="qcurve" smooth="yes"/>
			<point x="288.006" y="736.2648608137" type="line"/>
			<point x="287.536" y="898.2728608137" type="line" smooth="yes"/>
			<point x="287.2708634222" y="989.6648750545"/>
			<point x="310.426" y="1046.7688608137" type="qcurve" smooth="yes"/>
			<point x="339.566" y="1118.5918608137"/>
			<point x="406.896" y="1172.6688608137" type="qcurve" smooth="yes"/>
			<point x="517.526" y="1261.5208608137"/>
		</contour>
	</outline>
</glyph>
<glyph name="currency" format="2">
	<unicode hex="00A4"/>
	<advance width="1407.5882563456"/>
	<outline>
		<contour>
			<point x="669.9652630075" y="1026" type="curve" smooth="yes"/>
			<point x="949.9652630075" y="1026"/>
			<point x="1170.9652630075" y="781"/>
			<point x="1170.9652630075" y="502" type="curve" smooth="yes"/>
			<point x="1170.9652630075" y="224"/>
			<point x="953.9652630075" y="-21"/>
			<point x="673.9652630075" y="-23" type="curve" smooth="yes"/>
			<point x="389.9652630075" y="-23"/>
			<point x="170.9652630075" y="222"/>
			<point x="170.9652630075" y="502" type="curve" smooth="yes"/>
			<point x="170.9652630075" y="780"/>
			<point x="390.9652630075" y="1026"/>
		</contour>
		<contour>
			<point x="669.9652630075" y="876" type="curve" smooth="yes"/>
			<point x="517.9582470075" y="876"/>
			<point x="391.8145097264" y="770.7424703297"/>
			<point x="342.845629288" y="631.5971514701" type="curve" smooth="yes"/>
			<point x="328.6733415192" y="591.3265248414"/>
			<point x="320.9652630075" y="548.217438"/>
			<point x="320.9652630075" y="504" type="curve" smooth="yes"/>
			<point x="320.9652630075" y="304"/>
			<point x="471.9652630075" y="127"/>
			<point x="672.9652630075" y="127" type="curve" smooth="yes"/>
			<point x="869.9652630075" y="129"/>
			<point x="1020.9652630075" y="304"/>
			<point x="1020.9652630075" y="502" type="curve" smooth="yes"/>
			<point x="1020.9652630075" y="700"/>
			<point x="867.9652630075" y="876"/>
		</contour>
		<contour>
			<point x="258.6015606378" y="-13.1333670529" type="line" smooth="yes"/>
			<point x="233.8528232963" y="-37.8821043944"/>
			<point x="182.9411350508" y="-43.5389586439"/>
			<point x="160.3137180529" y="-20.9115416459" type="curve" smooth="yes"/>
			<point x="120.0086315252" y="19.3935448817"/>
			<point x="117.1802044005" y="57.5773110658"/>
			<point x="153.242650241" y="93.6397569063" type="curve" smooth="yes"/>
			<point x="323.1654599117" y="263.562566577" type="line"/>
			<point x="418.8088048814" y="147.0738771908" type="line"/>
		</contour>
		<contour>
			<point x="887.2708312844" y="827.4451827211" type="line"/>
			<point x="1179.5987725225" y="1119.7731239592" type="line" smooth="yes"/>
			<point x="1209.2972573325" y="1149.4716087691"/>
			<point x="1255.9663048907" y="1149.471608769"/>
			<point x="1285.6647897005" y="1119.7731239592" type="curve" smooth="yes"/>
			<point x="1315.3632745103" y="1090.0746391493"/>
			<point x="1314.6561677287" y="1042.6984848094"/>
			<point x="1284.9576829193" y="1013" type="curve" smooth="yes"/>
			<point x="974.3566138095" y="702.3989308902" type="line"/>
		</contour>
		<contour>
			<point x="122.0091166755" y="1007.9485662438" type="line" smooth="yes"/>
			<point x="97.2603793339" y="1032.6973035854"/>
			<point x="91.6035250845" y="1083.6089918307"/>
			<point x="114.2309420825" y="1106.2364088287" type="curve" smooth="yes"/>
			<point x="154.5360286101" y="1146.5414953563"/>
			<point x="192.7197947941" y="1149.3699224812"/>
			<point x="228.7822406347" y="1113.3074766406" type="curve" smooth="yes"/>
			<point x="497.5732649531" y="844.5164523221" type="line"/>
			<point x="390.9576829193" y="739" type="line"/>
		</contour>
		<contour>
			<point x="1038.8675986701" y="298.9953659159" type="line"/>
			<point x="1244.9356292398" y="92.9273353462" type="line" smooth="yes"/>
			<point x="1274.6341140496" y="63.2288505364"/>
			<point x="1274.6341140496" y="16.5598029781"/>
			<point x="1244.9356292398" y="-13.1386818317" type="curve" smooth="yes"/>
			<point x="1215.2371444299" y="-42.8371666416"/>
			<point x="1167.8609900904" y="-42.1300598604"/>
			<point x="1138.1625052806" y="-12.4315750506" type="curve" smooth="yes"/>
			<point x="950.5551208481" y="175.1758093819" type="line"/>
		</contour>
	</outline>
</glyph>
<glyph name="yen" format="2">
	<unicode hex="00A5"/>
	<advance width="1189"/>
	<outline>
		<contour>
			<point x="284.8244111349" y="388.6167023555" type="curve" smooth="yes"/>
			<point x="927.8244111349" y="388.6167023555" type="line" smooth="yes"/>
			<point x="966.8244111349" y="388.6167023555"/>
			<point x="997.8244111349" y="357.6167023555"/>
			<point x="997.8244111349" y="318.6167023555" type="curve" smooth="yes"/>
			<point x="997.8244111349" y="279.6167023555"/>
			<point x="966.8244111349" y="248.6167023555"/>
			<point x="927.8244111349" y="248.6167023555" type="curve" smooth="yes"/>
			<point x="284.8244111349" y="248.6167023555" type="line" smooth="yes"/>
			<point x="245.8244111349" y="248.6167023555"/>
			<point x="214.8244111349" y="279.6167023555"/>
			<point x="214.8244111349" y="318.6167023555" type="curve" smooth="yes"/>
			<point x="214.8244111349" y="357.6167023555"/>
			<point x="245.8244111349" y="388.6167023555"/>
		</contour>
		<component base="Y" xOffset="30"/>
		<component base="hyphen" xOffset="39.4453961456" yOffset="113.9807280514"/>
	</outline>
</glyph>
<glyph name="brokenbar" format="2">
	<unicode hex="00A6"/>
	<advance width="352.0884446769"/>
	<outline>
		<contour>
			<point x="252.0881731439" y="-497" type="line" smooth="yes"/>
			<point x="252.1961409278" y="-531.9998334695"/>
			<point x="220.0881731439" y="-572"/>
			<point x="188.0881731439" y="-572" type="curve" smooth="yes"/>
			<point x="131.0881731439" y="-572"/>
			<point x="102.245497629" y="-546.9997573417"/>
			<point x="102.0881731439" y="-496" type="curve" smooth="yes"/>
			<point x="100.0003787113" y="180.7987152034" type="line" smooth="yes"/>
			<point x="99.8708173706" y="222.7985153665"/>
			<point x="133.0003787113" y="255.7987152034"/>
			<point x="175.0003787113" y="255.7987152034" type="curve" smooth="yes"/>
			<point x="217.0003787113" y="255.7987152034"/>
			<point x="250.0003787113" y="221.7987152034"/>
			<point x="250.0003787113" y="179.7987152034" type="curve" smooth="yes"/>
		</contour>
		<contour>
			<point x="252.0881731439" y="633.2012847966" type="line" smooth="yes"/>
			<point x="252.1961409278" y="598.2014513382"/>
			<point x="220.0881731439" y="558.2012847966"/>
			<point x="188.0881731439" y="558.2012847966" type="curve" smooth="yes"/>
			<point x="131.0881731439" y="558.2012847966"/>
			<point x="102.245497629" y="583.2015274663"/>
			<point x="102.0881731439" y="634.2012847966" type="curve" smooth="yes"/>
			<point x="100.0003787113" y="1311" type="line" smooth="yes"/>
			<point x="99.8708173706" y="1352.9998001631"/>
			<point x="133.0003787113" y="1386"/>
			<point x="175.0003787113" y="1386" type="curve" smooth="yes"/>
			<point x="217.0003787113" y="1386"/>
			<point x="250.0003787113" y="1352"/>
			<point x="250.0003787113" y="1310" type="curve" smooth="yes"/>
		</contour>
	</outline>
</glyph>
<glyph name="section" format="2">
	<unicode hex="00A7"/>
	<advance width="1246.6659528908"/>
	<outline>
		<contour>
			<point x="794.9571734475" y="127.0736616702"/>
			<point x="524.2483940043" y="202.3473233405"/>
			<point x="592.9571734475" y="200.6736616702" type="curve" smooth="yes"/>
			<point x="839.4218704001" y="194.6700836748"/>
			<point x="967.6659528908" y="314"/>
			<point x="967.6659528908" y="482.2" type="curve" smooth="yes"/>
			<point x="967.6659528908" y="633.4"/>
			<point x="829.3863119398" y="681.7844099907"/>
			<point x="631.6659528908" y="690.2" type="curve" smooth="yes"/>
			<point x="535.9571734475" y="694.2736616702" type="line" smooth="yes"/>
			<point x="261.3455636572" y="705.9619811276"/>
			<point x="66.6659528908" y="784.6"/>
			<point x="66.6659528908" y="1001.4" type="curve" smooth="yes"/>
			<point x="66.6659528908" y="1222.2"/>
			<point x="304.6659528908" y="1383"/>
			<point x="561.6659528908" y="1383" type="curve" smooth="yes"/>
			<point x="831.6659528908" y="1383"/>
			<point x="1023.6659528908" y="1256.6"/>
			<point x="1103.6659528908" y="1099" type="curve" smooth="yes"/>
			<point x="1107.6659528908" y="1091.8"/>
			<point x="1109.6659528908" y="1082.2"/>
			<point x="1109.6659528908" y="1071" type="curve" smooth="yes"/>
			<point x="1109.6659528908" y="1047"/>
			<point x="1075.6659528908" y="1021.4"/>
			<point x="1044.6659528908" y="1021.4" type="curve" smooth="yes"/>
			<point x="1011.6659528908" y="1021.4"/>
			<point x="983.6659528908" y="1038.2"/>
			<point x="974.6659528908" y="1056.6" type="curve" smooth="yes"/>
			<point x="914.6659528908" y="1175"/>
			<point x="769.6659528908" y="1271.8"/>
			<point x="567.6659528908" y="1271.8" type="curve" smooth="yes"/>
			<point x="384.6659528908" y="1271.8"/>
			<point x="204.6659528908" y="1155.8"/>
			<point x="204.6659528908" y="1001.4" type="curve" smooth="yes"/>
			<point x="204.6659528908" y="850.2"/>
			<point x="342.6659528908" y="802.2"/>
			<point x="539.6659528908" y="802.2" type="curve" smooth="yes"/>
			<point x="631.6659528908" y="802.2" type="line" smooth="yes"/>
			<point x="915.6659528908" y="802.2"/>
			<point x="1108.6659528908" y="692.6"/>
			<point x="1108.6659528908" y="478" type="curve" smooth="yes"/>
			<point x="1108.6659528908" y="250.2"/>
			<point x="931.1482073636" y="154.3118684534"/>
			<point x="802.9571734475" y="128.6736616702" type="curve" smooth="yes"/>
		</contour>
		<contour>
			<point x="63" y="-130.4578158458" type="curve" smooth="yes"/>
			<point x="63" y="-109.6578158458"/>
			<point x="99" y="-82.4578158458"/>
			<point x="126" y="-82.4578158458" type="curve" smooth="yes"/>
			<point x="169" y="-82.4578158458"/>
			<point x="195" y="-101.6578158458"/>
			<point x="206" y="-140.8578158458" type="curve" smooth="yes"/>
			<point x="240" y="-271.2578158458"/>
			<point x="409" y="-381.6578158458"/>
			<point x="595" y="-381.6578158458" type="curve" smooth="yes"/>
			<point x="808" y="-381.6578158458"/>
			<point x="968" y="-265.6578158458"/>
			<point x="968" y="-98.4578158458" type="curve" smooth="yes"/>
			<point x="968" y="52.7421841542"/>
			<point x="830" y="109.5421841542"/>
			<point x="632" y="109.5421841542" type="curve" smooth="yes"/>
			<point x="540" y="109.5421841542" type="line" smooth="yes"/>
			<point x="265" y="109.5421841542"/>
			<point x="67" y="203.9421841542"/>
			<point x="67" y="420.7421841542" type="curve" smooth="yes"/>
			<point x="67" y="641.5421841542"/>
			<point x="303.9571734475" y="801.4736616702"/>
			<point x="560.9571734475" y="801.4736616702" type="curve" smooth="yes"/>
			<point x="843.4637135756" y="801.4736616702"/>
			<point x="783.9674386992" y="731.0038579586"/>
			<point x="785.9571734475" y="717.4736616702" type="curve" smooth="yes"/>
			<point x="787.9571734475" y="703.8736616702"/>
			<point x="798.5439952295" y="693.4736616702"/>
			<point x="535.9571734475" y="693.4736616702" type="curve" smooth="yes"/>
			<point x="352.9571734475" y="693.4736616702"/>
			<point x="205" y="575.1421841542"/>
			<point x="205" y="420.7421841542" type="curve" smooth="yes"/>
			<point x="205" y="269.5421841542"/>
			<point x="343" y="221.5421841542"/>
			<point x="540" y="221.5421841542" type="curve" smooth="yes"/>
			<point x="632" y="221.5421841542" type="line" smooth="yes"/>
			<point x="916" y="221.5421841542"/>
			<point x="1109" y="111.9421841542"/>
			<point x="1109" y="-101.6578158458" type="curve" smooth="yes"/>
			<point x="1109" y="-330.4578158458"/>
			<point x="882" y="-493.6578158458"/>
			<point x="598" y="-493.6578158458" type="curve" smooth="yes"/>
			<point x="325" y="-493.6578158458"/>
			<point x="116" y="-335.2578158458"/>
			<point x="65" y="-152.0578158458" type="curve" smooth="yes"/>
			<point x="64" y="-148.0578158458"/>
			<point x="63" y="-140.8578158458"/>
		</contour>
	</outline>
</glyph>
<glyph name="dieresis" format="2">
  <advance width="711"/>
  <unicode hex="00A8"/>
  <outline>
    <contour>
      <point x="516.0" y="1110.0" type="curve" smooth="yes"/>
      <point x="438.0" y="1110.0"/>
      <point x="372.0" y="1173.0"/>
      <point x="372.0" y="1250.0" type="curve" smooth="yes"/>
      <point x="372.0" y="1327.0"/>
      <point x="438.0" y="1389.0"/>
      <point x="516.0" y="1389.0" type="curve" smooth="yes"/>
      <point x="594.0" y="1389.0"/>
      <point x="661.0" y="1327.0"/>
      <point x="661.0" y="1250.0" type="curve" smooth="yes"/>
      <point x="661.0" y="1173.0"/>
      <point x="594.0" y="1110.0"/>
    </contour>
    <contour>
      <point x="178.0" y="1110.0" type="curve" smooth="yes"/>
      <point x="100.0" y="1110.0"/>
      <point x="34.0" y="1173.0"/>
      <point x="34.0" y="1250.0" type="curve" smooth="yes"/>
      <point x="34.0" y="1327.0"/>
      <point x="100.0" y="1389.0"/>
      <point x="178.0" y="1389.0" type="curve" smooth="yes"/>
      <point x="256.0" y="1389.0"/>
      <point x="323.0" y="1327.0"/>
      <point x="323.0" y="1250.0" type="curve" smooth="yes"/>
      <point x="323.0" y="1173.0"/>
      <point x="256.0" y="1110.0"/>
    </contour>
  </outline>
</glyph>
<glyph name="guillemotleft" format="2">
  <advance width="930"/>
  <unicode hex="00AB"/>
  <outline>
    <contour>
      <point x="515.0" y="920.0" type="curve"/>
      <point x="252.0" y="667.0" type="line"/>
      <point x="515.0" y="414.0" type="line"/>
      <point x="529.0" y="398.0"/>
      <point x="536.0" y="385.0"/>
      <point x="536.0" y="369.0" type="curve" smooth="yes"/>
      <point x="536.0" y="335.0"/>
      <point x="513.0" y="306.0"/>
      <point x="472.0" y="306.0" type="curve" smooth="yes"/>
      <point x="452.0" y="306.0"/>
      <point x="434.0" y="313.0"/>
      <point x="421.0" y="329.0" type="curve"/>
      <point x="427.0" y="326.0" type="line"/>
      <point x="127.0" y="615.0" type="line"/>
      <point x="127.0" y="613.0" type="line"/>
      <point x="87.0" y="649.0"/>
      <point x="94.0" y="691.0"/>
      <point x="130.0" y="723.0" type="curve"/>
      <point x="130.0" y="721.0" type="line"/>
      <point x="428.0" y="1010.0" type="line"/>
      <point x="427.0" y="1010.0" type="line"/>
      <point x="438.0" y="1021.0"/>
      <point x="452.0" y="1028.0"/>
      <point x="472.0" y="1028.0" type="curve" smooth="yes"/>
      <point x="506.0" y="1028.0"/>
      <point x="536.0" y="999.0"/>
      <point x="536.0" y="965.0" type="curve" smooth="yes"/>
      <point x="536.0" y="949.0"/>
      <point x="529.0" y="936.0"/>
    </contour>
    <contour>
      <point x="549.0" y="667.0" type="line"/>
      <point x="809.0" y="414.0" type="line" smooth="yes"/>
      <point x="825.0" y="398.0"/>
      <point x="831.0" y="385.0"/>
      <point x="831.0" y="369.0" type="curve" smooth="yes"/>
      <point x="831.0" y="335.0"/>
      <point x="802.0" y="306.0"/>
      <point x="766.0" y="306.0" type="curve" smooth="yes"/>
      <point x="746.0" y="306.0"/>
      <point x="730.0" y="313.0"/>
      <point x="716.0" y="329.0" type="curve"/>
      <point x="721.0" y="326.0" type="line"/>
      <point x="421.0" y="615.0" type="line"/>
      <point x="421.0" y="613.0" type="line"/>
      <point x="381.0" y="649.0"/>
      <point x="385.0" y="687.0"/>
      <point x="425.0" y="723.0" type="curve"/>
      <point x="425.0" y="721.0" type="line"/>
      <point x="723.0" y="1010.0" type="line"/>
      <point x="721.0" y="1010.0" type="line"/>
      <point x="734.0" y="1021.0"/>
      <point x="748.0" y="1028.0"/>
      <point x="766.0" y="1028.0" type="curve" smooth="yes"/>
      <point x="802.0" y="1028.0"/>
      <point x="831.0" y="999.0"/>
      <point x="831.0" y="965.0" type="curve" smooth="yes"/>
      <point x="831.0" y="949.0"/>
      <point x="825.0" y="936.0"/>
      <point x="809.0" y="920.0" type="curve" smooth="yes"/>
    </contour>
  </outline>
</glyph>
<glyph name="logicalnot" format="2">
	<unicode hex="00AC"/>
	<advance width="1137.8608137045"/>
	<outline>
		<contour>
			<point x="1057.8608137045" y="529.9528907923" type="curve" smooth="yes"/>
			<point x="1057.8608137045" y="41.9528907923" type="line" smooth="yes"/>
			<point x="1057.8608137045" y="2.9528907923"/>
			<point x="1026.8608137045" y="-28.0471092077"/>
			<point x="987.8608137045" y="-28.0471092077" type="curve" smooth="yes"/>
			<point x="948.8608137045" y="-28.0471092077"/>
			<point x="917.8608137045" y="2.9528907923"/>
			<point x="917.8608137045" y="41.9528907923" type="curve" smooth="yes"/>
			<point x="917.8608137045" y="529.9528907923" type="line" smooth="yes"/>
			<point x="917.8608137045" y="568.9528907923"/>
			<point x="949" y="603"/>
			<point x="988" y="603" type="curve" smooth="yes"/>
			<point x="1027" y="603"/>
			<point x="1057.8608137045" y="568.9528907923"/>
		</contour>
		<contour>
			<point x="150" y="602.7837259101" type="curve" smooth="yes"/>
			<point x="988" y="602.7837259101" type="line" smooth="yes"/>
			<point x="1027" y="602.7837259101"/>
			<point x="1057" y="571.7837259101"/>
			<point x="1057" y="532.7837259101" type="curve" smooth="yes"/>
			<point x="1057" y="493.7837259101"/>
			<point x="1027" y="462.7837259101"/>
			<point x="988" y="462.7837259101" type="curve" smooth="yes"/>
			<point x="150" y="462.7837259101" type="line" smooth="yes"/>
			<point x="111" y="462.7837259101"/>
			<point x="80" y="493.7837259101"/>
			<point x="80" y="532.7837259101" type="curve" smooth="yes"/>
			<point x="80" y="571.7837259101"/>
			<point x="110" y="602.7837259101"/>
		</contour>
	</outline>
</glyph>
<glyph name="macron" format="2">
	<unicode hex="00AF"/>
	<advance width="629"/>
	<outline>
		<contour>
			<point x="50" y="1314" type="curve" smooth="yes"/>
			<point x="50" y="1339"/>
			<point x="77" y="1385"/>
			<point x="98" y="1385" type="curve" smooth="yes"/>
			<point x="523" y="1385" type="line" smooth="yes"/>
			<point x="549" y="1385"/>
			<point x="579" y="1344"/>
			<point x="579" y="1314" type="curve" smooth="yes"/>
			<point x="579" y="1284"/>
			<point x="549" y="1244"/>
			<point x="523" y="1244" type="curve" smooth="yes"/>
			<point x="106" y="1244" type="line" smooth="yes"/>
			<point x="80" y="1244"/>
			<point x="50" y="1284"/>
		</contour>
	</outline>
</glyph>
<glyph name="degree" format="2">
	<unicode hex="00B0"/>
	<advance width="529"/>
	<outline>
		<contour>
			<point x="245.62387" y="1375.93828" type="curve" smooth="yes"/>
			<point x="359.10332" y="1375.33482"/>
			<point x="455.074512" y="1287.22966"/>
			<point x="455.074512" y="1181.0207" type="curve" smooth="yes"/>
			<point x="455.074512" y="1074.81174"/>
			<point x="357.806412" y="989.12042"/>
			<point x="244.326962" y="989.12042" type="curve" smooth="yes"/>
			<point x="130.199058" y="989.12042"/>
			<point x="34.87632" y="1076.62212"/>
			<point x="34.87632" y="1182.22762" type="curve" smooth="yes"/>
			<point x="34.87632" y="1287.83312"/>
			<point x="130.199058" y="1375.93828"/>
		</contour>
		<contour>
			<point x="364.290952" y="1181.62416" type="curve" smooth="yes"/>
			<point x="364.290952" y="1241.3667"/>
			<point x="309.172362" y="1290.24696"/>
			<point x="244.975416" y="1290.24696" type="curve" smooth="yes"/>
			<point x="180.77847" y="1290.24696"/>
			<point x="125.65988" y="1241.3667"/>
			<point x="125.65988" y="1181.62416" type="curve" smooth="yes"/>
			<point x="125.65988" y="1121.88162"/>
			<point x="180.130016" y="1073.60482"/>
			<point x="244.975416" y="1073.60482" type="curve" smooth="yes"/>
			<point x="309.820816" y="1073.60482"/>
			<point x="364.290952" y="1121.88162"/>
		</contour>
	</outline>
</glyph>
<glyph name="acute" format="2">
	<unicode hex="00B4"/>
	<advance width="445.741997342"/>
	<outline>
		<contour>
			<point x="370.741997342" y="1437" type="curve" smooth="yes"/>
			<point x="353.741997342" y="1437"/>
			<point x="330.741997342" y="1427"/>
			<point x="319.741997342" y="1415" type="curve" smooth="yes"/>
			<point x="31.741997342" y="1081" type="line" smooth="yes"/>
			<point x="21.741997342" y="1069"/>
			<point x="-15.258002658" y="1023"/>
			<point x="19.741997342" y="994" type="curve" smooth="yes"/>
			<point x="42.741997342" y="975"/>
			<point x="66.741997342" y="970"/>
			<point x="101.741997342" y="1002" type="curve" smooth="yes"/>
			<point x="420.741997342" y="1318" type="line" smooth="yes"/>
			<point x="431.741997342" y="1329"/>
			<point x="440.741997342" y="1351"/>
			<point x="440.741997342" y="1367" type="curve" smooth="yes"/>
			<point x="440.741997342" y="1406"/>
			<point x="408.741997342" y="1437"/>
		</contour>
	</outline>
</glyph>
<glyph name="uni00B5" format="2">
	<unicode hex="00B5"/>
	<advance width="1048.0000867155"/>
	<outline>
		<contour>
			<point x="873.0000867155" y="-26" type="curve" smooth="yes"/>
			<point x="832.0000867155" y="-26"/>
			<point x="803.0000867155" y="8"/>
			<point x="803.0000867155" y="49" type="curve" smooth="yes"/>
			<point x="798.0000867155" y="168" type="line"/>
			<point x="727.0000867155" y="81"/>
			<point x="621.0000867155" y="-23"/>
			<point x="468.0000867155" y="-23" type="curve" smooth="yes"/>
			<point x="203.0000867155" y="-23"/>
			<point x="101.0000867155" y="207"/>
			<point x="101.0000867155" y="462" type="curve"/>
			<point x="102.0000867155" y="947" type="line"/>
			<point x="102.0000867155" y="988"/>
			<point x="136.0000867155" y="1022"/>
			<point x="177.0000867155" y="1022" type="curve" smooth="yes"/>
			<point x="219.0000867155" y="1022"/>
			<point x="252.0000867155" y="988"/>
			<point x="252.0000867155" y="946" type="curve" smooth="yes"/>
			<point x="251.0000867155" y="462" type="line" smooth="yes"/>
			<point x="251.0000867155" y="285"/>
			<point x="295.0000867155" y="127"/>
			<point x="468.0000867155" y="127" type="curve" smooth="yes"/>
			<point x="685.0000867155" y="127"/>
			<point x="797.0000867155" y="248"/>
			<point x="797.0000867155" y="459" type="curve" smooth="yes"/>
			<point x="797.0000867155" y="949" type="line" smooth="yes"/>
			<point x="797.0000867155" y="990"/>
			<point x="831.0000867155" y="1024"/>
			<point x="872.0000867155" y="1024" type="curve" smooth="yes"/>
			<point x="914.0000867155" y="1024"/>
			<point x="947.0000867155" y="990"/>
			<point x="947.0000867155" y="948" type="curve" smooth="yes"/>
			<point x="948.0000867155" y="50" type="line" smooth="yes"/>
			<point x="948.0000867155" y="8"/>
			<point x="916.0000867155" y="-26"/>
		</contour>
		<contour>
			<point x="250.0000867155" y="-378" type="line" smooth="yes"/>
			<point x="249.9602687663" y="-412.9999773497"/>
			<point x="218.0000867155" y="-453"/>
			<point x="186.0000867155" y="-453" type="curve" smooth="yes"/>
			<point x="129.0000867155" y="-453"/>
			<point x="99.9420662752" y="-427.9999669956"/>
			<point x="100.0000867155" y="-377" type="curve" smooth="yes"/>
			<point x="101.0000867155" y="502" type="line" smooth="yes"/>
			<point x="101.0478682546" y="543.9999728197"/>
			<point x="134.0000867155" y="577"/>
			<point x="176.0000867155" y="577" type="curve" smooth="yes"/>
			<point x="218.0000867155" y="577"/>
			<point x="251.0000867155" y="543"/>
			<point x="251.0000867155" y="501" type="curve" smooth="yes"/>
		</contour>
	</outline>
</glyph>
<glyph name="paragraph" format="2">
  <advance width="1007"/>
  <unicode hex="00B6"/>
  <outline>
    <contour>
      <point x="840.0" y="1201.0" type="curve" smooth="yes"/>
      <point x="791.0" y="1201.0" type="line"/>
      <point x="791.0" y="47.0" type="line" smooth="yes"/>
      <point x="791.0" y="14.0"/>
      <point x="767.0" y="-15.0"/>
      <point x="725.0" y="-15.0" type="curve" smooth="yes"/>
      <point x="683.0" y="-15.0"/>
      <point x="656.0" y="14.0"/>
      <point x="656.0" y="47.0" type="curve" smooth="yes"/>
      <point x="656.0" y="1201.0" type="line"/>
      <point x="429.0" y="1201.0" type="line"/>
      <point x="429.0" y="47.0" type="line" smooth="yes"/>
      <point x="429.0" y="14.0"/>
      <point x="406.0" y="-15.0"/>
      <point x="364.0" y="-15.0" type="curve" smooth="yes"/>
      <point x="324.0" y="-15.0"/>
      <point x="296.0" y="14.0"/>
      <point x="296.0" y="47.0" type="curve" smooth="yes"/>
      <point x="296.0" y="788.0" type="line"/>
      <point x="180.0" y="821.0"/>
      <point x="100.0" y="928.0"/>
      <point x="100.0" y="1052.0" type="curve" smooth="yes"/>
      <point x="100.0" y="1201.0"/>
      <point x="227.0" y="1328.0"/>
      <point x="378.0" y="1328.0" type="curve" smooth="yes"/>
      <point x="840.0" y="1328.0" type="line" smooth="yes"/>
      <point x="880.0" y="1328.0"/>
      <point x="907.0" y="1303.0"/>
      <point x="907.0" y="1263.0" type="curve" smooth="yes"/>
      <point x="907.0" y="1223.0"/>
      <point x="880.0" y="1201.0"/>
    </contour>
  </outline>
</glyph>
<glyph name="cedilla" format="2">
	<unicode hex="00B8"/>
	<advance width="652"/>
	<outline>
		<contour>
			<point x="502" y="-468" type="curve" smooth="yes"/>
			<point x="502" y="-368"/>
			<point x="415" y="-297"/>
			<point x="315" y="-297" type="curve" smooth="yes"/>
			<point x="270" y="-297"/>
			<point x="230" y="-311"/>
			<point x="197" y="-336" type="curve" smooth="yes"/>
			<point x="186" y="-344"/>
			<point x="167" y="-351"/>
			<point x="153" y="-351" type="curve" smooth="yes"/>
			<point x="112" y="-351"/>
			<point x="78" y="-317"/>
			<point x="78" y="-276" type="curve" smooth="yes"/>
			<point x="78" y="-264"/>
			<point x="83" y="-245"/>
			<point x="90" y="-235" type="curve" smooth="yes"/>
			<point x="252" y="12" type="line" smooth="yes"/>
			<point x="264" y="31"/>
			<point x="291" y="47"/>
			<point x="315" y="47" type="curve" smooth="yes"/>
			<point x="356" y="47"/>
			<point x="390" y="13"/>
			<point x="390" y="-28" type="curve" smooth="yes"/>
			<point x="390" y="-41"/>
			<point x="385" y="-59"/>
			<point x="378" y="-70" type="curve" smooth="yes"/>
			<point x="327" y="-147" type="line"/>
			<point x="455" y="-151"/>
			<point x="558" y="-224"/>
			<point x="610" y="-313" type="curve" smooth="yes"/>
			<point x="637" y="-359"/>
			<point x="652" y="-413"/>
			<point x="652" y="-468" type="curve" smooth="yes"/>
			<point x="652" y="-625"/>
			<point x="536" y="-736"/>
			<point x="413" y="-774" type="curve" smooth="yes"/>
			<point x="377" y="-785"/>
			<point x="340" y="-791"/>
			<point x="303" y="-791" type="curve" smooth="yes"/>
			<point x="175" y="-791"/>
			<point x="84" y="-735"/>
			<point x="19" y="-660" type="curve" smooth="yes"/>
			<point x="9" y="-648"/>
			<point x="0" y="-627"/>
			<point x="0" y="-611" type="curve" smooth="yes"/>
			<point x="0" y="-570"/>
			<point x="34" y="-536"/>
			<point x="75" y="-536" type="curve" smooth="yes"/>
			<point x="94" y="-536"/>
			<point x="121" y="-548"/>
			<point x="133" y="-563" type="curve" smooth="yes"/>
			<point x="172" y="-608"/>
			<point x="226" y="-641"/>
			<point x="303" y="-641" type="curve" smooth="yes"/>
			<point x="409" y="-641"/>
			<point x="502" y="-570"/>
		</contour>
	</outline>
</glyph>
<glyph name="guillemotright" format="2">
	<unicode hex="00BB"/>
	<advance width="930"/>
	<outline>
		<contour>
			<point x="416" y="920" type="line"/>
			<point x="402" y="936"/>
			<point x="395" y="949"/>
			<point x="395" y="965" type="curve" smooth="yes"/>
			<point x="395" y="999"/>
			<point x="425" y="1028"/>
			<point x="459" y="1028" type="curve" smooth="yes"/>
			<point x="479" y="1028"/>
			<point x="493" y="1021"/>
			<point x="504" y="1010" type="curve"/>
			<point x="503" y="1010" type="line"/>
			<point x="801" y="721" type="line"/>
			<point x="801" y="723" type="line"/>
			<point x="837" y="691"/>
			<point x="844" y="649"/>
			<point x="804" y="613" type="curve"/>
			<point x="804" y="615" type="line"/>
			<point x="504" y="326" type="line"/>
			<point x="510" y="329" type="line"/>
			<point x="497" y="313"/>
			<point x="479" y="306"/>
			<point x="459" y="306" type="curve" smooth="yes"/>
			<point x="418" y="306"/>
			<point x="395" y="335"/>
			<point x="395" y="369" type="curve" smooth="yes"/>
			<point x="395" y="385"/>
			<point x="402" y="398"/>
			<point x="416" y="414" type="curve"/>
			<point x="679" y="667" type="line"/>
		</contour>
		<contour>
			<point x="382" y="667" type="line"/>
			<point x="122" y="920" type="line" smooth="yes"/>
			<point x="106" y="936"/>
			<point x="100" y="949"/>
			<point x="100" y="965" type="curve" smooth="yes"/>
			<point x="100" y="999"/>
			<point x="129" y="1028"/>
			<point x="165" y="1028" type="curve" smooth="yes"/>
			<point x="183" y="1028"/>
			<point x="197" y="1021"/>
			<point x="210" y="1010" type="curve"/>
			<point x="208" y="1010" type="line"/>
			<point x="506" y="721" type="line"/>
			<point x="506" y="723" type="line"/>
			<point x="546" y="687"/>
			<point x="550" y="649"/>
			<point x="510" y="613" type="curve"/>
			<point x="510" y="615" type="line"/>
			<point x="210" y="326" type="line"/>
			<point x="215" y="329" type="line"/>
			<point x="201" y="313"/>
			<point x="185" y="306"/>
			<point x="165" y="306" type="curve" smooth="yes"/>
			<point x="129" y="306"/>
			<point x="100" y="335"/>
			<point x="100" y="369" type="curve" smooth="yes"/>
			<point x="100" y="385"/>
			<point x="106" y="398"/>
			<point x="122" y="414" type="curve" smooth="yes"/>
		</contour>
	</outline>
</glyph>
<glyph name="uni00BD" format="2">
	<unicode hex="00BD"/>
	<advance width="1261"/>
	<outline>
		<contour>
			<point x="908" y="1433" type="curve" smooth="yes"/>
			<point x="955" y="1412"/>
			<point x="964" y="1364"/>
			<point x="949" y="1331" type="curve" smooth="yes"/>
			<point x="727" y="884"/>
			<point x="506" y="437"/>
			<point x="283" y="-9" type="curve" smooth="yes"/>
			<point x="268" y="-41"/>
			<point x="220" y="-51"/>
			<point x="194" y="-39" type="curve" smooth="yes"/>
			<point x="151" y="-20"/>
			<point x="132" y="23"/>
			<point x="151" y="63" type="curve" smooth="yes"/>
			<point x="813" y="1393" type="line" smooth="yes"/>
			<point x="831" y="1428"/>
			<point x="871" y="1450"/>
		</contour>
		<contour>
			<point x="78" y="1209" type="curve" smooth="yes"/>
			<point x="57" y="1209"/>
			<point x="31.5" y="1229"/>
			<point x="31.5" y="1243" type="curve" smooth="yes"/>
			<point x="31.5" y="1261"/>
			<point x="46.5" y="1280"/>
			<point x="70.5" y="1283" type="curve" smooth="yes"/>
			<point x="117" y="1289"/>
			<point x="160.5" y="1316"/>
			<point x="201" y="1365" type="curve" smooth="yes"/>
			<point x="211.5" y="1379"/>
			<point x="226.5" y="1386"/>
			<point x="246" y="1386" type="curve" smooth="yes"/>
			<point x="282" y="1386"/>
			<point x="307.5" y="1371"/>
			<point x="307.5" y="1349" type="curve" smooth="yes"/>
			<point x="307.5" y="761" type="line"/>
			<point x="415.5" y="761" type="line" smooth="yes"/>
			<point x="436.5" y="761"/>
			<point x="457.5" y="741"/>
			<point x="457.5" y="726" type="curve" smooth="yes"/>
			<point x="457.5" y="707"/>
			<point x="433.5" y="693"/>
			<point x="405" y="693" type="curve" smooth="yes"/>
			<point x="81" y="693" type="line" smooth="yes"/>
			<point x="52.5" y="693"/>
			<point x="28.5" y="707"/>
			<point x="28.5" y="726" type="curve" smooth="yes"/>
			<point x="28.5" y="741"/>
			<point x="51" y="761"/>
			<point x="70.5" y="761" type="curve" smooth="yes"/>
			<point x="195" y="761" type="line"/>
			<point x="195" y="1242" type="line"/>
			<point x="166.5" y="1226"/>
			<point x="127.5" y="1209"/>
		</contour>
		<contour>
			<point x="583.75" y="1" type="line" smooth="yes"/>
			<point x="552.25" y="1"/>
			<point x="526.75" y="18"/>
			<point x="526.75" y="39" type="curve" smooth="yes"/>
			<point x="526.75" y="44"/>
			<point x="563" y="54"/>
			<point x="567.5" y="59" type="curve" smooth="yes"/>
			<point x="618.5" y="121"/>
			<point x="684.5" y="176"/>
			<point x="764" y="223" type="curve" smooth="yes"/>
			<point x="882.5" y="294"/>
			<point x="1088" y="344"/>
			<point x="1088" y="480" type="curve" smooth="yes"/>
			<point x="1088" y="560"/>
			<point x="999.5" y="623"/>
			<point x="882.5" y="623" type="curve" smooth="yes"/>
			<point x="786.5" y="623"/>
			<point x="710" y="575"/>
			<point x="693.5" y="522" type="curve" smooth="yes"/>
			<point x="689" y="506"/>
			<point x="663.5" y="492"/>
			<point x="638" y="492" type="curve" smooth="yes"/>
			<point x="603.5" y="492"/>
			<point x="576.5" y="515"/>
			<point x="584" y="538" type="curve" smooth="yes"/>
			<point x="611" y="624"/>
			<point x="691.75" y="696"/>
			<point x="850.75" y="696" type="curve" smooth="yes"/>
			<point x="1033.75" y="696"/>
			<point x="1200.5" y="604"/>
			<point x="1200.5" y="480" type="curve" smooth="yes"/>
			<point x="1200.5" y="310"/>
			<point x="974" y="247"/>
			<point x="839" y="167" type="curve" smooth="yes"/>
			<point x="794" y="141"/>
			<point x="753.5" y="111"/>
			<point x="719" y="78" type="curve"/>
			<point x="1196" y="78" type="line" smooth="yes"/>
			<point x="1226" y="78"/>
			<point x="1218.25" y="59"/>
			<point x="1218.25" y="39" type="curve" smooth="yes"/>
			<point x="1218.25" y="18"/>
			<point x="1192.75" y="1"/>
			<point x="1162.75" y="1" type="curve" smooth="yes"/>
		</contour>
	</outline>
</glyph>
<glyph name="uni00BE" format="2">
	<unicode hex="00BE"/>
	<advance width="1372"/>
	<outline>
		<contour>
			<point x="1009" y="1433" type="curve" smooth="yes"/>
			<point x="1056" y="1412"/>
			<point x="1065" y="1364"/>
			<point x="1050" y="1331" type="curve" smooth="yes"/>
			<point x="828" y="884"/>
			<point x="607" y="437"/>
			<point x="384" y="-9" type="curve" smooth="yes"/>
			<point x="369" y="-41"/>
			<point x="321" y="-51"/>
			<point x="295" y="-39" type="curve" smooth="yes"/>
			<point x="252" y="-20"/>
			<point x="233" y="23"/>
			<point x="252" y="63" type="curve" smooth="yes"/>
			<point x="914" y="1393" type="line" smooth="yes"/>
			<point x="932" y="1428"/>
			<point x="972" y="1450"/>
		</contour>
		<contour>
			<point x="488.5" y="1199" type="curve" smooth="yes"/>
			<point x="488.5" y="1260"/>
			<point x="406" y="1311"/>
			<point x="313" y="1311" type="curve" smooth="yes"/>
			<point x="238" y="1311"/>
			<point x="169" y="1277"/>
			<point x="149.5" y="1242" type="curve" smooth="yes"/>
			<point x="136" y="1218"/>
			<point x="121" y="1207"/>
			<point x="83.5" y="1207" type="curve" smooth="yes"/>
			<point x="62.5" y="1207"/>
			<point x="34" y="1226"/>
			<point x="34" y="1241" type="curve" smooth="yes"/>
			<point x="34" y="1248"/>
			<point x="35.5" y="1254"/>
			<point x="38.5" y="1258" type="curve" smooth="yes"/>
			<point x="76" y="1328"/>
			<point x="176.5" y="1386"/>
			<point x="313" y="1386" type="curve" smooth="yes"/>
			<point x="469" y="1386"/>
			<point x="602.5" y="1304"/>
			<point x="602.5" y="1194" type="curve" smooth="yes"/>
			<point x="602.5" y="1131"/>
			<point x="553" y="1082"/>
			<point x="499" y="1052" type="curve"/>
			<point x="574" y="1023"/>
			<point x="625" y="971"/>
			<point x="625" y="902" type="curve" smooth="yes"/>
			<point x="625" y="778"/>
			<point x="470.5" y="689"/>
			<point x="295" y="689" type="curve" smooth="yes"/>
			<point x="167.5" y="689"/>
			<point x="62.5" y="737"/>
			<point x="5.5" y="791" type="curve" smooth="yes"/>
			<point x="-0.5" y="797"/>
			<point x="-5" y="806"/>
			<point x="-5" y="815" type="curve" smooth="yes"/>
			<point x="-5" y="835"/>
			<point x="23.5" y="850"/>
			<point x="55" y="850" type="curve" smooth="yes"/>
			<point x="73" y="850"/>
			<point x="86.5" y="845"/>
			<point x="98.5" y="834" type="curve" smooth="yes"/>
			<point x="134.5" y="800"/>
			<point x="208" y="765"/>
			<point x="290.5" y="765" type="curve" smooth="yes"/>
			<point x="409" y="765"/>
			<point x="512.5" y="823"/>
			<point x="512.5" y="900" type="curve" smooth="yes"/>
			<point x="512.5" y="982"/>
			<point x="425.5" y="1007"/>
			<point x="298" y="1007" type="curve" smooth="yes"/>
			<point x="269.5" y="1007"/>
			<point x="245.5" y="1022"/>
			<point x="245.5" y="1044" type="curve" smooth="yes"/>
			<point x="245.5" y="1072"/>
			<point x="278.5" y="1084"/>
			<point x="311.5" y="1084" type="curve" smooth="yes"/>
			<point x="410.5" y="1084"/>
			<point x="488.5" y="1121"/>
		</contour>
		<contour>
			<point x="1075.5" y="-31" type="curve" smooth="yes"/>
			<point x="1044" y="-31"/>
			<point x="1018.5" y="-14"/>
			<point x="1018.5" y="7" type="curve" smooth="yes"/>
			<point x="1018.5" y="183" type="line"/>
			<point x="585" y="184" type="line" smooth="yes"/>
			<point x="555" y="184"/>
			<point x="528" y="201"/>
			<point x="528" y="221" type="curve" smooth="yes"/>
			<point x="528" y="230"/>
			<point x="532.5" y="238"/>
			<point x="540" y="245" type="curve" smooth="yes"/>
			<point x="1029" y="659" type="line" smooth="yes"/>
			<point x="1041" y="669"/>
			<point x="1054.5" y="673"/>
			<point x="1071" y="673" type="curve" smooth="yes"/>
			<point x="1104" y="673"/>
			<point x="1128" y="657"/>
			<point x="1128" y="636" type="curve" smooth="yes"/>
			<point x="1131" y="258" type="line"/>
			<point x="1299" y="258" type="line" smooth="yes"/>
			<point x="1330.5" y="258"/>
			<point x="1356" y="241"/>
			<point x="1356" y="220" type="curve" smooth="yes"/>
			<point x="1356" y="199"/>
			<point x="1329" y="183"/>
			<point x="1297.5" y="183" type="curve" smooth="yes"/>
			<point x="1131" y="183" type="line"/>
			<point x="1131" y="7" type="line" smooth="yes"/>
			<point x="1131" y="-14"/>
			<point x="1107" y="-31"/>
		</contour>
		<contour>
			<point x="1018.5" y="258" type="line"/>
			<point x="1017" y="529" type="line"/>
			<point x="700.5" y="259" type="line"/>
		</contour>
	</outline>
</glyph>
<glyph name="AE" format="2">
  <advance width="2028"/>
  <unicode hex="00C6"/>
  <outline>
    <contour>
      <point x="675.0" y="1385.0" type="curve" smooth="yes"/>
      <point x="1852.0" y="1383.0" type="line" smooth="yes"/>
      <point x="1894.0" y="1384.0"/>
      <point x="1928.0" y="1350.0"/>
      <point x="1928.0" y="1308.0" type="curve" smooth="yes"/>
      <point x="1928.0" y="1266.0"/>
      <point x="1894.0" y="1232.0"/>
      <point x="1852.0" y="1233.0" type="curve" smooth="yes"/>
      <point x="990.0" y="1234.0" type="line"/>
      <point x="991.0" y="750.0" type="line"/>
      <point x="994.0" y="750.0"/>
      <point x="998.0" y="751.0"/>
      <point x="1001.0" y="751.0" type="curve" smooth="yes"/>
      <point x="1770.0" y="746.0" type="line" smooth="yes"/>
      <point x="1812.0" y="746.0"/>
      <point x="1845.0" y="712.0"/>
      <point x="1845.0" y="670.0" type="curve" smooth="yes"/>
      <point x="1845.0" y="628.0"/>
      <point x="1811.0" y="595.0"/>
      <point x="1769.0" y="596.0" type="curve" smooth="yes"/>
      <point x="1000.0" y="601.0" type="line"/>
      <point x="992.0" y="601.0" type="line"/>
      <point x="993.0" y="136.0" type="line"/>
      <point x="1852.0" y="137.0" type="line" smooth="yes"/>
      <point x="1894.0" y="138.0"/>
      <point x="1928.0" y="104.0"/>
      <point x="1928.0" y="62.0" type="curve" smooth="yes"/>
      <point x="1928.0" y="20.0"/>
      <point x="1894.0" y="-14.0"/>
      <point x="1852.0" y="-13.0" type="curve" smooth="yes"/>
      <point x="918.0" y="-14.0" type="line" smooth="yes"/>
      <point x="877.0" y="-14.0"/>
      <point x="843.0" y="20.0"/>
      <point x="843.0" y="61.0" type="curve" smooth="yes"/>
      <point x="842.0" y="460.0" type="line"/>
      <point x="390.0" y="467.0" type="line"/>
      <point x="194.0" y="18.0" type="line" smooth="yes"/>
      <point x="178.0" y="-21.0"/>
      <point x="133.0" y="-39.0"/>
      <point x="95.0" y="-22.0" type="curve" smooth="yes"/>
      <point x="57.0" y="-5.0"/>
      <point x="40.0" y="40.0"/>
      <point x="57.0" y="78.0" type="curve" smooth="yes"/>
      <point x="606.0" y="1340.0" type="line" smooth="yes"/>
      <point x="618.0" y="1367.0"/>
      <point x="645.0" y="1385.0"/>
    </contour>
    <contour>
      <point x="455.0" y="617.0" type="line"/>
      <point x="842.0" y="610.0" type="line"/>
      <point x="840.0" y="1235.0" type="line"/>
      <point x="724.0" y="1235.0" type="line"/>
    </contour>
  </outline>
</glyph>
<glyph name="Ccedilla" format="2">
  <advance width="1431"/>
  <unicode hex="00C7"/>
  <outline>
    <contour>
      <point x="947.0" y="-432.0" type="curve" smooth="yes"/>
      <point x="947.0" y="-332.0"/>
      <point x="860.0" y="-261.0"/>
      <point x="760.0" y="-261.0" type="curve" smooth="yes"/>
      <point x="715.0" y="-261.0"/>
      <point x="676.0" y="-275.0"/>
      <point x="643.0" y="-300.0" type="curve" smooth="yes"/>
      <point x="632.0" y="-308.0"/>
      <point x="612.0" y="-315.0"/>
      <point x="598.0" y="-315.0" type="curve" smooth="yes"/>
      <point x="557.0" y="-315.0"/>
      <point x="523.0" y="-281.0"/>
      <point x="523.0" y="-240.0" type="curve" smooth="yes"/>
      <point x="523.0" y="-228.0"/>
      <point x="528.0" y="-209.0"/>
      <point x="535.0" y="-199.0" type="curve" smooth="yes"/>
      <point x="653.0" y="-19.0" type="line"/>
      <point x="299.0" y="19.0"/>
      <point x="77.0" y="318.0"/>
      <point x="77.0" y="687.0" type="curve" smooth="yes"/>
      <point x="77.0" y="1075.0"/>
      <point x="336.0" y="1391.0"/>
      <point x="726.0" y="1391.0" type="curve" smooth="yes"/>
      <point x="1022.0" y="1391.0"/>
      <point x="1245.0" y="1213.0"/>
      <point x="1346.0" y="1001.0" type="curve" smooth="yes"/>
      <point x="1351.0" y="991.0"/>
      <point x="1354.0" y="980.0"/>
      <point x="1354.0" y="967.0" type="curve" smooth="yes"/>
      <point x="1354.0" y="928.0"/>
      <point x="1320.0" y="893.0"/>
      <point x="1291.0" y="893.0" type="curve" smooth="yes"/>
      <point x="1251.0" y="893.0"/>
      <point x="1224.0" y="908.0"/>
      <point x="1211.0" y="937.0" type="curve" smooth="yes"/>
      <point x="1132.0" y="1103.0"/>
      <point x="958.0" y="1241.0"/>
      <point x="726.0" y="1241.0" type="curve" smooth="yes"/>
      <point x="418.0" y="1241.0"/>
      <point x="227.0" y="991.0"/>
      <point x="227.0" y="684.0" type="curve" smooth="yes"/>
      <point x="227.0" y="375.0"/>
      <point x="416.0" y="128.0"/>
      <point x="727.0" y="128.0" type="curve" smooth="yes"/>
      <point x="958.0" y="128.0"/>
      <point x="1137.0" y="275.0"/>
      <point x="1212.0" y="442.0" type="curve" smooth="yes"/>
      <point x="1225.0" y="472.0"/>
      <point x="1250.0" y="488.0"/>
      <point x="1286.0" y="488.0" type="curve" smooth="yes"/>
      <point x="1319.0" y="488.0"/>
      <point x="1356.0" y="452.0"/>
      <point x="1356.0" y="420.0" type="curve" smooth="yes"/>
      <point x="1356.0" y="404.0"/>
      <point x="1354.0" y="391.0"/>
      <point x="1349.0" y="381.0" type="curve" smooth="yes"/>
      <point x="1263.0" y="190.0"/>
      <point x="1081.0" y="21.0"/>
      <point x="831.0" y="-16.0" type="curve"/>
      <point x="829.0" y="-23.0"/>
      <point x="826.0" y="-29.0"/>
      <point x="823.0" y="-34.0" type="curve" smooth="yes"/>
      <point x="772.0" y="-112.0" type="line"/>
      <point x="900.0" y="-116.0"/>
      <point x="1003.0" y="-188.0"/>
      <point x="1055.0" y="-277.0" type="curve" smooth="yes"/>
      <point x="1082.0" y="-323.0"/>
      <point x="1097.0" y="-377.0"/>
      <point x="1097.0" y="-432.0" type="curve" smooth="yes"/>
      <point x="1097.0" y="-589.0"/>
      <point x="981.0" y="-700.0"/>
      <point x="858.0" y="-738.0" type="curve" smooth="yes"/>
      <point x="822.0" y="-749.0"/>
      <point x="785.0" y="-755.0"/>
      <point x="748.0" y="-755.0" type="curve" smooth="yes"/>
      <point x="620.0" y="-755.0"/>
      <point x="529.0" y="-699.0"/>
      <point x="464.0" y="-624.0" type="curve" smooth="yes"/>
      <point x="454.0" y="-612.0"/>
      <point x="445.0" y="-591.0"/>
      <point x="445.0" y="-575.0" type="curve" smooth="yes"/>
      <point x="445.0" y="-534.0"/>
      <point x="479.0" y="-500.0"/>
      <point x="520.0" y="-500.0" type="curve" smooth="yes"/>
      <point x="539.0" y="-500.0"/>
      <point x="566.0" y="-512.0"/>
      <point x="578.0" y="-527.0" type="curve" smooth="yes"/>
      <point x="617.0" y="-572.0"/>
      <point x="671.0" y="-605.0"/>
      <point x="748.0" y="-605.0" type="curve" smooth="yes"/>
      <point x="854.0" y="-605.0"/>
      <point x="947.0" y="-534.0"/>
    </contour>
  </outline>
</glyph>
<glyph name="Eth" format="2">
	<unicode hex="00D0"/>
	<advance width="1330"/>
	<outline>
		<contour>
			<point x="-122" y="680" type="curve" smooth="yes"/>
			<point x="-122" y="701"/>
			<point x="-103" y="741"/>
			<point x="-89" y="741" type="curve"/>
			<point x="-73" y="740" type="line"/>
			<point x="104" y="740" type="line"/>
			<point x="107" y="1303" type="line" smooth="yes"/>
			<point x="107" y="1343"/>
			<point x="140" y="1377"/>
			<point x="180" y="1378" type="curve" smooth="yes"/>
			<point x="407" y="1383" type="line" smooth="yes"/>
			<point x="437" y="1384"/>
			<point x="479" y="1384"/>
			<point x="532" y="1384" type="curve" smooth="yes"/>
			<point x="846" y="1386"/>
			<point x="1089" y="1227"/>
			<point x="1192" y="998" type="curve" smooth="yes"/>
			<point x="1279" y="804"/>
			<point x="1276" y="565"/>
			<point x="1187" y="375" type="curve" smooth="yes"/>
			<point x="1100" y="189"/>
			<point x="926" y="54"/>
			<point x="700" y="10" type="curve" smooth="yes"/>
			<point x="629" y="-4"/>
			<point x="530" y="-10"/>
			<point x="402" y="-8" type="curve" smooth="yes"/>
			<point x="174" y="-5" type="line" smooth="yes"/>
			<point x="134" y="-4"/>
			<point x="100" y="29"/>
			<point x="100" y="70" type="curve" smooth="yes"/>
			<point x="103" y="620" type="line"/>
			<point x="-84" y="620" type="line" smooth="yes"/>
			<point x="-102" y="620"/>
			<point x="-122" y="654"/>
		</contour>
		<contour>
			<point x="404" y="142" type="line" smooth="yes"/>
			<point x="640" y="139"/>
			<point x="766" y="156"/>
			<point x="901" y="256" type="curve" smooth="yes"/>
			<point x="1020" y="344"/>
			<point x="1104" y="492"/>
			<point x="1106" y="687" type="curve" smooth="yes"/>
			<point x="1108" y="883"/>
			<point x="1024" y="1033"/>
			<point x="907" y="1121" type="curve" smooth="yes"/>
			<point x="773" y="1222"/>
			<point x="648" y="1238"/>
			<point x="411" y="1233" type="curve" smooth="yes"/>
			<point x="256" y="1229" type="line"/>
			<point x="253" y="740" type="line"/>
			<point x="453" y="740" type="line"/>
			<point x="464" y="741" type="line"/>
			<point x="482" y="741"/>
			<point x="502" y="706"/>
			<point x="502" y="680" type="curve" smooth="yes"/>
			<point x="502" y="654"/>
			<point x="482" y="620"/>
			<point x="464" y="620" type="curve" smooth="yes"/>
			<point x="253" y="620" type="line"/>
			<point x="250" y="144" type="line"/>
		</contour>
	</outline>
</glyph>
<glyph name="Oslash" format="2">
  <advance width="1503"/>
  <unicode hex="00D8"/>
  <outline>
    <contour>
      <point x="1091.0" y="1390.0" type="curve" smooth="yes"/>
      <point x="1143.0" y="1368.0"/>
      <point x="1146.0" y="1320.0"/>
      <point x="1128.0" y="1286.0" type="curve"/>
      <point x="1313.0" y="1162.0"/>
      <point x="1428.0" y="946.0"/>
      <point x="1428.0" y="694.0" type="curve" smooth="yes"/>
      <point x="1428.0" y="296.0"/>
      <point x="1147.0" y="-14.0"/>
      <point x="750.0" y="-14.0" type="curve" smooth="yes"/>
      <point x="651.0" y="-14.0"/>
      <point x="562.0" y="4.0"/>
      <point x="481.0" y="38.0" type="curve"/>
      <point x="476.0" y="29.0"/>
      <point x="471.0" y="19.0"/>
      <point x="466.0" y="10.0" type="curve"/>
      <point x="451.0" y="-21.0"/>
      <point x="403.0" y="-30.0"/>
      <point x="377.0" y="-19.0" type="curve" smooth="yes"/>
      <point x="334.0" y="-1.0"/>
      <point x="315.0" y="40.0"/>
      <point x="334.0" y="78.0" type="curve" smooth="yes"/>
      <point x="351.0" y="111.0" type="line"/>
      <point x="177.0" y="238.0"/>
      <point x="75.0" y="451.0"/>
      <point x="75.0" y="699.0" type="curve" smooth="yes"/>
      <point x="75.0" y="1089.0"/>
      <point x="362.0" y="1398.0"/>
      <point x="749.0" y="1398.0" type="curve" smooth="yes"/>
      <point x="838.0" y="1398.0"/>
      <point x="921.0" y="1383.0"/>
      <point x="997.0" y="1354.0" type="curve"/>
      <point x="1015.0" y="1387.0"/>
      <point x="1055.0" y="1406.0"/>
    </contour>
    <contour>
      <point x="753.0" y="1245.0" type="curve" smooth="yes"/>
      <point x="441.0" y="1245.0"/>
      <point x="225.0" y="995.0"/>
      <point x="225.0" y="678.0" type="curve" smooth="yes"/>
      <point x="225.0" y="509.0"/>
      <point x="304.0" y="355.0"/>
      <point x="426.0" y="255.0" type="curve"/>
      <point x="925.0" y="1216.0" type="line"/>
      <point x="871.0" y="1235.0"/>
      <point x="813.0" y="1245.0"/>
    </contour>
    <contour>
      <point x="1056.0" y="1146.0" type="curve"/>
      <point x="553.0" y="178.0" type="line"/>
      <point x="614.0" y="152.0"/>
      <point x="681.0" y="138.0"/>
      <point x="750.0" y="138.0" type="curve" smooth="yes"/>
      <point x="1039.0" y="138.0"/>
      <point x="1281.0" y="395.0"/>
      <point x="1281.0" y="673.0" type="curve" smooth="yes"/>
      <point x="1281.0" y="876.0"/>
      <point x="1193.0" y="1045.0"/>
    </contour>
  </outline>
</glyph>
<glyph name="Thorn" format="2">
  <advance width="1293.6292875989445"/>
  <unicode hex="00DE"/>
  <outline>
    <contour>
      <point x="196.0" y="-21.0" type="curve" smooth="yes"/>
      <point x="155.0" y="-21.0"/>
      <point x="121.0" y="13.0"/>
      <point x="121.0" y="54.0" type="curve" smooth="yes"/>
      <point x="121.0" y="55.0" type="line"/>
      <point x="120.0" y="1311.0" type="line"/>
      <point x="120.0" y="1312.0" type="line" smooth="yes"/>
      <point x="120.0" y="1350.0"/>
      <point x="154.0" y="1387.0"/>
      <point x="190.0" y="1387.0" type="curve" smooth="yes"/>
      <point x="239.0" y="1387.0"/>
      <point x="270.0" y="1355.0"/>
      <point x="270.0" y="1312.0" type="curve" smooth="yes"/>
      <point x="270.0" y="1311.0" type="line"/>
      <point x="271.0" y="55.0" type="line"/>
      <point x="271.0" y="54.0" type="line" smooth="yes"/>
      <point x="271.0" y="13.0"/>
      <point x="237.0" y="-21.0"/>
    </contour>
    <contour>
      <point x="214.96330700202896" y="448.0353777807516" type="line"/>
      <point x="706.1292875989445" y="453.0989445910291" type="line" smooth="yes"/>
      <point x="930.3792875989445" y="454.5989445910291"/>
      <point x="1081.8792875989445" y="537.8489445910291"/>
      <point x="1081.8792875989445" y="748.5989445910291" type="curve" smooth="yes"/>
      <point x="1081.8792875989445" y="980.3489445910291"/>
      <point x="927.3792875989445" y="1067.348944591029"/>
      <point x="717.3792875989445" y="1067.348944591029" type="curve" smooth="yes"/>
      <point x="211.55349173238096" y="1065.8933307899742" type="line"/>
      <point x="207.6745646464212" y="1178.3822162828085" type="line"/>
      <point x="716.6292875989445" y="1179.848944591029" type="line" smooth="yes"/>
      <point x="1014.3792875989445" y="1179.848944591029"/>
      <point x="1193.6292875989445" y="1039.598944591029"/>
      <point x="1193.6292875989445" y="751.5989445910291" type="curve" smooth="yes"/>
      <point x="1193.6292875989445" y="475.5989445910291"/>
      <point x="994.1292875989445" y="343.5989445910291"/>
      <point x="706.8792875989445" y="340.5989445910291" type="curve" smooth="yes"/>
      <point x="213.4427204059582" y="335.5119696715138" type="line"/>
    </contour>
  </outline>
</glyph>
